<svg width="369" height="253" viewBox="0 0 369 253" fill="none" xmlns="http://www.w3.org/2000/svg">
<path d="M66.9066 87.8905L66.6166 89.5805H67.8066V90.1905H66.5166L66.2066 92.0605H65.5266L65.8366 90.1905H64.1766L63.8666 92.0605H63.1866L63.4966 90.1905H62.2566V89.5805H63.5966L63.8866 87.8905H62.6966V87.2805H63.9866L64.2866 85.4605H64.9666L64.6666 87.2805H66.3266L66.6266 85.4605H67.3066L67.0066 87.2805H68.2466V87.8905H66.9066ZM66.2266 87.8905H64.5666L64.2766 89.5805H65.9366L66.2266 87.8905ZM71.5231 85.4605V92.0605H70.7231V87.2205C70.7231 87.0805 70.7298 86.8239 70.7431 86.4505C70.5165 86.6705 70.2531 86.8639 69.9531 87.0305C69.6531 87.1905 69.3465 87.3072 69.0331 87.3805L68.8231 86.6505C68.9831 86.6305 69.1998 86.5572 69.4731 86.4305C69.7465 86.2972 70.0098 86.1439 70.2631 85.9705C70.5165 85.7905 70.7031 85.6205 70.8231 85.4605H71.5231ZM73.6249 85.4605H75.9749C76.7349 85.4605 77.2983 85.6205 77.6649 85.9405C78.0383 86.2539 78.2249 86.7005 78.2249 87.2805C78.2249 87.6272 78.1249 87.9339 77.9249 88.2005C77.7316 88.4672 77.4616 88.6339 77.1149 88.7005V88.7105C77.5016 88.7839 77.8116 88.9605 78.0449 89.2405C78.2783 89.5205 78.3949 89.8439 78.3949 90.2105C78.3949 90.7772 78.1816 91.2272 77.7549 91.5605C77.3283 91.8939 76.7316 92.0605 75.9649 92.0605H73.6249V85.4605ZM75.9849 88.3605C76.4583 88.3605 76.8083 88.2739 77.0349 88.1005C77.2683 87.9205 77.3849 87.6472 77.3849 87.2805C77.3849 86.5672 76.9183 86.2105 75.9849 86.2105H74.4249V88.3605H75.9849ZM76.1549 91.3105C76.6216 91.3105 76.9716 91.2172 77.2049 91.0305C77.4383 90.8372 77.5549 90.5639 77.5549 90.2105C77.5549 89.8572 77.4383 89.5872 77.2049 89.4005C76.9716 89.2072 76.6216 89.1105 76.1549 89.1105H74.4249V91.3105H76.1549ZM82.1481 85.4605V92.0605H81.3481V87.2205C81.3481 87.0805 81.3548 86.8239 81.3681 86.4505C81.1415 86.6705 80.8781 86.8639 80.5781 87.0305C80.2781 87.1905 79.9715 87.3072 79.6581 87.3805L79.4481 86.6505C79.6081 86.6305 79.8248 86.5572 80.0981 86.4305C80.3715 86.2972 80.6348 86.1439 80.8881 85.9705C81.1415 85.7905 81.3281 85.6205 81.4481 85.4605H82.1481ZM85.0499 86.2105V88.3405H88.0299V89.0905H85.0499V92.0605H84.2499V85.4605H88.8699V86.2105H85.0499ZM92.1834 85.3605C92.6168 85.3605 92.9868 85.4405 93.2934 85.6005C93.6068 85.7539 93.8434 85.9605 94.0034 86.2205C94.1634 86.4805 94.2434 86.7672 94.2434 87.0805C94.2434 87.3872 94.1868 87.6639 94.0734 87.9105C93.9601 88.1572 93.8068 88.3539 93.6134 88.5005C93.4268 88.6405 93.2234 88.7105 93.0034 88.7105V88.7305C93.4234 88.7305 93.7601 88.8839 94.0134 89.1905C94.2668 89.4905 94.3934 89.8572 94.3934 90.2905C94.3934 90.6439 94.2968 90.9639 94.1034 91.2505C93.9168 91.5372 93.6468 91.7605 93.2934 91.9205C92.9401 92.0805 92.5334 92.1605 92.0734 92.1605C90.9734 92.1605 90.2134 91.6339 89.7934 90.5805L90.5334 90.1905C90.6668 90.5972 90.8501 90.9039 91.0834 91.1105C91.3234 91.3105 91.6734 91.4105 92.1334 91.4105C92.5801 91.4105 92.9301 91.3005 93.1834 91.0805C93.4368 90.8539 93.5634 90.5639 93.5634 90.2105C93.5634 89.8039 93.4401 89.5205 93.1934 89.3605C92.9534 89.1939 92.5701 89.1105 92.0434 89.1105H91.7834V88.3605H92.0434C92.9568 88.3605 93.4134 87.9872 93.4134 87.2405C93.4134 86.8672 93.3068 86.5872 93.0934 86.4005C92.8868 86.2072 92.5868 86.1105 92.1934 86.1105C91.8068 86.1105 91.4968 86.2005 91.2634 86.3805C91.0368 86.5539 90.8801 86.8005 90.7934 87.1205L90.0434 86.7705C90.2034 86.3372 90.4734 85.9939 90.8534 85.7405C91.2401 85.4872 91.6834 85.3605 92.1834 85.3605ZM96.1835 85.4605H98.5335C99.2935 85.4605 99.8568 85.6205 100.224 85.9405C100.597 86.2539 100.784 86.7005 100.784 87.2805C100.784 87.6272 100.684 87.9339 100.484 88.2005C100.29 88.4672 100.02 88.6339 99.6735 88.7005V88.7105C100.06 88.7839 100.37 88.9605 100.604 89.2405C100.837 89.5205 100.954 89.8439 100.954 90.2105C100.954 90.7772 100.74 91.2272 100.314 91.5605C99.8868 91.8939 99.2902 92.0605 98.5235 92.0605H96.1835V85.4605ZM98.5435 88.3605C99.0168 88.3605 99.3668 88.2739 99.5935 88.1005C99.8268 87.9205 99.9435 87.6472 99.9435 87.2805C99.9435 86.5672 99.4768 86.2105 98.5435 86.2105H96.9835V88.3605H98.5435ZM98.7135 91.3105C99.1802 91.3105 99.5302 91.2172 99.7635 91.0305C99.9968 90.8372 100.114 90.5639 100.114 90.2105C100.114 89.8572 99.9968 89.5872 99.7635 89.4005C99.5302 89.2072 99.1802 89.1105 98.7135 89.1105H96.9835V91.3105H98.7135Z" fill="black"/>
<circle cx="182.434" cy="37.3168" r="37.3168" fill="#F9F6EF"/>
<path d="M166.606 86.5986L166.316 88.2886H167.506V88.8986H166.216L165.906 90.7686H165.226L165.536 88.8986H163.876L163.566 90.7686H162.886L163.196 88.8986H161.956V88.2886H163.296L163.586 86.5986H162.396V85.9886H163.686L163.986 84.1686H164.666L164.366 85.9886H166.026L166.326 84.1686H167.006L166.706 85.9886H167.946V86.5986H166.606ZM165.926 86.5986H164.266L163.976 88.2886H165.636L165.926 86.5986ZM170.032 84.9186V87.0486H173.012V87.7986H170.032V90.7686H169.232V84.1686H173.852V84.9186H170.032ZM177.226 84.0686C177.766 84.0686 178.226 84.2119 178.606 84.4986C178.992 84.7852 179.282 85.1852 179.476 85.6986C179.676 86.2052 179.776 86.7952 179.776 87.4686C179.776 88.5752 179.559 89.4186 179.126 89.9986C178.692 90.5786 178.062 90.8686 177.236 90.8686C176.642 90.8686 176.159 90.7452 175.786 90.4986C175.419 90.2519 175.139 89.8786 174.946 89.3786L175.736 88.9586C175.856 89.3519 176.019 89.6452 176.226 89.8386C176.439 90.0252 176.772 90.1186 177.226 90.1186C177.886 90.1186 178.352 89.8686 178.626 89.3686C178.906 88.8686 179.046 88.1452 179.046 87.1986V87.1086H179.006C178.912 87.5486 178.689 87.8652 178.336 88.0586C177.989 88.2519 177.599 88.3486 177.166 88.3486C176.499 88.3486 175.962 88.1552 175.556 87.7686C175.156 87.3819 174.956 86.8619 174.956 86.2086C174.956 85.5552 175.159 85.0352 175.566 84.6486C175.979 84.2619 176.532 84.0686 177.226 84.0686ZM177.236 84.8386C176.782 84.8386 176.429 84.9619 176.176 85.2086C175.922 85.4486 175.796 85.7852 175.796 86.2186C175.796 86.6386 175.922 86.9719 176.176 87.2186C176.429 87.4586 176.782 87.5786 177.236 87.5786C177.662 87.5786 178.009 87.4519 178.276 87.1986C178.542 86.9452 178.676 86.6186 178.676 86.2186C178.676 85.8052 178.542 85.4719 178.276 85.2186C178.016 84.9652 177.669 84.8386 177.236 84.8386ZM182.366 84.9186V87.0486H185.346V87.7986H182.366V90.7686H181.566V84.1686H186.186V84.9186H182.366ZM189.88 84.0686C190.406 84.0686 190.836 84.1786 191.17 84.3986C191.503 84.6186 191.773 84.9719 191.98 85.4586L191.24 85.8086C191.026 85.1486 190.556 84.8186 189.83 84.8186C189.483 84.8186 189.173 84.9419 188.9 85.1886C188.633 85.4352 188.423 85.7719 188.27 86.1986C188.123 86.6252 188.05 87.0986 188.05 87.6186V87.7986H188.09C188.19 87.4052 188.416 87.1052 188.77 86.8986C189.123 86.6919 189.5 86.5886 189.9 86.5886C190.573 86.5886 191.11 86.7819 191.51 87.1686C191.916 87.5552 192.12 88.0752 192.12 88.7286C192.12 89.3819 191.913 89.9019 191.5 90.2886C191.093 90.6752 190.543 90.8686 189.85 90.8686C189.31 90.8686 188.846 90.7252 188.46 90.4386C188.08 90.1452 187.79 89.7452 187.59 89.2386C187.396 88.7252 187.3 88.1352 187.3 87.4686C187.3 86.7486 187.41 86.1352 187.63 85.6286C187.856 85.1152 188.163 84.7286 188.55 84.4686C188.943 84.2019 189.386 84.0686 189.88 84.0686ZM189.84 87.3586C189.413 87.3586 189.066 87.4852 188.8 87.7386C188.533 87.9919 188.4 88.3186 188.4 88.7186C188.4 89.1319 188.53 89.4652 188.79 89.7186C189.056 89.9719 189.406 90.0986 189.84 90.0986C190.293 90.0986 190.646 89.9786 190.9 89.7386C191.153 89.4919 191.28 89.1519 191.28 88.7186C191.28 88.2986 191.153 87.9686 190.9 87.7286C190.646 87.4819 190.293 87.3586 189.84 87.3586ZM198.631 90.0186V90.7686H193.851V84.1686H198.481V84.9186H194.651V87.0486H197.631V87.7986H194.651V90.0186H198.631ZM201.028 84.9186V87.0486H204.008V87.7986H201.028V90.7686H200.228V84.1686H204.848V84.9186H201.028Z" fill="black"/>
<circle cx="278.86" cy="37.3168" r="37.0668" fill="#FBFBFB" stroke="black" stroke-width="0.5"/>
<path d="M259.158 88.1786L258.868 89.8686H260.058V90.4786H258.768L258.458 92.3486H257.778L258.088 90.4786H256.428L256.118 92.3486H255.438L255.748 90.4786H254.508V89.8686H255.848L256.138 88.1786H254.948V87.5686H256.238L256.538 85.7486H257.218L256.918 87.5686H258.578L258.878 85.7486H259.558L259.258 87.5686H260.498V88.1786H259.158ZM258.478 88.1786H256.818L256.528 89.8686H258.188L258.478 88.1786ZM267.105 90.6586C266.898 91.2186 266.558 91.6586 266.085 91.9786C265.611 92.292 265.065 92.4486 264.445 92.4486C263.825 92.4486 263.285 92.312 262.825 92.0386C262.365 91.7586 262.008 91.3653 261.755 90.8586C261.508 90.3453 261.385 89.742 261.385 89.0486C261.385 88.362 261.508 87.762 261.755 87.2486C262.008 86.7353 262.365 86.342 262.825 86.0686C263.285 85.7886 263.818 85.6486 264.425 85.6486C265.058 85.6486 265.588 85.7786 266.015 86.0386C266.448 86.2986 266.771 86.682 266.985 87.1886L266.195 87.5586C266.048 87.172 265.835 86.882 265.555 86.6886C265.275 86.4953 264.918 86.3986 264.485 86.3986C264.031 86.3986 263.635 86.5053 263.295 86.7186C262.955 86.9253 262.691 87.2286 262.505 87.6286C262.318 88.0286 262.225 88.502 262.225 89.0486C262.225 89.8753 262.421 90.5253 262.815 90.9986C263.215 91.4653 263.758 91.6986 264.445 91.6986C264.891 91.6986 265.278 91.5853 265.605 91.3586C265.931 91.132 266.165 90.7986 266.305 90.3586L267.105 90.6586ZM273.96 90.6586C273.753 91.2186 273.413 91.6586 272.94 91.9786C272.467 92.292 271.92 92.4486 271.3 92.4486C270.68 92.4486 270.14 92.312 269.68 92.0386C269.22 91.7586 268.863 91.3653 268.61 90.8586C268.363 90.3453 268.24 89.742 268.24 89.0486C268.24 88.362 268.363 87.762 268.61 87.2486C268.863 86.7353 269.22 86.342 269.68 86.0686C270.14 85.7886 270.673 85.6486 271.28 85.6486C271.913 85.6486 272.443 85.7786 272.87 86.0386C273.303 86.2986 273.627 86.682 273.84 87.1886L273.05 87.5586C272.903 87.172 272.69 86.882 272.41 86.6886C272.13 86.4953 271.773 86.3986 271.34 86.3986C270.887 86.3986 270.49 86.5053 270.15 86.7186C269.81 86.9253 269.547 87.2286 269.36 87.6286C269.173 88.0286 269.08 88.502 269.08 89.0486C269.08 89.8753 269.277 90.5253 269.67 90.9986C270.07 91.4653 270.613 91.6986 271.3 91.6986C271.747 91.6986 272.133 91.5853 272.46 91.3586C272.787 91.132 273.02 90.7986 273.16 90.3586L273.96 90.6586ZM277.626 85.7486C278.666 85.7486 279.479 86.0353 280.066 86.6086C280.652 87.182 280.946 87.9953 280.946 89.0486C280.946 90.102 280.652 90.9153 280.066 91.4886C279.479 92.062 278.666 92.3486 277.626 92.3486H275.496V85.7486H277.626ZM277.706 91.5986C278.459 91.5986 279.046 91.3753 279.466 90.9286C279.892 90.4753 280.106 89.8486 280.106 89.0486C280.106 88.2486 279.892 87.6253 279.466 87.1786C279.046 86.7253 278.459 86.4986 277.706 86.4986H276.296V91.5986H277.706ZM282.703 85.7486H285.053C285.813 85.7486 286.376 85.9086 286.743 86.2286C287.116 86.542 287.303 86.9886 287.303 87.5686C287.303 87.9153 287.203 88.222 287.003 88.4886C286.809 88.7553 286.539 88.922 286.193 88.9886V88.9986C286.579 89.072 286.889 89.2486 287.123 89.5286C287.356 89.8086 287.473 90.132 287.473 90.4986C287.473 91.0653 287.259 91.5153 286.833 91.8486C286.406 92.182 285.809 92.3486 285.043 92.3486H282.703V85.7486ZM285.063 88.6486C285.536 88.6486 285.886 88.562 286.113 88.3886C286.346 88.2086 286.463 87.9353 286.463 87.5686C286.463 86.8553 285.996 86.4986 285.063 86.4986H283.503V88.6486H285.063ZM285.233 91.5986C285.699 91.5986 286.049 91.5053 286.283 91.3186C286.516 91.1253 286.633 90.852 286.633 90.4986C286.633 90.1453 286.516 89.8753 286.283 89.6886C286.049 89.4953 285.699 89.3986 285.233 89.3986H283.503V91.5986H285.233ZM291.366 85.7486C292.406 85.7486 293.219 86.0353 293.806 86.6086C294.392 87.182 294.686 87.9953 294.686 89.0486C294.686 90.102 294.392 90.9153 293.806 91.4886C293.219 92.062 292.406 92.3486 291.366 92.3486H289.236V85.7486H291.366ZM291.446 91.5986C292.199 91.5986 292.786 91.3753 293.206 90.9286C293.632 90.4753 293.846 89.8486 293.846 89.0486C293.846 88.2486 293.632 87.6253 293.206 87.1786C292.786 86.7253 292.199 86.4986 291.446 86.4986H290.036V91.5986H291.446ZM301.763 90.6586C301.556 91.2186 301.216 91.6586 300.743 91.9786C300.269 92.292 299.723 92.4486 299.103 92.4486C298.483 92.4486 297.943 92.312 297.483 92.0386C297.023 91.7586 296.666 91.3653 296.413 90.8586C296.166 90.3453 296.043 89.742 296.043 89.0486C296.043 88.362 296.166 87.762 296.413 87.2486C296.666 86.7353 297.023 86.342 297.483 86.0686C297.943 85.7886 298.476 85.6486 299.083 85.6486C299.716 85.6486 300.246 85.7786 300.673 86.0386C301.106 86.2986 301.429 86.682 301.643 87.1886L300.853 87.5586C300.706 87.172 300.493 86.882 300.213 86.6886C299.933 86.4953 299.576 86.3986 299.143 86.3986C298.689 86.3986 298.293 86.5053 297.953 86.7186C297.613 86.9253 297.349 87.2286 297.163 87.6286C296.976 88.0286 296.883 88.502 296.883 89.0486C296.883 89.8753 297.079 90.5253 297.473 90.9986C297.873 91.4653 298.416 91.6986 299.103 91.6986C299.549 91.6986 299.936 91.5853 300.263 91.3586C300.589 91.132 300.823 90.7986 300.963 90.3586L301.763 90.6586Z" fill="black"/>
<ellipse cx="131.751" cy="177.1" rx="37.234" ry="36.7566" fill="#8BB3B6"/>
<circle cx="227.7" cy="177.1" r="36.7566" fill="#9A2053"/>
<path d="M117.506 228.233L117.216 229.923H118.406V230.533H117.116L116.806 232.403H116.126L116.436 230.533H114.776L114.466 232.403H113.786L114.096 230.533H112.856V229.923H114.196L114.486 228.233H113.296V227.623H114.586L114.886 225.803H115.566L115.266 227.623H116.926L117.226 225.803H117.906L117.606 227.623H118.846V228.233H117.506ZM116.826 228.233H115.166L114.876 229.923H116.536L116.826 228.233ZM122.133 225.713C122.773 225.713 123.283 225.87 123.663 226.183C124.043 226.49 124.233 226.91 124.233 227.443C124.233 227.783 124.15 228.083 123.983 228.343C123.823 228.597 123.596 228.79 123.303 228.923V228.933C123.69 229.08 123.99 229.297 124.203 229.583C124.423 229.87 124.533 230.217 124.533 230.623C124.533 231.003 124.433 231.337 124.233 231.623C124.04 231.903 123.76 232.12 123.393 232.273C123.033 232.427 122.613 232.503 122.133 232.503C121.653 232.503 121.233 232.427 120.873 232.273C120.513 232.12 120.233 231.903 120.033 231.623C119.833 231.337 119.733 231.003 119.733 230.623C119.733 230.223 119.84 229.877 120.053 229.583C120.273 229.29 120.58 229.073 120.973 228.933V228.923C120.68 228.797 120.45 228.603 120.283 228.343C120.116 228.083 120.033 227.783 120.033 227.443C120.033 226.91 120.223 226.49 120.603 226.183C120.983 225.87 121.493 225.713 122.133 225.713ZM122.133 226.463C121.74 226.463 121.43 226.557 121.203 226.743C120.976 226.93 120.863 227.19 120.863 227.523C120.863 227.843 120.98 228.1 121.213 228.293C121.446 228.48 121.753 228.573 122.133 228.573C122.513 228.573 122.82 228.48 123.053 228.293C123.286 228.1 123.403 227.843 123.403 227.523C123.403 227.19 123.29 226.93 123.063 226.743C122.836 226.557 122.526 226.463 122.133 226.463ZM122.133 231.753C122.62 231.753 123.003 231.647 123.283 231.433C123.563 231.213 123.703 230.917 123.703 230.543C123.703 230.163 123.56 229.867 123.273 229.653C122.993 229.433 122.613 229.323 122.133 229.323C121.66 229.323 121.28 229.433 120.993 229.653C120.706 229.873 120.563 230.17 120.563 230.543C120.563 230.917 120.703 231.213 120.983 231.433C121.27 231.647 121.653 231.753 122.133 231.753ZM126.295 225.803H128.645C129.405 225.803 129.968 225.963 130.335 226.283C130.708 226.597 130.895 227.043 130.895 227.623C130.895 227.97 130.795 228.277 130.595 228.543C130.402 228.81 130.132 228.977 129.785 229.043V229.053C130.172 229.127 130.482 229.303 130.715 229.583C130.948 229.863 131.065 230.187 131.065 230.553C131.065 231.12 130.852 231.57 130.425 231.903C129.998 232.237 129.402 232.403 128.635 232.403H126.295V225.803ZM128.655 228.703C129.128 228.703 129.478 228.617 129.705 228.443C129.938 228.263 130.055 227.99 130.055 227.623C130.055 226.91 129.588 226.553 128.655 226.553H127.095V228.703H128.655ZM128.825 231.653C129.292 231.653 129.642 231.56 129.875 231.373C130.108 231.18 130.225 230.907 130.225 230.553C130.225 230.2 130.108 229.93 129.875 229.743C129.642 229.55 129.292 229.453 128.825 229.453H127.095V231.653H128.825ZM132.828 225.803H135.178C135.938 225.803 136.502 225.963 136.868 226.283C137.242 226.597 137.428 227.043 137.428 227.623C137.428 227.97 137.328 228.277 137.128 228.543C136.935 228.81 136.665 228.977 136.318 229.043V229.053C136.705 229.127 137.015 229.303 137.248 229.583C137.482 229.863 137.598 230.187 137.598 230.553C137.598 231.12 137.385 231.57 136.958 231.903C136.532 232.237 135.935 232.403 135.168 232.403H132.828V225.803ZM135.188 228.703C135.662 228.703 136.012 228.617 136.238 228.443C136.472 228.263 136.588 227.99 136.588 227.623C136.588 226.91 136.122 226.553 135.188 226.553H133.628V228.703H135.188ZM135.358 231.653C135.825 231.653 136.175 231.56 136.408 231.373C136.642 231.18 136.758 230.907 136.758 230.553C136.758 230.2 136.642 229.93 136.408 229.743C136.175 229.55 135.825 229.453 135.358 229.453H133.628V231.653H135.358ZM141.191 225.703C141.625 225.703 141.995 225.783 142.301 225.943C142.615 226.097 142.851 226.303 143.011 226.563C143.171 226.823 143.251 227.11 143.251 227.423C143.251 227.73 143.195 228.007 143.081 228.253C142.968 228.5 142.815 228.697 142.621 228.843C142.435 228.983 142.231 229.053 142.011 229.053V229.073C142.431 229.073 142.768 229.227 143.021 229.533C143.275 229.833 143.401 230.2 143.401 230.633C143.401 230.987 143.305 231.307 143.111 231.593C142.925 231.88 142.655 232.103 142.301 232.263C141.948 232.423 141.541 232.503 141.081 232.503C139.981 232.503 139.221 231.977 138.801 230.923L139.541 230.533C139.675 230.94 139.858 231.247 140.091 231.453C140.331 231.653 140.681 231.753 141.141 231.753C141.588 231.753 141.938 231.643 142.191 231.423C142.445 231.197 142.571 230.907 142.571 230.553C142.571 230.147 142.448 229.863 142.201 229.703C141.961 229.537 141.578 229.453 141.051 229.453H140.791V228.703H141.051C141.965 228.703 142.421 228.33 142.421 227.583C142.421 227.21 142.315 226.93 142.101 226.743C141.895 226.55 141.595 226.453 141.201 226.453C140.815 226.453 140.505 226.543 140.271 226.723C140.045 226.897 139.888 227.143 139.801 227.463L139.051 227.113C139.211 226.68 139.481 226.337 139.861 226.083C140.248 225.83 140.691 225.703 141.191 225.703ZM145.192 225.803H147.542C148.302 225.803 148.865 225.963 149.232 226.283C149.605 226.597 149.792 227.043 149.792 227.623C149.792 227.97 149.692 228.277 149.492 228.543C149.298 228.81 149.028 228.977 148.682 229.043V229.053C149.068 229.127 149.378 229.303 149.612 229.583C149.845 229.863 149.962 230.187 149.962 230.553C149.962 231.12 149.748 231.57 149.322 231.903C148.895 232.237 148.298 232.403 147.532 232.403H145.192V225.803ZM147.552 228.703C148.025 228.703 148.375 228.617 148.602 228.443C148.835 228.263 148.952 227.99 148.952 227.623C148.952 226.91 148.485 226.553 147.552 226.553H145.992V228.703H147.552ZM147.722 231.653C148.188 231.653 148.538 231.56 148.772 231.373C149.005 231.18 149.122 230.907 149.122 230.553C149.122 230.2 149.005 229.93 148.772 229.743C148.538 229.55 148.188 229.453 147.722 229.453H145.992V231.653H147.722ZM153.935 225.703C154.461 225.703 154.891 225.813 155.225 226.033C155.558 226.253 155.828 226.607 156.035 227.093L155.295 227.443C155.081 226.783 154.611 226.453 153.885 226.453C153.538 226.453 153.228 226.577 152.955 226.823C152.688 227.07 152.478 227.407 152.325 227.833C152.178 228.26 152.105 228.733 152.105 229.253V229.433H152.145C152.245 229.04 152.471 228.74 152.825 228.533C153.178 228.327 153.555 228.223 153.955 228.223C154.628 228.223 155.165 228.417 155.565 228.803C155.971 229.19 156.175 229.71 156.175 230.363C156.175 231.017 155.968 231.537 155.555 231.923C155.148 232.31 154.598 232.503 153.905 232.503C153.365 232.503 152.901 232.36 152.515 232.073C152.135 231.78 151.845 231.38 151.645 230.873C151.451 230.36 151.355 229.77 151.355 229.103C151.355 228.383 151.465 227.77 151.685 227.263C151.911 226.75 152.218 226.363 152.605 226.103C152.998 225.837 153.441 225.703 153.935 225.703ZM153.895 228.993C153.468 228.993 153.121 229.12 152.855 229.373C152.588 229.627 152.455 229.953 152.455 230.353C152.455 230.767 152.585 231.1 152.845 231.353C153.111 231.607 153.461 231.733 153.895 231.733C154.348 231.733 154.701 231.613 154.955 231.373C155.208 231.127 155.335 230.787 155.335 230.353C155.335 229.933 155.208 229.603 154.955 229.363C154.701 229.117 154.348 228.993 153.895 228.993Z" fill="black"/>
<path d="M213.933 228.233L213.643 229.923H214.833V230.533H213.543L213.233 232.403H212.553L212.863 230.533H211.203L210.893 232.403H210.213L210.523 230.533H209.283V229.923H210.623L210.913 228.233H209.723V227.623H211.013L211.313 225.803H211.993L211.693 227.623H213.353L213.653 225.803H214.333L214.033 227.623H215.273V228.233H213.933ZM213.253 228.233H211.593L211.303 229.923H212.963L213.253 228.233ZM218.449 225.703C218.989 225.703 219.449 225.847 219.829 226.133C220.216 226.42 220.506 226.82 220.699 227.333C220.899 227.84 220.999 228.43 220.999 229.103C220.999 230.21 220.783 231.053 220.349 231.633C219.916 232.213 219.286 232.503 218.459 232.503C217.866 232.503 217.383 232.38 217.009 232.133C216.643 231.887 216.363 231.513 216.169 231.013L216.959 230.593C217.079 230.987 217.243 231.28 217.449 231.473C217.663 231.66 217.996 231.753 218.449 231.753C219.109 231.753 219.576 231.503 219.849 231.003C220.129 230.503 220.269 229.78 220.269 228.833V228.743H220.229C220.136 229.183 219.913 229.5 219.559 229.693C219.213 229.887 218.823 229.983 218.389 229.983C217.723 229.983 217.186 229.79 216.779 229.403C216.379 229.017 216.179 228.497 216.179 227.843C216.179 227.19 216.383 226.67 216.789 226.283C217.203 225.897 217.756 225.703 218.449 225.703ZM218.459 226.473C218.006 226.473 217.653 226.597 217.399 226.843C217.146 227.083 217.019 227.42 217.019 227.853C217.019 228.273 217.146 228.607 217.399 228.853C217.653 229.093 218.006 229.213 218.459 229.213C218.886 229.213 219.233 229.087 219.499 228.833C219.766 228.58 219.899 228.253 219.899 227.853C219.899 227.44 219.766 227.107 219.499 226.853C219.239 226.6 218.893 226.473 218.459 226.473ZM226.402 230.573H223.412L222.712 232.403H221.872L224.442 225.803H225.392L227.952 232.403H227.102L226.402 230.573ZM226.112 229.823L225.222 227.483L224.912 226.563H224.892L224.602 227.453L223.702 229.823H226.112ZM228.954 231.753C229.867 231.08 230.567 230.527 231.054 230.093C231.541 229.653 231.887 229.257 232.094 228.903C232.307 228.543 232.414 228.167 232.414 227.773C232.414 227.38 232.287 227.063 232.034 226.823C231.781 226.577 231.441 226.453 231.014 226.453C230.567 226.453 230.204 226.6 229.924 226.893C229.651 227.187 229.491 227.583 229.444 228.083L228.744 227.663C228.831 227.07 229.071 226.597 229.464 226.243C229.864 225.883 230.391 225.703 231.044 225.703C231.484 225.703 231.871 225.79 232.204 225.963C232.544 226.137 232.804 226.38 232.984 226.693C233.164 227.007 233.254 227.367 233.254 227.773C233.254 228.2 233.151 228.61 232.944 229.003C232.744 229.397 232.414 229.81 231.954 230.243C231.494 230.677 230.874 231.153 230.094 231.673V231.683C230.534 231.663 230.864 231.653 231.084 231.653H233.394V232.403H228.954V231.753ZM237.154 232.503C236.354 232.503 235.744 232.213 235.324 231.633C234.904 231.053 234.694 230.21 234.694 229.103C234.694 227.997 234.904 227.153 235.324 226.573C235.744 225.993 236.354 225.703 237.154 225.703C237.954 225.703 238.564 225.993 238.984 226.573C239.404 227.153 239.614 227.997 239.614 229.103C239.614 230.21 239.404 231.053 238.984 231.633C238.564 232.213 237.954 232.503 237.154 232.503ZM237.154 231.783C237.681 231.783 238.084 231.557 238.364 231.103C238.644 230.643 238.784 229.977 238.784 229.103C238.784 228.23 238.644 227.567 238.364 227.113C238.084 226.653 237.681 226.423 237.154 226.423C236.627 226.423 236.224 226.653 235.944 227.113C235.664 227.567 235.524 228.23 235.524 229.103C235.524 229.977 235.664 230.643 235.944 231.103C236.224 231.557 236.627 231.783 237.154 231.783ZM243.375 228.173C244.001 228.173 244.505 228.37 244.885 228.763C245.265 229.15 245.455 229.663 245.455 230.303C245.455 230.99 245.255 231.53 244.855 231.923C244.455 232.31 243.901 232.503 243.195 232.503C242.601 232.503 242.118 232.377 241.745 232.123C241.378 231.863 241.095 231.487 240.895 230.993L241.675 230.583C241.788 230.97 241.955 231.263 242.175 231.463C242.401 231.657 242.731 231.753 243.165 231.753C243.618 231.753 243.975 231.63 244.235 231.383C244.495 231.137 244.625 230.797 244.625 230.363C244.625 229.897 244.505 229.54 244.265 229.293C244.025 229.047 243.678 228.923 243.225 228.923C242.538 228.923 242.048 229.137 241.755 229.563H241.045L241.445 225.803H245.155V226.553H242.125L241.865 228.633L241.855 228.723H241.865C242.218 228.357 242.721 228.173 243.375 228.173ZM248.995 225.703C249.428 225.703 249.798 225.783 250.105 225.943C250.418 226.097 250.655 226.303 250.815 226.563C250.975 226.823 251.055 227.11 251.055 227.423C251.055 227.73 250.998 228.007 250.885 228.253C250.772 228.5 250.618 228.697 250.425 228.843C250.238 228.983 250.035 229.053 249.815 229.053V229.073C250.235 229.073 250.572 229.227 250.825 229.533C251.078 229.833 251.205 230.2 251.205 230.633C251.205 230.987 251.108 231.307 250.915 231.593C250.728 231.88 250.458 232.103 250.105 232.263C249.752 232.423 249.345 232.503 248.885 232.503C247.785 232.503 247.025 231.977 246.605 230.923L247.345 230.533C247.478 230.94 247.662 231.247 247.895 231.453C248.135 231.653 248.485 231.753 248.945 231.753C249.392 231.753 249.742 231.643 249.995 231.423C250.248 231.197 250.375 230.907 250.375 230.553C250.375 230.147 250.252 229.863 250.005 229.703C249.765 229.537 249.382 229.453 248.855 229.453H248.595V228.703H248.855C249.768 228.703 250.225 228.33 250.225 227.583C250.225 227.21 250.118 226.93 249.905 226.743C249.698 226.55 249.398 226.453 249.005 226.453C248.618 226.453 248.308 226.543 248.075 226.723C247.848 226.897 247.692 227.143 247.605 227.463L246.855 227.113C247.015 226.68 247.285 226.337 247.665 226.083C248.052 225.83 248.495 225.703 248.995 225.703Z" fill="black"/>
<path d="M17.3219 227.279L17.0319 228.969H18.2219V229.579H16.9319L16.6219 231.449H15.9419L16.2519 229.579H14.5919L14.2819 231.449H13.6019L13.9119 229.579H12.6719V228.969H14.0119L14.3019 227.279H13.1119V226.669H14.4019L14.7019 224.849H15.3819L15.0819 226.669H16.7419L17.0419 224.849H17.7219L17.4219 226.669H18.6619V227.279H17.3219ZM16.6419 227.279H14.9819L14.6919 228.969H16.3519L16.6419 227.279ZM24.4984 229.719H23.3284V231.449H22.5284V229.719H19.3084V229.129L22.3184 224.849H23.3284V229.029H24.4984V229.719ZM20.1584 229.029H22.5284V226.559L22.5684 225.499H22.5484C22.3817 225.839 22.1617 226.206 21.8884 226.599L20.1584 229.029ZM28.0917 227.219C28.7184 227.219 29.2217 227.416 29.6017 227.809C29.9817 228.196 30.1717 228.709 30.1717 229.349C30.1717 230.036 29.9717 230.576 29.5717 230.969C29.1717 231.356 28.6184 231.549 27.9117 231.549C27.3184 231.549 26.835 231.423 26.4617 231.169C26.095 230.909 25.8117 230.533 25.6117 230.039L26.3917 229.629C26.505 230.016 26.6717 230.309 26.8917 230.509C27.1184 230.703 27.4484 230.799 27.8817 230.799C28.335 230.799 28.6917 230.676 28.9517 230.429C29.2117 230.183 29.3417 229.843 29.3417 229.409C29.3417 228.943 29.2217 228.586 28.9817 228.339C28.7417 228.093 28.395 227.969 27.9417 227.969C27.255 227.969 26.765 228.183 26.4717 228.609H25.7617L26.1617 224.849H29.8717V225.599H26.8417L26.5817 227.679L26.5717 227.769H26.5817C26.935 227.403 27.4384 227.219 28.0917 227.219ZM36.432 229.719H35.262V231.449H34.462V229.719H31.242V229.129L34.252 224.849H35.262V229.029H36.432V229.719ZM32.092 229.029H34.462V226.559L34.502 225.499H34.482C34.3153 225.839 34.0953 226.206 33.822 226.599L32.092 229.029ZM41.7053 229.619H38.7153L38.0153 231.449H37.1753L39.7453 224.849H40.6953L43.2553 231.449H42.4053L41.7053 229.619ZM41.4153 228.869L40.5253 226.529L40.2153 225.609H40.1953L39.9053 226.499L39.0053 228.869H41.4153ZM46.7268 224.849C47.7668 224.849 48.5802 225.136 49.1668 225.709C49.7535 226.283 50.0468 227.096 50.0468 228.149C50.0468 229.203 49.7535 230.016 49.1668 230.589C48.5802 231.163 47.7668 231.449 46.7268 231.449H44.5968V224.849H46.7268ZM46.8068 230.699C47.5602 230.699 48.1468 230.476 48.5668 230.029C48.9935 229.576 49.2068 228.949 49.2068 228.149C49.2068 227.349 48.9935 226.726 48.5668 226.279C48.1468 225.826 47.5602 225.599 46.8068 225.599H45.3968V230.699H46.8068ZM56.5839 230.699V231.449H51.8039V224.849H56.4339V225.599H52.6039V227.729H55.5839V228.479H52.6039V230.699H56.5839Z" fill="black"/>
<ellipse cx="82.1058" cy="36.7566" rx="37.234" ry="36.7566" fill="#1B1F3B"/>
<mask id="mask0" mask-type="alpha" maskUnits="userSpaceOnUse" x="44" y="0" width="76" height="76">
<ellipse rx="37.234" ry="37.4694" transform="matrix(1 0 0 -1 82.1058 37.8294)" fill="#494C62"/>
</mask>
<g mask="url(#mask0)">
<rect width="83.6131" height="42.8222" transform="matrix(1 0 0 -1 40.9529 80.6514)" fill="#494C62"/>
</g>
<circle cx="322.777" cy="177.661" r="37.3168" fill="#B3AEAB"/>
<path d="M306.556 227.738L306.266 229.428H307.456V230.038H306.166L305.856 231.908H305.176L305.486 230.038H303.826L303.516 231.908H302.836L303.146 230.038H301.906V229.428H303.246L303.536 227.738H302.346V227.128H303.636L303.936 225.308H304.616L304.316 227.128H305.976L306.276 225.308H306.956L306.656 227.128H307.896V227.738H306.556ZM305.876 227.738H304.216L303.926 229.428H305.586L305.876 227.738ZM309.183 225.308H311.533C312.293 225.308 312.856 225.468 313.223 225.788C313.596 226.102 313.783 226.548 313.783 227.128C313.783 227.475 313.683 227.782 313.483 228.048C313.289 228.315 313.019 228.482 312.673 228.548V228.558C313.059 228.632 313.369 228.808 313.603 229.088C313.836 229.368 313.953 229.692 313.953 230.058C313.953 230.625 313.739 231.075 313.313 231.408C312.886 231.742 312.289 231.908 311.523 231.908H309.183V225.308ZM311.543 228.208C312.016 228.208 312.366 228.122 312.593 227.948C312.826 227.768 312.943 227.495 312.943 227.128C312.943 226.415 312.476 226.058 311.543 226.058H309.983V228.208H311.543ZM311.713 231.158C312.179 231.158 312.529 231.065 312.763 230.878C312.996 230.685 313.113 230.412 313.113 230.058C313.113 229.705 312.996 229.435 312.763 229.248C312.529 229.055 312.179 228.958 311.713 228.958H309.983V231.158H311.713ZM317.546 225.208C317.979 225.208 318.349 225.288 318.656 225.448C318.969 225.602 319.206 225.808 319.366 226.068C319.526 226.328 319.606 226.615 319.606 226.928C319.606 227.235 319.549 227.512 319.436 227.758C319.323 228.005 319.169 228.202 318.976 228.348C318.789 228.488 318.586 228.558 318.366 228.558V228.578C318.786 228.578 319.123 228.732 319.376 229.038C319.629 229.338 319.756 229.705 319.756 230.138C319.756 230.492 319.659 230.812 319.466 231.098C319.279 231.385 319.009 231.608 318.656 231.768C318.303 231.928 317.896 232.008 317.436 232.008C316.336 232.008 315.576 231.482 315.156 230.428L315.896 230.038C316.029 230.445 316.213 230.752 316.446 230.958C316.686 231.158 317.036 231.258 317.496 231.258C317.943 231.258 318.293 231.148 318.546 230.928C318.799 230.702 318.926 230.412 318.926 230.058C318.926 229.652 318.803 229.368 318.556 229.208C318.316 229.042 317.933 228.958 317.406 228.958H317.146V228.208H317.406C318.319 228.208 318.776 227.835 318.776 227.088C318.776 226.715 318.669 226.435 318.456 226.248C318.249 226.055 317.949 225.958 317.556 225.958C317.169 225.958 316.859 226.048 316.626 226.228C316.399 226.402 316.243 226.648 316.156 226.968L315.406 226.618C315.566 226.185 315.836 225.842 316.216 225.588C316.603 225.335 317.046 225.208 317.546 225.208ZM325.256 230.078H322.266L321.566 231.908H320.726L323.296 225.308H324.246L326.806 231.908H325.956L325.256 230.078ZM324.966 229.328L324.076 226.988L323.766 226.068H323.746L323.456 226.958L322.556 229.328H324.966ZM332.928 231.158V231.908H328.148V225.308H332.778V226.058H328.948V228.188H331.928V228.938H328.948V231.158H332.928ZM338.235 230.078H335.245L334.545 231.908H333.705L336.275 225.308H337.225L339.785 231.908H338.935L338.235 230.078ZM337.945 229.328L337.055 226.988L336.745 226.068H336.725L336.435 226.958L335.535 229.328H337.945ZM341.126 225.308H343.476C344.236 225.308 344.799 225.468 345.166 225.788C345.539 226.102 345.726 226.548 345.726 227.128C345.726 227.475 345.626 227.782 345.426 228.048C345.233 228.315 344.963 228.482 344.616 228.548V228.558C345.003 228.632 345.313 228.808 345.546 229.088C345.779 229.368 345.896 229.692 345.896 230.058C345.896 230.625 345.683 231.075 345.256 231.408C344.829 231.742 344.233 231.908 343.466 231.908H341.126V225.308ZM343.486 228.208C343.959 228.208 344.309 228.122 344.536 227.948C344.769 227.768 344.886 227.495 344.886 227.128C344.886 226.415 344.419 226.058 343.486 226.058H341.926V228.208H343.486ZM343.656 231.158C344.123 231.158 344.473 231.065 344.706 230.878C344.939 230.685 345.056 230.412 345.056 230.058C345.056 229.705 344.939 229.435 344.706 229.248C344.473 229.055 344.123 228.958 343.656 228.958H341.926V231.158H343.656Z" fill="black"/>
<mask id="mask1" mask-type="alpha" maskUnits="userSpaceOnUse" x="285" y="141" width="76" height="75">
<ellipse rx="37.4694" ry="36.812" transform="matrix(1 0 0 -1 322.93 178.47)" fill="#E5E3DE"/>
</mask>
<g mask="url(#mask1)">
<rect width="84.1418" height="42.0709" transform="matrix(1 0 0 -1 281.516 220.541)" fill="#E5E3DE"/>
</g>
<circle cx="36.8172" cy="177.099" r="36.7566" fill="#2F4E9D"/>
<mask id="mask2" mask-type="alpha" maskUnits="userSpaceOnUse" x="0" y="140" width="74" height="75">
<circle r="36.812" transform="matrix(1 0 0 -1 36.812 177.515)" fill="#97A7CE"/>
</mask>
<g mask="url(#mask2)">
<rect width="82.6656" height="42.0709" transform="matrix(1 0 0 -1 -3.87476 219.587)" fill="#97A7CE"/>
</g>
<mask id="mask3" mask-type="alpha" maskUnits="userSpaceOnUse" x="0" y="177" width="74" height="38">
<mask id="mask4" maskUnits="userSpaceOnUse" x="0" y="140" width="74" height="75">
<circle r="36.812" transform="matrix(1 0 0 -1 36.812 177.515)" fill="#97A7CE"/>
</mask>
<g mask="url(#mask4)">
<rect width="82.6656" height="42.0709" transform="matrix(1 0 0 -1 -3.87476 219.587)" fill="#97A7CE"/>
</g>
</mask>
<g mask="url(#mask3)">
<rect x="36.812" y="173.571" width="36.812" height="40.7562" fill="#DFE0E7"/>
</g>
</svg>
