<svg width="315" height="160" viewBox="0 0 315 160" fill="none" xmlns="http://www.w3.org/2000/svg">
<circle cx="80" cy="80" r="80" fill="#9A5B5B"/>
<path d="M80 160C124.183 160 160 124.183 160 80H0C0 124.183 35.8172 160 80 160Z" fill="#F6CECE"/>
<path d="M0 80C0 124.183 35.8172 160 80 160V80H0Z" fill="#C28080"/>
<ellipse cx="80.1769" cy="79.5828" rx="60.1769" ry="58.5828" fill="#F6FEFF"/>
<path d="M204.257 82.74V84H198.521V82.86L201.425 79.728C201.769 79.352 202.021 79.008 202.181 78.696C202.341 78.384 202.421 78.076 202.421 77.772C202.421 77.38 202.305 77.084 202.073 76.884C201.849 76.684 201.525 76.584 201.101 76.584C200.349 76.584 199.577 76.88 198.785 77.472L198.269 76.344C198.605 76.04 199.037 75.8 199.565 75.624C200.093 75.44 200.625 75.348 201.161 75.348C202.017 75.348 202.693 75.56 203.189 75.984C203.693 76.4 203.945 76.964 203.945 77.676C203.945 78.164 203.837 78.624 203.621 79.056C203.413 79.488 203.061 79.972 202.565 80.508L200.465 82.74H204.257ZM208.932 78.54C209.468 78.54 209.94 78.656 210.348 78.888C210.756 79.112 211.072 79.432 211.296 79.848C211.52 80.256 211.632 80.728 211.632 81.264C211.632 81.824 211.504 82.32 211.248 82.752C210.992 83.176 210.624 83.508 210.144 83.748C209.664 83.98 209.108 84.096 208.476 84.096C207.94 84.096 207.412 84.008 206.892 83.832C206.372 83.648 205.944 83.404 205.608 83.1L206.124 81.972C206.9 82.564 207.692 82.86 208.5 82.86C209.036 82.86 209.444 82.728 209.724 82.464C210.012 82.192 210.156 81.808 210.156 81.312C210.156 80.84 210.008 80.464 209.712 80.184C209.424 79.896 209.036 79.752 208.548 79.752C208.212 79.752 207.896 79.816 207.6 79.944C207.304 80.064 207.044 80.244 206.82 80.484H205.884V75.456H211.236V76.656H207.396V78.984C207.828 78.688 208.34 78.54 208.932 78.54ZM214.748 80.556C214.076 80.556 213.548 80.336 213.164 79.896C212.788 79.448 212.6 78.796 212.6 77.94C212.6 77.092 212.788 76.448 213.164 76.008C213.548 75.56 214.076 75.336 214.748 75.336C215.428 75.336 215.96 75.56 216.344 76.008C216.728 76.448 216.92 77.092 216.92 77.94C216.92 78.796 216.728 79.448 216.344 79.896C215.96 80.336 215.428 80.556 214.748 80.556ZM214.664 84L219.608 75.456H220.94L215.984 84H214.664ZM214.748 79.584C215.06 79.584 215.288 79.456 215.432 79.2C215.576 78.944 215.648 78.524 215.648 77.94C215.648 77.372 215.572 76.96 215.42 76.704C215.276 76.44 215.052 76.308 214.748 76.308C214.452 76.308 214.232 76.44 214.088 76.704C213.944 76.96 213.872 77.372 213.872 77.94C213.872 78.516 213.944 78.936 214.088 79.2C214.232 79.456 214.452 79.584 214.748 79.584ZM220.844 84.084C220.164 84.084 219.632 83.864 219.248 83.424C218.872 82.976 218.684 82.32 218.684 81.456C218.684 80.608 218.872 79.964 219.248 79.524C219.632 79.084 220.164 78.864 220.844 78.864C221.524 78.864 222.052 79.084 222.428 79.524C222.812 79.964 223.004 80.612 223.004 81.468C223.004 82.324 222.812 82.976 222.428 83.424C222.052 83.864 221.524 84.084 220.844 84.084ZM220.844 83.112C221.148 83.112 221.372 82.984 221.516 82.728C221.66 82.464 221.732 82.044 221.732 81.468C221.732 80.9 221.656 80.488 221.504 80.232C221.36 79.968 221.14 79.836 220.844 79.836C220.54 79.836 220.316 79.968 220.172 80.232C220.028 80.488 219.956 80.9 219.956 81.468C219.956 82.044 220.028 82.464 220.172 82.728C220.316 82.984 220.54 83.112 220.844 83.112ZM231.542 84.108C230.718 84.108 229.998 83.932 229.382 83.58C228.774 83.22 228.302 82.712 227.966 82.056C227.638 81.392 227.474 80.612 227.474 79.716C227.474 78.828 227.638 78.056 227.966 77.4C228.294 76.736 228.762 76.228 229.37 75.876C229.986 75.524 230.71 75.348 231.542 75.348C232.374 75.348 233.094 75.524 233.702 75.876C234.318 76.228 234.786 76.736 235.106 77.4C235.434 78.056 235.598 78.828 235.598 79.716C235.598 80.612 235.434 81.392 235.106 82.056C234.778 82.712 234.31 83.22 233.702 83.58C233.094 83.932 232.374 84.108 231.542 84.108ZM231.542 82.872C232.334 82.872 232.95 82.6 233.39 82.056C233.83 81.512 234.05 80.732 234.05 79.716C234.05 78.708 233.83 77.936 233.39 77.4C232.95 76.856 232.334 76.584 231.542 76.584C230.75 76.584 230.134 76.852 229.694 77.388C229.254 77.924 229.034 78.7 229.034 79.716C229.034 80.732 229.254 81.512 229.694 82.056C230.134 82.6 230.75 82.872 231.542 82.872ZM239.823 84.096C239.191 84.096 238.643 83.968 238.179 83.712C237.715 83.456 237.359 83.096 237.111 82.632C236.863 82.16 236.739 81.608 236.739 80.976C236.739 80.344 236.867 79.788 237.123 79.308C237.387 78.828 237.755 78.456 238.227 78.192C238.707 77.92 239.259 77.784 239.883 77.784C240.315 77.784 240.731 77.852 241.131 77.988C241.539 78.124 241.863 78.312 242.103 78.552L241.683 79.608C241.427 79.4 241.155 79.244 240.867 79.14C240.579 79.028 240.295 78.972 240.015 78.972C239.471 78.972 239.047 79.144 238.743 79.488C238.439 79.824 238.287 80.312 238.287 80.952C238.287 81.592 238.435 82.08 238.731 82.416C239.035 82.752 239.463 82.92 240.015 82.92C240.295 82.92 240.579 82.864 240.867 82.752C241.155 82.64 241.427 82.48 241.683 82.272L242.103 83.328C241.847 83.568 241.515 83.756 241.107 83.892C240.699 84.028 240.271 84.096 239.823 84.096ZM245.858 84.096C245.226 84.096 244.678 83.968 244.214 83.712C243.75 83.456 243.394 83.096 243.146 82.632C242.898 82.16 242.774 81.608 242.774 80.976C242.774 80.344 242.902 79.788 243.158 79.308C243.422 78.828 243.79 78.456 244.262 78.192C244.742 77.92 245.294 77.784 245.918 77.784C246.35 77.784 246.766 77.852 247.166 77.988C247.574 78.124 247.898 78.312 248.138 78.552L247.718 79.608C247.462 79.4 247.19 79.244 246.902 79.14C246.614 79.028 246.33 78.972 246.05 78.972C245.506 78.972 245.082 79.144 244.778 79.488C244.474 79.824 244.322 80.312 244.322 80.952C244.322 81.592 244.47 82.08 244.766 82.416C245.07 82.752 245.498 82.92 246.05 82.92C246.33 82.92 246.614 82.864 246.902 82.752C247.19 82.64 247.462 82.48 247.718 82.272L248.138 83.328C247.882 83.568 247.55 83.756 247.142 83.892C246.734 84.028 246.306 84.096 245.858 84.096ZM254.942 77.94V84H253.466V83.028C253.282 83.364 253.018 83.628 252.674 83.82C252.33 84.004 251.938 84.096 251.498 84.096C250.97 84.096 250.502 83.968 250.094 83.712C249.686 83.456 249.37 83.092 249.146 82.62C248.922 82.148 248.81 81.6 248.81 80.976C248.81 80.352 248.922 79.8 249.146 79.32C249.378 78.832 249.698 78.456 250.106 78.192C250.514 77.92 250.978 77.784 251.498 77.784C251.938 77.784 252.33 77.88 252.674 78.072C253.018 78.256 253.282 78.516 253.466 78.852V77.94H254.942ZM251.906 82.92C252.402 82.92 252.786 82.748 253.058 82.404C253.33 82.06 253.466 81.576 253.466 80.952C253.466 80.312 253.33 79.82 253.058 79.476C252.786 79.132 252.398 78.96 251.894 78.96C251.398 78.96 251.01 79.14 250.73 79.5C250.458 79.852 250.322 80.344 250.322 80.976C250.322 81.6 250.458 82.08 250.73 82.416C251.01 82.752 251.402 82.92 251.906 82.92ZM258.795 84.096C257.699 84.096 256.827 83.84 256.179 83.328L256.599 82.272C257.247 82.752 257.987 82.992 258.819 82.992C259.179 82.992 259.455 82.932 259.647 82.812C259.847 82.692 259.947 82.524 259.947 82.308C259.947 82.124 259.879 81.98 259.743 81.876C259.607 81.764 259.375 81.668 259.047 81.588L258.039 81.36C256.935 81.12 256.383 80.556 256.383 79.668C256.383 79.3 256.487 78.976 256.695 78.696C256.903 78.408 257.195 78.184 257.571 78.024C257.947 77.864 258.383 77.784 258.879 77.784C259.311 77.784 259.727 77.852 260.127 77.988C260.527 78.116 260.879 78.304 261.183 78.552L260.739 79.572C260.131 79.124 259.507 78.9 258.867 78.9C258.523 78.9 258.255 78.964 258.063 79.092C257.871 79.22 257.775 79.396 257.775 79.62C257.775 79.796 257.831 79.936 257.943 80.04C258.063 80.144 258.263 80.232 258.543 80.304L259.575 80.532C260.175 80.668 260.611 80.88 260.883 81.168C261.163 81.448 261.303 81.816 261.303 82.272C261.303 82.832 261.079 83.276 260.631 83.604C260.183 83.932 259.571 84.096 258.795 84.096ZM262.587 77.94H264.075V84H262.587V77.94ZM264.159 75.192V76.668H262.491V75.192H264.159ZM268.464 84.096C267.848 84.096 267.304 83.968 266.832 83.712C266.368 83.456 266.008 83.092 265.752 82.62C265.504 82.14 265.38 81.58 265.38 80.94C265.38 80.3 265.504 79.744 265.752 79.272C266.008 78.792 266.368 78.424 266.832 78.168C267.304 77.912 267.848 77.784 268.464 77.784C269.072 77.784 269.608 77.912 270.072 78.168C270.536 78.424 270.892 78.792 271.14 79.272C271.396 79.744 271.524 80.3 271.524 80.94C271.524 81.58 271.396 82.14 271.14 82.62C270.892 83.092 270.536 83.456 270.072 83.712C269.608 83.968 269.072 84.096 268.464 84.096ZM268.452 82.92C268.964 82.92 269.352 82.756 269.616 82.428C269.888 82.092 270.024 81.596 270.024 80.94C270.024 80.292 269.888 79.8 269.616 79.464C269.344 79.12 268.96 78.948 268.464 78.948C267.96 78.948 267.572 79.12 267.3 79.464C267.028 79.8 266.892 80.292 266.892 80.94C266.892 81.596 267.024 82.092 267.288 82.428C267.56 82.756 267.948 82.92 268.452 82.92ZM276.285 77.784C277.733 77.784 278.457 78.616 278.457 80.28V84H276.957V80.352C276.957 79.872 276.865 79.524 276.681 79.308C276.497 79.084 276.213 78.972 275.829 78.972C275.373 78.972 275.005 79.12 274.725 79.416C274.445 79.704 274.305 80.088 274.305 80.568V84H272.817V79.656C272.817 79.016 272.785 78.444 272.721 77.94H274.125L274.233 78.936C274.441 78.568 274.721 78.284 275.073 78.084C275.433 77.884 275.837 77.784 276.285 77.784ZM285.844 77.94V84H284.368V83.028C284.184 83.364 283.92 83.628 283.576 83.82C283.232 84.004 282.84 84.096 282.4 84.096C281.872 84.096 281.404 83.968 280.996 83.712C280.588 83.456 280.272 83.092 280.048 82.62C279.824 82.148 279.712 81.6 279.712 80.976C279.712 80.352 279.824 79.8 280.048 79.32C280.28 78.832 280.6 78.456 281.008 78.192C281.416 77.92 281.88 77.784 282.4 77.784C282.84 77.784 283.232 77.88 283.576 78.072C283.92 78.256 284.184 78.516 284.368 78.852V77.94H285.844ZM282.808 82.92C283.304 82.92 283.688 82.748 283.96 82.404C284.232 82.06 284.368 81.576 284.368 80.952C284.368 80.312 284.232 79.82 283.96 79.476C283.688 79.132 283.3 78.96 282.796 78.96C282.3 78.96 281.912 79.14 281.632 79.5C281.36 79.852 281.224 80.344 281.224 80.976C281.224 81.6 281.36 82.08 281.632 82.416C281.912 82.752 282.304 82.92 282.808 82.92ZM287.478 75.168H288.966V84H287.478V75.168ZM290.607 75.168H292.095V84H290.607V75.168ZM299.471 77.94L296.651 84.408C296.331 85.16 295.923 85.708 295.427 86.052C294.931 86.396 294.319 86.624 293.591 86.736L293.255 85.584C293.823 85.456 294.247 85.292 294.527 85.092C294.815 84.9 295.047 84.612 295.223 84.228L295.415 83.784L292.895 77.94H294.467L296.207 82.296L297.983 77.94H299.471Z" fill="black"/>
<path d="M202.056 48.54C202.592 48.54 203.064 48.656 203.472 48.888C203.88 49.112 204.196 49.432 204.42 49.848C204.644 50.256 204.756 50.728 204.756 51.264C204.756 51.824 204.628 52.32 204.372 52.752C204.116 53.176 203.748 53.508 203.268 53.748C202.788 53.98 202.232 54.096 201.6 54.096C201.064 54.096 200.536 54.008 200.016 53.832C199.496 53.648 199.068 53.404 198.732 53.1L199.248 51.972C200.024 52.564 200.816 52.86 201.624 52.86C202.16 52.86 202.568 52.728 202.848 52.464C203.136 52.192 203.28 51.808 203.28 51.312C203.28 50.84 203.132 50.464 202.836 50.184C202.548 49.896 202.16 49.752 201.672 49.752C201.336 49.752 201.02 49.816 200.724 49.944C200.428 50.064 200.168 50.244 199.944 50.484H199.008V45.456H204.36V46.656H200.52V48.984C200.952 48.688 201.464 48.54 202.056 48.54ZM208.795 54.108C207.779 54.108 207.003 53.736 206.467 52.992C205.939 52.24 205.675 51.148 205.675 49.716C205.675 48.308 205.939 47.232 206.467 46.488C207.003 45.744 207.779 45.372 208.795 45.372C209.811 45.372 210.583 45.744 211.111 46.488C211.647 47.224 211.915 48.3 211.915 49.716C211.915 51.14 211.647 52.228 211.111 52.98C210.583 53.732 209.811 54.108 208.795 54.108ZM208.795 52.896C209.347 52.896 209.747 52.644 209.995 52.14C210.251 51.628 210.379 50.82 210.379 49.716C210.379 48.628 210.251 47.836 209.995 47.34C209.747 46.836 209.347 46.584 208.795 46.584C208.243 46.584 207.839 46.836 207.583 47.34C207.335 47.836 207.211 48.628 207.211 49.716C207.211 50.82 207.335 51.628 207.583 52.14C207.839 52.644 208.243 52.896 208.795 52.896ZM215.067 50.556C214.395 50.556 213.867 50.336 213.483 49.896C213.107 49.448 212.919 48.796 212.919 47.94C212.919 47.092 213.107 46.448 213.483 46.008C213.867 45.56 214.395 45.336 215.067 45.336C215.747 45.336 216.279 45.56 216.663 46.008C217.047 46.448 217.239 47.092 217.239 47.94C217.239 48.796 217.047 49.448 216.663 49.896C216.279 50.336 215.747 50.556 215.067 50.556ZM214.983 54L219.927 45.456H221.259L216.303 54H214.983ZM215.067 49.584C215.379 49.584 215.607 49.456 215.751 49.2C215.895 48.944 215.967 48.524 215.967 47.94C215.967 47.372 215.891 46.96 215.739 46.704C215.595 46.44 215.371 46.308 215.067 46.308C214.771 46.308 214.551 46.44 214.407 46.704C214.263 46.96 214.191 47.372 214.191 47.94C214.191 48.516 214.263 48.936 214.407 49.2C214.551 49.456 214.771 49.584 215.067 49.584ZM221.163 54.084C220.483 54.084 219.951 53.864 219.567 53.424C219.191 52.976 219.003 52.32 219.003 51.456C219.003 50.608 219.191 49.964 219.567 49.524C219.951 49.084 220.483 48.864 221.163 48.864C221.843 48.864 222.371 49.084 222.747 49.524C223.131 49.964 223.323 50.612 223.323 51.468C223.323 52.324 223.131 52.976 222.747 53.424C222.371 53.864 221.843 54.084 221.163 54.084ZM221.163 53.112C221.467 53.112 221.691 52.984 221.835 52.728C221.979 52.464 222.051 52.044 222.051 51.468C222.051 50.9 221.975 50.488 221.823 50.232C221.679 49.968 221.459 49.836 221.163 49.836C220.859 49.836 220.635 49.968 220.491 50.232C220.347 50.488 220.275 50.9 220.275 51.468C220.275 52.044 220.347 52.464 220.491 52.728C220.635 52.984 220.859 53.112 221.163 53.112ZM231.693 50.616V54H230.145V50.616L226.677 45.456H228.441L230.913 49.32L233.397 45.456H235.161L231.693 50.616ZM239.862 51.048H235.686C235.718 51.696 235.878 52.176 236.166 52.488C236.462 52.792 236.898 52.944 237.474 52.944C238.138 52.944 238.754 52.728 239.322 52.296L239.754 53.328C239.466 53.56 239.11 53.748 238.686 53.892C238.27 54.028 237.846 54.096 237.414 54.096C236.422 54.096 235.642 53.816 235.074 53.256C234.506 52.696 234.222 51.928 234.222 50.952C234.222 50.336 234.346 49.788 234.594 49.308C234.842 48.828 235.19 48.456 235.638 48.192C236.086 47.92 236.594 47.784 237.162 47.784C237.994 47.784 238.65 48.056 239.13 48.6C239.618 49.136 239.862 49.876 239.862 50.82V51.048ZM237.198 48.864C236.798 48.864 236.47 48.984 236.214 49.224C235.966 49.456 235.806 49.796 235.734 50.244H238.554C238.506 49.788 238.366 49.444 238.134 49.212C237.91 48.98 237.598 48.864 237.198 48.864ZM243.352 54.096C242.256 54.096 241.384 53.84 240.736 53.328L241.156 52.272C241.804 52.752 242.544 52.992 243.376 52.992C243.736 52.992 244.012 52.932 244.204 52.812C244.404 52.692 244.504 52.524 244.504 52.308C244.504 52.124 244.436 51.98 244.3 51.876C244.164 51.764 243.932 51.668 243.604 51.588L242.596 51.36C241.492 51.12 240.94 50.556 240.94 49.668C240.94 49.3 241.044 48.976 241.252 48.696C241.46 48.408 241.752 48.184 242.128 48.024C242.504 47.864 242.94 47.784 243.436 47.784C243.868 47.784 244.284 47.852 244.684 47.988C245.084 48.116 245.436 48.304 245.74 48.552L245.296 49.572C244.688 49.124 244.064 48.9 243.424 48.9C243.08 48.9 242.812 48.964 242.62 49.092C242.428 49.22 242.332 49.396 242.332 49.62C242.332 49.796 242.388 49.936 242.5 50.04C242.62 50.144 242.82 50.232 243.1 50.304L244.132 50.532C244.732 50.668 245.168 50.88 245.44 51.168C245.72 51.448 245.86 51.816 245.86 52.272C245.86 52.832 245.636 53.276 245.188 53.604C244.74 53.932 244.128 54.096 243.352 54.096Z" fill="black"/>
<path d="M206.588 114.74V116H200.852V114.86L203.756 111.728C204.1 111.352 204.352 111.008 204.512 110.696C204.672 110.384 204.752 110.076 204.752 109.772C204.752 109.38 204.636 109.084 204.404 108.884C204.18 108.684 203.856 108.584 203.432 108.584C202.68 108.584 201.908 108.88 201.116 109.472L200.6 108.344C200.936 108.04 201.368 107.8 201.896 107.624C202.424 107.44 202.956 107.348 203.492 107.348C204.348 107.348 205.024 107.56 205.52 107.984C206.024 108.4 206.276 108.964 206.276 109.676C206.276 110.164 206.168 110.624 205.952 111.056C205.744 111.488 205.392 111.972 204.896 112.508L202.796 114.74H206.588ZM211.263 110.54C211.799 110.54 212.271 110.656 212.679 110.888C213.087 111.112 213.403 111.432 213.627 111.848C213.851 112.256 213.963 112.728 213.963 113.264C213.963 113.824 213.835 114.32 213.579 114.752C213.323 115.176 212.955 115.508 212.475 115.748C211.995 115.98 211.439 116.096 210.807 116.096C210.271 116.096 209.743 116.008 209.223 115.832C208.703 115.648 208.275 115.404 207.939 115.1L208.455 113.972C209.231 114.564 210.023 114.86 210.831 114.86C211.367 114.86 211.775 114.728 212.055 114.464C212.343 114.192 212.487 113.808 212.487 113.312C212.487 112.84 212.339 112.464 212.043 112.184C211.755 111.896 211.367 111.752 210.879 111.752C210.543 111.752 210.227 111.816 209.931 111.944C209.635 112.064 209.375 112.244 209.151 112.484H208.215V107.456H213.567V108.656H209.727V110.984C210.159 110.688 210.671 110.54 211.263 110.54ZM217.078 112.556C216.406 112.556 215.878 112.336 215.494 111.896C215.118 111.448 214.93 110.796 214.93 109.94C214.93 109.092 215.118 108.448 215.494 108.008C215.878 107.56 216.406 107.336 217.078 107.336C217.758 107.336 218.29 107.56 218.674 108.008C219.058 108.448 219.25 109.092 219.25 109.94C219.25 110.796 219.058 111.448 218.674 111.896C218.29 112.336 217.758 112.556 217.078 112.556ZM216.994 116L221.938 107.456H223.27L218.314 116H216.994ZM217.078 111.584C217.39 111.584 217.618 111.456 217.762 111.2C217.906 110.944 217.978 110.524 217.978 109.94C217.978 109.372 217.902 108.96 217.75 108.704C217.606 108.44 217.382 108.308 217.078 108.308C216.782 108.308 216.562 108.44 216.418 108.704C216.274 108.96 216.202 109.372 216.202 109.94C216.202 110.516 216.274 110.936 216.418 111.2C216.562 111.456 216.782 111.584 217.078 111.584ZM223.174 116.084C222.494 116.084 221.962 115.864 221.578 115.424C221.202 114.976 221.014 114.32 221.014 113.456C221.014 112.608 221.202 111.964 221.578 111.524C221.962 111.084 222.494 110.864 223.174 110.864C223.854 110.864 224.382 111.084 224.758 111.524C225.142 111.964 225.334 112.612 225.334 113.468C225.334 114.324 225.142 114.976 224.758 115.424C224.382 115.864 223.854 116.084 223.174 116.084ZM223.174 115.112C223.478 115.112 223.702 114.984 223.846 114.728C223.99 114.464 224.062 114.044 224.062 113.468C224.062 112.9 223.986 112.488 223.834 112.232C223.69 111.968 223.47 111.836 223.174 111.836C222.87 111.836 222.646 111.968 222.502 112.232C222.358 112.488 222.286 112.9 222.286 113.468C222.286 114.044 222.358 114.464 222.502 114.728C222.646 114.984 222.87 115.112 223.174 115.112ZM237.28 107.456V116H236.128L231.52 110.012V116H230.08V107.456H231.232L235.828 113.432V107.456H237.28ZM241.779 116.096C241.163 116.096 240.619 115.968 240.147 115.712C239.683 115.456 239.323 115.092 239.067 114.62C238.819 114.14 238.695 113.58 238.695 112.94C238.695 112.3 238.819 111.744 239.067 111.272C239.323 110.792 239.683 110.424 240.147 110.168C240.619 109.912 241.163 109.784 241.779 109.784C242.387 109.784 242.923 109.912 243.387 110.168C243.851 110.424 244.207 110.792 244.455 111.272C244.711 111.744 244.839 112.3 244.839 112.94C244.839 113.58 244.711 114.14 244.455 114.62C244.207 115.092 243.851 115.456 243.387 115.712C242.923 115.968 242.387 116.096 241.779 116.096ZM241.767 114.92C242.279 114.92 242.667 114.756 242.931 114.428C243.203 114.092 243.339 113.596 243.339 112.94C243.339 112.292 243.203 111.8 242.931 111.464C242.659 111.12 242.275 110.948 241.779 110.948C241.275 110.948 240.887 111.12 240.615 111.464C240.343 111.8 240.207 112.292 240.207 112.94C240.207 113.596 240.339 114.092 240.603 114.428C240.875 114.756 241.263 114.92 241.767 114.92Z" fill="black"/>
<rect x="177" y="42" width="17.9616" height="14.7734" fill="#9A5B5B"/>
<rect x="177" y="72.3867" width="17.9616" height="14.7734" fill="#C28080"/>
<rect width="17.9616" height="16.1654" transform="matrix(1 0 0 -1 177 119.691)" fill="#F6CECE"/>
</svg>
