<svg width="344" height="300" viewBox="0 0 344 300" fill="none" xmlns="http://www.w3.org/2000/svg">
<path d="M1.56641 0.976562H6.11914V13.5449H11.5156V0.976562H16.0684V31H11.5156V17.1309H6.11914V31H1.56641V0.976562ZM21.3594 27.5723H24.8398V7.09375L21.1133 10.3809L19.1445 8.07812L25.9648 0.976562H29.3574L29.3398 1.01172L29.3574 0.994141V27.5723H32.8203V31H21.3594V27.5723ZM34.877 10.7676C34.877 9.52539 35.123 8.63477 35.6152 8.0957C36.1074 7.55664 36.7754 7.28711 37.6191 7.28711C38.498 7.28711 39.1777 7.57422 39.6582 8.14844C40.1387 8.72266 40.3789 9.5957 40.3789 10.7676C40.3789 11.8457 40.1328 12.6836 39.6406 13.2812C39.1602 13.8672 38.4805 14.1602 37.6016 14.1602C36.7695 14.1602 36.1074 13.873 35.6152 13.2988C35.123 12.7246 34.877 11.8809 34.877 10.7676ZM34.877 27.8535C34.877 26.6113 35.123 25.7207 35.6152 25.1816C36.1074 24.6426 36.7754 24.373 37.6191 24.373C38.498 24.373 39.1777 24.6602 39.6582 25.2344C40.1387 25.8086 40.3789 26.6816 40.3789 27.8535C40.3789 28.9316 40.1328 29.7695 39.6406 30.3672C39.1602 30.9531 38.4805 31.2461 37.6016 31.2461C36.7695 31.2461 36.1074 30.959 35.6152 30.3848C35.123 29.8105 34.877 28.9668 34.877 27.8535ZM52.3672 0.976562H63.8457V4.5625H56.9199V13.5449H62.3516V17.1309H56.9199V31H52.3672V0.976562ZM70.4902 31.2812C69.3652 31.2812 68.4219 31.1055 67.6602 30.7539C66.8984 30.4023 66.2832 29.9277 65.8145 29.3301C65.3574 28.7207 65.0293 28.0117 64.8301 27.2031C64.6309 26.3945 64.5312 25.5391 64.5312 24.6367C64.5312 24.0039 64.5723 23.2949 64.6543 22.5098C64.7363 21.7129 64.8594 20.916 65.0234 20.1191H68.6621L68.6094 23.7754C68.6094 24.5488 68.6445 25.1992 68.7148 25.7266C68.7852 26.2422 68.8906 26.6582 69.0312 26.9746C69.1836 27.2793 69.3711 27.502 69.5938 27.6426C69.8281 27.7715 70.1094 27.8359 70.4375 27.8359C70.707 27.8359 70.9473 27.7832 71.1582 27.6777C71.3809 27.5723 71.5684 27.3906 71.7207 27.1328C71.873 26.8633 71.9902 26.5059 72.0723 26.0605C72.1543 25.6035 72.1953 25.0352 72.1953 24.3555L72.248 0.976562H76.8008V23.7227C76.8008 25.2695 76.625 26.5352 76.2734 27.5195C75.9219 28.5039 75.4473 29.2773 74.8496 29.8398C74.2637 30.3906 73.5898 30.7715 72.8281 30.9824C72.0781 31.1816 71.2988 31.2812 70.4902 31.2812ZM85.1328 0.976562H90.3711L95.9258 31H91.3203L90.4941 25.6211H85.0098L84.2188 31H79.5957L85.1328 0.976562ZM89.9668 22.1934L87.8574 7.23438H87.6641L85.5371 22.1934H89.9668ZM98.8438 0.976562H103.396V27.4141H109.602V31H98.8438V0.976562ZM112.484 0.976562H117.037V27.4141H123.242V31H112.484V0.976562ZM129.43 0.976562H134.668L140.223 31H135.617L134.791 25.6211H129.307L128.516 31H123.893L129.43 0.976562ZM134.264 22.1934L132.154 7.23438H131.961L129.834 22.1934H134.264ZM157.484 31.2637C157.004 31.2637 156.482 31.2227 155.92 31.1406C155.357 31.0703 154.801 30.9121 154.25 30.666C153.699 30.4199 153.166 30.0742 152.65 29.6289C152.146 29.1719 151.695 28.5742 151.297 27.8359C150.91 27.0977 150.6 26.1895 150.365 25.1113C150.131 24.0215 150.014 22.7266 150.014 21.2266V10.5918C150.014 9.08008 150.131 7.79102 150.365 6.72461C150.611 5.64648 150.934 4.74414 151.332 4.01758C151.73 3.2793 152.182 2.69336 152.686 2.25977C153.201 1.82617 153.734 1.49805 154.285 1.27539C154.848 1.04102 155.404 0.888672 155.955 0.818359C156.506 0.748047 157.016 0.712891 157.484 0.712891C157.93 0.712891 158.422 0.748047 158.961 0.818359C159.512 0.876953 160.057 1.01758 160.596 1.24023C161.146 1.45117 161.68 1.77344 162.195 2.20703C162.711 2.62891 163.168 3.20898 163.566 3.94727C163.965 4.67383 164.281 5.58203 164.516 6.67188C164.762 7.75 164.885 9.05664 164.885 10.5918V21.2266C164.885 22.7148 164.762 23.998 164.516 25.0762C164.27 26.1426 163.947 27.0508 163.549 27.8008C163.15 28.5391 162.688 29.1367 162.16 29.5938C161.645 30.0391 161.111 30.3906 160.561 30.6484C160.021 30.8945 159.482 31.0586 158.943 31.1406C158.404 31.2227 157.918 31.2637 157.484 31.2637ZM157.484 27.8359C157.93 27.8359 158.316 27.7598 158.645 27.6074C158.984 27.4551 159.26 27.1914 159.471 26.8164C159.693 26.4414 159.857 25.9492 159.963 25.3398C160.08 24.7188 160.139 23.9395 160.139 23.002V9.34375C160.139 8.38281 160.08 7.58008 159.963 6.93555C159.857 6.29102 159.693 5.77539 159.471 5.38867C159.26 4.99023 158.984 4.70898 158.645 4.54492C158.316 4.38086 157.93 4.29883 157.484 4.29883C157.027 4.29883 156.629 4.38086 156.289 4.54492C155.949 4.70898 155.668 4.99023 155.445 5.38867C155.223 5.77539 155.053 6.29102 154.936 6.93555C154.83 7.58008 154.777 8.38281 154.777 9.34375V23.002C154.777 23.9395 154.83 24.7188 154.936 25.3398C155.053 25.9492 155.223 26.4414 155.445 26.8164C155.668 27.1914 155.949 27.4551 156.289 27.6074C156.629 27.7598 157.027 27.8359 157.484 27.8359ZM169.191 0.976562H172.883L180.16 21.0684H180.266C180.23 20.5996 180.184 20.0781 180.125 19.5039C180.066 18.9297 180.014 18.2793 179.967 17.5527C179.92 16.8145 179.879 15.9824 179.844 15.0566C179.809 14.1309 179.791 13.0879 179.791 11.9277V0.976562H183.869V31H180.143L172.9 11.4355H172.76C172.795 11.9629 172.842 12.5371 172.9 13.1582C172.959 13.7676 173.012 14.4883 173.059 15.3203C173.105 16.1523 173.146 17.125 173.182 18.2383C173.217 19.3398 173.234 20.6523 173.234 22.1758V31H169.191V0.976562ZM189.02 0.976562H200.146V4.5625H193.572V13.5449H198.652V17.1309H193.572V27.4141H200.322V31H189.02V0.976562ZM210.957 15.3906H224.053V18.959H210.957V15.3906ZM235.742 24.8828C235.742 24.3789 235.777 23.8281 235.848 23.2305C235.918 22.6211 236.029 21.9941 236.182 21.3496H239.732V22.8789C239.732 23.8164 239.809 24.6016 239.961 25.2344C240.125 25.8672 240.342 26.377 240.611 26.7637C240.881 27.1504 241.203 27.4258 241.578 27.5898C241.953 27.7539 242.363 27.8359 242.809 27.8359C243.242 27.8359 243.635 27.7773 243.986 27.6602C244.338 27.5312 244.637 27.3262 244.883 27.0449C245.129 26.7637 245.316 26.4062 245.445 25.9727C245.574 25.5273 245.639 24.9883 245.639 24.3555V21.0332C245.639 20.4004 245.58 19.8379 245.463 19.3457C245.357 18.8535 245.182 18.4434 244.936 18.1152C244.689 17.7754 244.367 17.5176 243.969 17.3418C243.57 17.166 243.078 17.0781 242.492 17.0781H240.576V13.8262H242.492C242.867 13.8262 243.219 13.7676 243.547 13.6504C243.875 13.5215 244.162 13.3223 244.408 13.0527C244.654 12.7715 244.848 12.4141 244.988 11.9805C245.129 11.5469 245.199 11.0195 245.199 10.3984V7.25195C245.199 6.13867 244.982 5.32422 244.549 4.80859C244.115 4.28125 243.471 4.01758 242.615 4.01758C241.666 4.01758 240.934 4.44531 240.418 5.30078C239.914 6.14453 239.662 7.36328 239.662 8.95703V10.6621H236.146C236.018 10.0762 235.906 9.49609 235.812 8.92188C235.719 8.33594 235.672 7.7207 235.672 7.07617C235.672 6.31445 235.812 5.55859 236.094 4.80859C236.375 4.04688 236.797 3.36133 237.359 2.75195C237.934 2.14258 238.654 1.65039 239.521 1.27539C240.4 0.900391 241.432 0.712891 242.615 0.712891C243.893 0.712891 244.988 0.859375 245.902 1.15234C246.816 1.44531 247.561 1.87891 248.135 2.45312C248.721 3.01562 249.148 3.71289 249.418 4.54492C249.699 5.36523 249.84 6.30273 249.84 7.35742V9.20312C249.84 10.0586 249.729 10.8203 249.506 11.4883C249.295 12.1445 249.014 12.7188 248.662 13.2109C248.322 13.7031 247.93 14.125 247.484 14.4766C247.051 14.8164 246.605 15.0918 246.148 15.3027V15.4434C246.734 15.6426 247.279 15.9062 247.783 16.2344C248.287 16.5508 248.721 16.9609 249.084 17.4648C249.459 17.9688 249.752 18.5781 249.963 19.293C250.174 20.0078 250.279 20.8574 250.279 21.8418V23.8281C250.279 25.2109 250.08 26.377 249.682 27.3262C249.283 28.2754 248.744 29.043 248.064 29.6289C247.385 30.2031 246.588 30.6191 245.674 30.877C244.771 31.1348 243.816 31.2637 242.809 31.2637C240.512 31.2637 238.76 30.707 237.553 29.5938C236.346 28.4805 235.742 26.9102 235.742 24.8828ZM254.094 9.74805C254.094 8.36523 254.217 7.18164 254.463 6.19727C254.721 5.21289 255.055 4.38672 255.465 3.71875C255.887 3.03906 256.367 2.50586 256.906 2.11914C257.445 1.7207 257.996 1.41602 258.559 1.20508C259.133 0.994141 259.701 0.859375 260.264 0.800781C260.826 0.742188 261.342 0.712891 261.811 0.712891C263.018 0.712891 264.049 0.871094 264.904 1.1875C265.76 1.49219 266.457 1.9082 266.996 2.43555C267.547 2.95117 267.945 3.55469 268.191 4.24609C268.438 4.9375 268.561 5.66406 268.561 6.42578C268.561 6.83594 268.52 7.28711 268.438 7.7793C268.367 8.27148 268.25 8.76367 268.086 9.25586H264.623V8.3418C264.623 7.42773 264.564 6.68359 264.447 6.10938C264.342 5.53516 264.172 5.08398 263.938 4.75586C263.715 4.41602 263.428 4.1875 263.076 4.07031C262.725 3.94141 262.303 3.87695 261.811 3.87695C260.803 3.87695 260.029 4.22266 259.49 4.91406C258.963 5.59375 258.699 6.68945 258.699 8.20117V13.9844C259.145 13.4922 259.725 13.082 260.439 12.7539C261.166 12.4141 262.004 12.2441 262.953 12.2441C263.633 12.2441 264.318 12.3555 265.01 12.5781C265.713 12.7891 266.346 13.1758 266.908 13.7383C267.482 14.2891 267.945 15.0449 268.297 16.0059C268.66 16.9551 268.842 18.1738 268.842 19.6621V22.5801C268.842 24.1855 268.672 25.5391 268.332 26.6406C268.004 27.7422 267.529 28.6387 266.908 29.3301C266.287 30.0098 265.537 30.502 264.658 30.8066C263.791 31.1113 262.812 31.2637 261.723 31.2637C260.492 31.2637 259.402 31.0996 258.453 30.7715C257.516 30.4434 256.719 29.916 256.062 29.1895C255.418 28.4629 254.926 27.5195 254.586 26.3594C254.258 25.1875 254.094 23.7637 254.094 22.0879V9.74805ZM258.699 23.793C258.699 25.1758 258.934 26.1953 259.402 26.8516C259.883 27.5078 260.639 27.8359 261.67 27.8359C262.572 27.8359 263.234 27.5137 263.656 26.8691C264.078 26.2246 264.289 25.2578 264.289 23.9688V19.5039C264.289 18.7773 264.225 18.168 264.096 17.6758C263.967 17.1836 263.785 16.791 263.551 16.498C263.316 16.1934 263.035 15.9766 262.707 15.8477C262.379 15.7188 262.01 15.6543 261.6 15.6543C261.283 15.6543 260.979 15.7012 260.686 15.7949C260.404 15.8887 260.141 16.0117 259.895 16.1641C259.648 16.3164 259.426 16.4922 259.227 16.6914C259.027 16.8906 258.852 17.0898 258.699 17.2891V23.793ZM273.219 0.976562H277.771C278.346 0.976562 278.973 1.00586 279.652 1.06445C280.344 1.11133 281.029 1.23438 281.709 1.43359C282.4 1.62109 283.062 1.91406 283.695 2.3125C284.34 2.71094 284.908 3.25586 285.4 3.94727C285.893 4.62695 286.285 5.48242 286.578 6.51367C286.883 7.54492 287.035 8.79883 287.035 10.2754V11.3301C287.035 12.9355 286.895 14.3125 286.613 15.4609C286.344 16.5977 285.98 17.5586 285.523 18.3438C285.066 19.1172 284.533 19.7383 283.924 20.207C283.326 20.6758 282.699 21.0332 282.043 21.2793C281.398 21.5137 280.742 21.6719 280.074 21.7539C279.418 21.8242 278.797 21.8594 278.211 21.8594H277.771V31H273.219V0.976562ZM278 18.5195C278.82 18.5195 279.512 18.4023 280.074 18.168C280.637 17.9219 281.082 17.5469 281.41 17.043C281.75 16.5273 281.99 15.8711 282.131 15.0742C282.283 14.2656 282.359 13.2988 282.359 12.1738V9.4668C282.359 8.57617 282.295 7.80859 282.166 7.16406C282.037 6.50781 281.803 5.96875 281.463 5.54688C281.135 5.125 280.689 4.81445 280.127 4.61523C279.564 4.4043 278.855 4.29883 278 4.29883H277.771V18.5195H278ZM293.258 4.5625H288.424V0.976562H302.627V4.5625H297.811V31H293.258V4.5625ZM0.710938 53.9844H3.74609V62.3633H7.34375V53.9844H10.3789V74H7.34375V64.7539H3.74609V74H0.710938V53.9844ZM13.3203 72.2188L17.7383 63.7109C18.1445 62.9375 18.4727 62.2617 18.7227 61.6836C18.9805 61.1055 19.1797 60.6016 19.3203 60.1719C19.4688 59.7344 19.5703 59.3555 19.625 59.0352C19.6797 58.7148 19.707 58.4258 19.707 58.168C19.707 57.7617 19.668 57.4219 19.5898 57.1484C19.5195 56.8672 19.4102 56.6445 19.2617 56.4805C19.1211 56.3086 18.9414 56.1875 18.7227 56.1172C18.5117 56.0469 18.2656 56.0117 17.9844 56.0117C17.2969 56.0117 16.7969 56.2969 16.4844 56.8672C16.1797 57.4297 16.0273 58.2422 16.0273 59.3047V60.4414H13.6836C13.5977 60.0039 13.5234 59.6055 13.4609 59.2461C13.3984 58.8789 13.3672 58.4805 13.3672 58.0508C13.3672 57.543 13.4531 57.0391 13.625 56.5391C13.8047 56.0312 14.082 55.5742 14.457 55.168C14.832 54.7617 15.3086 54.4336 15.8867 54.1836C16.4727 53.9336 17.1719 53.8086 17.9844 53.8086C18.8594 53.8086 19.6055 53.9102 20.2227 54.1133C20.8477 54.3164 21.3594 54.6133 21.7578 55.0039C22.1562 55.3945 22.4453 55.8711 22.625 56.4336C22.8125 56.9961 22.9062 57.6328 22.9062 58.3438C22.9062 58.75 22.8672 59.1523 22.7891 59.5508C22.7188 59.9414 22.5977 60.3633 22.4258 60.8164C22.2539 61.2617 22.0312 61.75 21.7578 62.2812C21.4844 62.8125 21.1484 63.4219 20.75 64.1094L16.8008 71.6094H22.6484V74H13.3203V72.2188ZM24.8164 60.5117C24.8164 59.6836 24.9805 59.0898 25.3086 58.7305C25.6367 58.3711 26.082 58.1914 26.6445 58.1914C27.2305 58.1914 27.6836 58.3828 28.0039 58.7656C28.3242 59.1484 28.4844 59.7305 28.4844 60.5117C28.4844 61.2305 28.3203 61.7891 27.9922 62.1875C27.6719 62.5781 27.2188 62.7734 26.6328 62.7734C26.0781 62.7734 25.6367 62.582 25.3086 62.1992C24.9805 61.8164 24.8164 61.2539 24.8164 60.5117ZM24.8164 71.9023C24.8164 71.0742 24.9805 70.4805 25.3086 70.1211C25.6367 69.7617 26.082 69.582 26.6445 69.582C27.2305 69.582 27.6836 69.7734 28.0039 70.1562C28.3242 70.5391 28.4844 71.1211 28.4844 71.9023C28.4844 72.6211 28.3203 73.1797 27.9922 73.5781C27.6719 73.9688 27.2188 74.1641 26.6328 74.1641C26.0781 74.1641 25.6367 73.9727 25.3086 73.5898C24.9805 73.207 24.8164 72.6445 24.8164 71.9023ZM36.4766 53.9844H44.1289V56.375H39.5117V62.3633H43.1328V64.7539H39.5117V74H36.4766V53.9844ZM48.5586 74.1875C47.8086 74.1875 47.1797 74.0703 46.6719 73.8359C46.1641 73.6016 45.7539 73.2852 45.4414 72.8867C45.1367 72.4805 44.918 72.0078 44.7852 71.4688C44.6523 70.9297 44.5859 70.3594 44.5859 69.7578C44.5859 69.3359 44.6133 68.8633 44.668 68.3398C44.7227 67.8086 44.8047 67.2773 44.9141 66.7461H47.3398L47.3047 69.1836C47.3047 69.6992 47.3281 70.1328 47.375 70.4844C47.4219 70.8281 47.4922 71.1055 47.5859 71.3164C47.6875 71.5195 47.8125 71.668 47.9609 71.7617C48.1172 71.8477 48.3047 71.8906 48.5234 71.8906C48.7031 71.8906 48.8633 71.8555 49.0039 71.7852C49.1523 71.7148 49.2773 71.5938 49.3789 71.4219C49.4805 71.2422 49.5586 71.0039 49.6133 70.707C49.668 70.4023 49.6953 70.0234 49.6953 69.5703L49.7305 53.9844H52.7656V69.1484C52.7656 70.1797 52.6484 71.0234 52.4141 71.6797C52.1797 72.3359 51.8633 72.8516 51.4648 73.2266C51.0742 73.5938 50.625 73.8477 50.1172 73.9883C49.6172 74.1211 49.0977 74.1875 48.5586 74.1875ZM58.3203 53.9844H61.8125L65.5156 74H62.4453L61.8945 70.4141H58.2383L57.7109 74H54.6289L58.3203 53.9844ZM61.543 68.1289L60.1367 58.1562H60.0078L58.5898 68.1289H61.543ZM67.4609 53.9844H70.4961V71.6094H74.6328V74H67.4609V53.9844ZM76.5547 53.9844H79.5898V71.6094H83.7266V74H76.5547V53.9844ZM87.8516 53.9844H91.3438L95.0469 74H91.9766L91.4258 70.4141H87.7695L87.2422 74H84.1602L87.8516 53.9844ZM91.0742 68.1289L89.668 58.1562H89.5391L88.1211 68.1289H91.0742ZM106.555 74.1758C106.234 74.1758 105.887 74.1484 105.512 74.0938C105.137 74.0469 104.766 73.9414 104.398 73.7773C104.031 73.6133 103.676 73.3828 103.332 73.0859C102.996 72.7812 102.695 72.3828 102.43 71.8906C102.172 71.3984 101.965 70.793 101.809 70.0742C101.652 69.3477 101.574 68.4844 101.574 67.4844V60.3945C101.574 59.3867 101.652 58.5273 101.809 57.8164C101.973 57.0977 102.188 56.4961 102.453 56.0117C102.719 55.5195 103.02 55.1289 103.355 54.8398C103.699 54.5508 104.055 54.332 104.422 54.1836C104.797 54.0273 105.168 53.9258 105.535 53.8789C105.902 53.832 106.242 53.8086 106.555 53.8086C106.852 53.8086 107.18 53.832 107.539 53.8789C107.906 53.918 108.27 54.0117 108.629 54.1602C108.996 54.3008 109.352 54.5156 109.695 54.8047C110.039 55.0859 110.344 55.4727 110.609 55.9648C110.875 56.4492 111.086 57.0547 111.242 57.7812C111.406 58.5 111.488 59.3711 111.488 60.3945V67.4844C111.488 68.4766 111.406 69.332 111.242 70.0508C111.078 70.7617 110.863 71.3672 110.598 71.8672C110.332 72.3594 110.023 72.7578 109.672 73.0625C109.328 73.3594 108.973 73.5938 108.605 73.7656C108.246 73.9297 107.887 74.0391 107.527 74.0938C107.168 74.1484 106.844 74.1758 106.555 74.1758ZM106.555 71.8906C106.852 71.8906 107.109 71.8398 107.328 71.7383C107.555 71.6367 107.738 71.4609 107.879 71.2109C108.027 70.9609 108.137 70.6328 108.207 70.2266C108.285 69.8125 108.324 69.293 108.324 68.668V59.5625C108.324 58.9219 108.285 58.3867 108.207 57.957C108.137 57.5273 108.027 57.1836 107.879 56.9258C107.738 56.6602 107.555 56.4727 107.328 56.3633C107.109 56.2539 106.852 56.1992 106.555 56.1992C106.25 56.1992 105.984 56.2539 105.758 56.3633C105.531 56.4727 105.344 56.6602 105.195 56.9258C105.047 57.1836 104.934 57.5273 104.855 57.957C104.785 58.3867 104.75 58.9219 104.75 59.5625V68.668C104.75 69.293 104.785 69.8125 104.855 70.2266C104.934 70.6328 105.047 70.9609 105.195 71.2109C105.344 71.4609 105.531 71.6367 105.758 71.7383C105.984 71.8398 106.25 71.8906 106.555 71.8906ZM114.359 53.9844H116.82L121.672 67.3789H121.742C121.719 67.0664 121.688 66.7188 121.648 66.3359C121.609 65.9531 121.574 65.5195 121.543 65.0352C121.512 64.543 121.484 63.9883 121.461 63.3711C121.438 62.7539 121.426 62.0586 121.426 61.2852V53.9844H124.145V74H121.66L116.832 60.957H116.738C116.762 61.3086 116.793 61.6914 116.832 62.1055C116.871 62.5117 116.906 62.9922 116.938 63.5469C116.969 64.1016 116.996 64.75 117.02 65.4922C117.043 66.2266 117.055 67.1016 117.055 68.1172V74H114.359V53.9844ZM127.578 53.9844H134.996V56.375H130.613V62.3633H134V64.7539H130.613V71.6094H135.113V74H127.578V53.9844ZM142.203 63.5938H150.934V65.9727H142.203V63.5938ZM158.75 72.2188L163.168 63.7109C163.574 62.9375 163.902 62.2617 164.152 61.6836C164.41 61.1055 164.609 60.6016 164.75 60.1719C164.898 59.7344 165 59.3555 165.055 59.0352C165.109 58.7148 165.137 58.4258 165.137 58.168C165.137 57.7617 165.098 57.4219 165.02 57.1484C164.949 56.8672 164.84 56.6445 164.691 56.4805C164.551 56.3086 164.371 56.1875 164.152 56.1172C163.941 56.0469 163.695 56.0117 163.414 56.0117C162.727 56.0117 162.227 56.2969 161.914 56.8672C161.609 57.4297 161.457 58.2422 161.457 59.3047V60.4414H159.113C159.027 60.0039 158.953 59.6055 158.891 59.2461C158.828 58.8789 158.797 58.4805 158.797 58.0508C158.797 57.543 158.883 57.0391 159.055 56.5391C159.234 56.0312 159.512 55.5742 159.887 55.168C160.262 54.7617 160.738 54.4336 161.316 54.1836C161.902 53.9336 162.602 53.8086 163.414 53.8086C164.289 53.8086 165.035 53.9102 165.652 54.1133C166.277 54.3164 166.789 54.6133 167.188 55.0039C167.586 55.3945 167.875 55.8711 168.055 56.4336C168.242 56.9961 168.336 57.6328 168.336 58.3438C168.336 58.75 168.297 59.1523 168.219 59.5508C168.148 59.9414 168.027 60.3633 167.855 60.8164C167.684 61.2617 167.461 61.75 167.188 62.2812C166.914 62.8125 166.578 63.4219 166.18 64.1094L162.23 71.6094H168.078V74H158.75V72.2188ZM170.129 68.8203L175.965 53.9844H179.586V68.0352H181.438V70.4141H179.586V74H176.762V70.4141H170.129V68.8203ZM176.762 68.0352V65.082L177.043 57.5352H176.691L173.223 68.0352H176.762ZM183.781 53.9844H186.816C187.199 53.9844 187.617 54.0039 188.07 54.043C188.531 54.0742 188.988 54.1562 189.441 54.2891C189.902 54.4141 190.344 54.6094 190.766 54.875C191.195 55.1406 191.574 55.5039 191.902 55.9648C192.23 56.418 192.492 56.9883 192.688 57.6758C192.891 58.3633 192.992 59.1992 192.992 60.1836V60.8867C192.992 61.957 192.898 62.875 192.711 63.6406C192.531 64.3984 192.289 65.0391 191.984 65.5625C191.68 66.0781 191.324 66.4922 190.918 66.8047C190.52 67.1172 190.102 67.3555 189.664 67.5195C189.234 67.6758 188.797 67.7812 188.352 67.8359C187.914 67.8828 187.5 67.9062 187.109 67.9062H186.816V74H183.781V53.9844ZM186.969 65.6797C187.516 65.6797 187.977 65.6016 188.352 65.4453C188.727 65.2812 189.023 65.0312 189.242 64.6953C189.469 64.3516 189.629 63.9141 189.723 63.3828C189.824 62.8438 189.875 62.1992 189.875 61.4492V59.6445C189.875 59.0508 189.832 58.5391 189.746 58.1094C189.66 57.6719 189.504 57.3125 189.277 57.0312C189.059 56.75 188.762 56.543 188.387 56.4102C188.012 56.2695 187.539 56.1992 186.969 56.1992H186.816V65.6797H186.969ZM197.141 56.375H193.918V53.9844H203.387V56.375H200.176V74H197.141V56.375ZM22.1504 160H18.916V148.012H5.73242V160H2.49805V134.301H5.73242V145.164H18.916V134.301H22.1504V160ZM42.5762 140.312C42.5762 141.168 42.4414 141.947 42.1719 142.65C41.9023 143.354 41.5215 143.963 41.0293 144.479C40.5488 144.994 39.9688 145.422 39.2891 145.762C38.6094 146.09 37.8535 146.324 37.0215 146.465V146.57C39.0957 146.828 40.6719 147.49 41.75 148.557C42.8281 149.611 43.3672 150.988 43.3672 152.688C43.3672 153.812 43.1738 154.844 42.7871 155.781C42.4121 156.719 41.8379 157.527 41.0645 158.207C40.291 158.887 39.3125 159.414 38.1289 159.789C36.9453 160.164 35.5449 160.352 33.9277 160.352C32.6504 160.352 31.4434 160.252 30.3066 160.053C29.1816 159.854 28.1211 159.49 27.125 158.963V155.975C28.1445 156.514 29.2461 156.93 30.4297 157.223C31.625 157.516 32.7676 157.662 33.8574 157.662C34.9355 157.662 35.8672 157.545 36.6523 157.311C37.4375 157.076 38.082 156.742 38.5859 156.309C39.1016 155.875 39.4766 155.342 39.7109 154.709C39.957 154.076 40.0801 153.367 40.0801 152.582C40.0801 151.785 39.9219 151.105 39.6055 150.543C39.3008 149.969 38.8613 149.5 38.2871 149.137C37.7129 148.762 37.0098 148.486 36.1777 148.311C35.3574 148.135 34.4258 148.047 33.3828 148.047H31.0449V145.393H33.3828C34.332 145.393 35.1758 145.275 35.9141 145.041C36.6523 144.807 37.2676 144.473 37.7598 144.039C38.2637 143.605 38.6445 143.09 38.9023 142.492C39.1602 141.895 39.2891 141.238 39.2891 140.523C39.2891 139.914 39.1836 139.369 38.9727 138.889C38.7617 138.408 38.4629 138.004 38.0762 137.676C37.6895 137.336 37.2266 137.078 36.6875 136.902C36.1484 136.727 35.5508 136.639 34.8945 136.639C33.6406 136.639 32.5332 136.838 31.5723 137.236C30.623 137.623 29.7148 138.133 28.8477 138.766L27.2305 136.568C27.6758 136.205 28.168 135.865 28.707 135.549C29.2578 135.232 29.8555 134.957 30.5 134.723C31.1445 134.477 31.8301 134.283 32.5566 134.143C33.2949 134.002 34.0742 133.932 34.8945 133.932C36.1602 133.932 37.2676 134.09 38.2168 134.406C39.1777 134.723 39.9805 135.168 40.625 135.742C41.2695 136.305 41.7559 136.979 42.084 137.764C42.4121 138.537 42.5762 139.387 42.5762 140.312ZM48.5879 158.049C48.5879 157.604 48.6465 157.229 48.7637 156.924C48.8809 156.607 49.0391 156.355 49.2383 156.168C49.4375 155.969 49.6719 155.828 49.9414 155.746C50.2109 155.652 50.5039 155.605 50.8203 155.605C51.125 155.605 51.4121 155.652 51.6816 155.746C51.9629 155.828 52.2031 155.969 52.4023 156.168C52.6016 156.355 52.7598 156.607 52.877 156.924C52.9941 157.229 53.0527 157.604 53.0527 158.049C53.0527 158.482 52.9941 158.857 52.877 159.174C52.7598 159.479 52.6016 159.73 52.4023 159.93C52.2031 160.129 51.9629 160.275 51.6816 160.369C51.4121 160.463 51.125 160.51 50.8203 160.51C50.5039 160.51 50.2109 160.463 49.9414 160.369C49.6719 160.275 49.4375 160.129 49.2383 159.93C49.0391 159.73 48.8809 159.479 48.7637 159.174C48.6465 158.857 48.5879 158.482 48.5879 158.049ZM48.5879 142.65C48.5879 142.193 48.6465 141.812 48.7637 141.508C48.8809 141.191 49.0391 140.939 49.2383 140.752C49.4375 140.553 49.6719 140.412 49.9414 140.33C50.2109 140.248 50.5039 140.207 50.8203 140.207C51.125 140.207 51.4121 140.248 51.6816 140.33C51.9629 140.412 52.2031 140.553 52.4023 140.752C52.6016 140.939 52.7598 141.191 52.877 141.508C52.9941 141.812 53.0527 142.193 53.0527 142.65C53.0527 143.084 52.9941 143.453 52.877 143.758C52.7598 144.062 52.6016 144.314 52.4023 144.514C52.2031 144.713 51.9629 144.859 51.6816 144.953C51.4121 145.047 51.125 145.094 50.8203 145.094C50.5039 145.094 50.2109 145.047 49.9414 144.953C49.6719 144.859 49.4375 144.713 49.2383 144.514C49.0391 144.314 48.8809 144.062 48.7637 143.758C48.6465 143.453 48.5879 143.084 48.5879 142.65ZM89.3516 160H85.5723L71.8086 138.66H71.668L71.7559 140.084C71.8965 142.217 71.9668 144.068 71.9668 145.639V160H68.9785V134.301H72.7227L73.5137 135.549L81.9512 148.592L86.4336 155.57H86.5742C86.5508 155.289 86.5039 154.287 86.4336 152.564C86.3633 150.83 86.3281 149.576 86.3281 148.803V134.301H89.3516V160ZM112.66 150.314C112.66 153.467 111.863 155.928 110.27 157.697C108.676 159.467 106.473 160.352 103.66 160.352C101.914 160.352 100.367 159.947 99.0195 159.139C97.6719 158.318 96.6348 157.146 95.9082 155.623C95.1816 154.1 94.8184 152.33 94.8184 150.314C94.8184 147.174 95.6035 144.73 97.1738 142.984C98.7441 141.227 100.947 140.348 103.783 140.348C106.502 140.348 108.658 141.244 110.252 143.037C111.857 144.818 112.66 147.244 112.66 150.314ZM98.0879 150.314C98.0879 152.74 98.5625 154.586 99.5117 155.852C100.473 157.105 101.885 157.732 103.748 157.732C105.588 157.732 106.988 157.105 107.949 155.852C108.91 154.586 109.391 152.74 109.391 150.314C109.391 147.889 108.904 146.066 107.932 144.848C106.971 143.617 105.559 143.002 103.695 143.002C99.957 143.002 98.0879 145.439 98.0879 150.314ZM124.139 157.768C124.549 157.768 125.029 157.727 125.58 157.645C126.131 157.562 126.547 157.469 126.828 157.363V159.789C126.535 159.918 126.078 160.041 125.457 160.158C124.848 160.287 124.227 160.352 123.594 160.352C119.82 160.352 117.934 158.365 117.934 154.393V143.16H115.209V141.648L117.969 140.383L119.234 136.27H121.115V140.699H126.688V143.16H121.115V154.305C121.115 155.418 121.379 156.273 121.906 156.871C122.445 157.469 123.189 157.768 124.139 157.768ZM147.465 150.314C147.465 153.467 146.668 155.928 145.074 157.697C143.48 159.467 141.277 160.352 138.465 160.352C136.719 160.352 135.172 159.947 133.824 159.139C132.477 158.318 131.439 157.146 130.713 155.623C129.986 154.1 129.623 152.33 129.623 150.314C129.623 147.174 130.408 144.73 131.979 142.984C133.549 141.227 135.752 140.348 138.588 140.348C141.307 140.348 143.463 141.244 145.057 143.037C146.662 144.818 147.465 147.244 147.465 150.314ZM132.893 150.314C132.893 152.74 133.367 154.586 134.316 155.852C135.277 157.105 136.689 157.732 138.553 157.732C140.393 157.732 141.793 157.105 142.754 155.852C143.715 154.586 144.195 152.74 144.195 150.314C144.195 147.889 143.709 146.066 142.736 144.848C141.775 143.617 140.363 143.002 138.5 143.002C134.762 143.002 132.893 145.439 132.893 150.314ZM176.855 153.127C176.855 155.365 176.047 157.129 174.43 158.418C172.812 159.707 170.562 160.352 167.68 160.352C164.633 160.352 162.277 159.947 160.613 159.139V156.045C161.703 156.514 162.893 156.883 164.182 157.152C165.482 157.422 166.695 157.557 167.82 157.557C169.742 157.557 171.189 157.188 172.162 156.449C173.135 155.711 173.621 154.697 173.621 153.408C173.621 152.553 173.445 151.85 173.094 151.299C172.742 150.748 172.15 150.232 171.318 149.752C170.498 149.271 169.25 148.727 167.574 148.117C165.195 147.25 163.496 146.23 162.477 145.059C161.457 143.875 160.947 142.352 160.947 140.488C160.947 138.484 161.697 136.891 163.197 135.707C164.709 134.523 166.695 133.932 169.156 133.932C171.723 133.932 174.084 134.412 176.24 135.373L175.238 138.15C173.035 137.236 170.984 136.779 169.086 136.779C167.562 136.779 166.367 137.107 165.5 137.764C164.645 138.42 164.217 139.34 164.217 140.523C164.217 141.367 164.381 142.07 164.709 142.633C165.049 143.184 165.588 143.688 166.326 144.145C167.076 144.602 168.248 145.123 169.842 145.709C171.752 146.412 173.176 147.098 174.113 147.766C175.051 148.422 175.742 149.184 176.188 150.051C176.633 150.906 176.855 151.932 176.855 153.127ZM193.52 160L192.904 157.258H192.764C191.803 158.465 190.842 159.285 189.881 159.719C188.932 160.141 187.73 160.352 186.277 160.352C184.379 160.352 182.891 159.854 181.812 158.857C180.734 157.861 180.195 156.455 180.195 154.639C180.195 150.725 183.283 148.674 189.459 148.486L192.729 148.363V147.221C192.729 145.756 192.412 144.678 191.779 143.986C191.146 143.283 190.133 142.932 188.738 142.932C187.719 142.932 186.752 143.084 185.838 143.389C184.936 143.693 184.086 144.033 183.289 144.408L182.322 142.035C183.295 141.52 184.355 141.115 185.504 140.822C186.652 140.529 187.789 140.383 188.914 140.383C191.246 140.383 192.98 140.898 194.117 141.93C195.254 142.961 195.822 144.602 195.822 146.852V160H193.52ZM186.998 157.803C188.768 157.803 190.156 157.328 191.164 156.379C192.184 155.418 192.693 154.059 192.693 152.301V150.561L189.846 150.684C187.631 150.766 186.014 151.117 184.994 151.738C183.986 152.359 183.482 153.338 183.482 154.674C183.482 155.682 183.787 156.455 184.396 156.994C185.018 157.533 185.885 157.803 186.998 157.803ZM214.965 160V147.66C214.965 146.09 214.613 144.924 213.91 144.162C213.219 143.389 212.129 143.002 210.641 143.002C208.66 143.002 207.219 143.553 206.316 144.654C205.426 145.744 204.98 147.525 204.98 149.998V160H201.816V140.699H204.365L204.84 143.336H205.016C205.613 142.387 206.451 141.654 207.529 141.139C208.607 140.611 209.797 140.348 211.098 140.348C213.465 140.348 215.223 140.922 216.371 142.07C217.52 143.219 218.094 145.006 218.094 147.432V160H214.965ZM236.639 154.674C236.639 156.479 235.965 157.879 234.617 158.875C233.27 159.859 231.377 160.352 228.939 160.352C226.396 160.352 224.375 159.947 222.875 159.139V156.256C224.996 157.287 227.041 157.803 229.01 157.803C230.604 157.803 231.764 157.545 232.49 157.029C233.217 156.514 233.58 155.822 233.58 154.955C233.58 154.193 233.229 153.549 232.525 153.021C231.834 152.494 230.598 151.891 228.816 151.211C227 150.508 225.723 149.91 224.984 149.418C224.246 148.914 223.701 148.352 223.35 147.73C223.01 147.109 222.84 146.354 222.84 145.463C222.84 143.881 223.484 142.633 224.773 141.719C226.062 140.805 227.832 140.348 230.082 140.348C232.273 140.348 234.324 140.781 236.234 141.648L235.162 144.162C233.205 143.342 231.441 142.932 229.871 142.932C228.559 142.932 227.562 143.143 226.883 143.564C226.203 143.975 225.863 144.543 225.863 145.27C225.863 145.973 226.156 146.559 226.742 147.027C227.328 147.484 228.693 148.123 230.838 148.943C232.443 149.541 233.627 150.098 234.389 150.613C235.162 151.129 235.73 151.709 236.094 152.354C236.457 152.998 236.639 153.771 236.639 154.674ZM249.383 150.789V147.836H258.102V150.789H249.383ZM286.104 140.312C286.104 141.168 285.969 141.947 285.699 142.65C285.43 143.354 285.049 143.963 284.557 144.479C284.076 144.994 283.496 145.422 282.816 145.762C282.137 146.09 281.381 146.324 280.549 146.465V146.57C282.623 146.828 284.199 147.49 285.277 148.557C286.355 149.611 286.895 150.988 286.895 152.688C286.895 153.812 286.701 154.844 286.314 155.781C285.939 156.719 285.365 157.527 284.592 158.207C283.818 158.887 282.84 159.414 281.656 159.789C280.473 160.164 279.072 160.352 277.455 160.352C276.178 160.352 274.971 160.252 273.834 160.053C272.709 159.854 271.648 159.49 270.652 158.963V155.975C271.672 156.514 272.773 156.93 273.957 157.223C275.152 157.516 276.295 157.662 277.385 157.662C278.463 157.662 279.395 157.545 280.18 157.311C280.965 157.076 281.609 156.742 282.113 156.309C282.629 155.875 283.004 155.342 283.238 154.709C283.484 154.076 283.607 153.367 283.607 152.582C283.607 151.785 283.449 151.105 283.133 150.543C282.828 149.969 282.389 149.5 281.814 149.137C281.24 148.762 280.537 148.486 279.705 148.311C278.885 148.135 277.953 148.047 276.91 148.047H274.572V145.393H276.91C277.859 145.393 278.703 145.275 279.441 145.041C280.18 144.807 280.795 144.473 281.287 144.039C281.791 143.605 282.172 143.09 282.43 142.492C282.688 141.895 282.816 141.238 282.816 140.523C282.816 139.914 282.711 139.369 282.5 138.889C282.289 138.408 281.99 138.004 281.604 137.676C281.217 137.336 280.754 137.078 280.215 136.902C279.676 136.727 279.078 136.639 278.422 136.639C277.168 136.639 276.061 136.838 275.1 137.236C274.15 137.623 273.242 138.133 272.375 138.766L270.758 136.568C271.203 136.205 271.695 135.865 272.234 135.549C272.785 135.232 273.383 134.957 274.027 134.723C274.672 134.477 275.357 134.283 276.084 134.143C276.822 134.002 277.602 133.932 278.422 133.932C279.688 133.932 280.795 134.09 281.744 134.406C282.705 134.723 283.508 135.168 284.152 135.742C284.797 136.305 285.283 136.979 285.611 137.764C285.939 138.537 286.104 139.387 286.104 140.312ZM291.025 149.014C291.025 147.783 291.084 146.559 291.201 145.34C291.33 144.121 291.547 142.955 291.852 141.842C292.168 140.717 292.596 139.674 293.135 138.713C293.674 137.752 294.359 136.92 295.191 136.217C296.023 135.502 297.02 134.945 298.18 134.547C299.34 134.137 300.699 133.932 302.258 133.932C302.48 133.932 302.727 133.938 302.996 133.949C303.266 133.961 303.535 133.984 303.805 134.02C304.086 134.043 304.35 134.078 304.596 134.125C304.854 134.16 305.082 134.207 305.281 134.266V136.99C304.871 136.85 304.408 136.744 303.893 136.674C303.377 136.604 302.867 136.568 302.363 136.568C301.309 136.568 300.377 136.697 299.568 136.955C298.771 137.201 298.08 137.553 297.494 138.01C296.908 138.467 296.416 139.012 296.018 139.645C295.631 140.277 295.314 140.98 295.068 141.754C294.822 142.516 294.641 143.33 294.523 144.197C294.406 145.064 294.33 145.967 294.295 146.904H294.506C294.74 146.482 295.021 146.09 295.35 145.727C295.689 145.352 296.082 145.035 296.527 144.777C296.973 144.508 297.471 144.297 298.021 144.145C298.584 143.992 299.211 143.916 299.902 143.916C301.016 143.916 302.023 144.092 302.926 144.443C303.828 144.783 304.596 145.287 305.229 145.955C305.861 146.623 306.348 147.443 306.688 148.416C307.039 149.377 307.215 150.479 307.215 151.721C307.215 153.057 307.033 154.258 306.67 155.324C306.307 156.391 305.785 157.299 305.105 158.049C304.426 158.787 303.605 159.355 302.645 159.754C301.684 160.152 300.605 160.352 299.41 160.352C298.238 160.352 297.137 160.123 296.105 159.666C295.086 159.209 294.201 158.512 293.451 157.574C292.701 156.637 292.109 155.459 291.676 154.041C291.242 152.623 291.025 150.947 291.025 149.014ZM299.375 157.662C300.078 157.662 300.717 157.545 301.291 157.311C301.877 157.064 302.381 156.701 302.803 156.221C303.225 155.729 303.547 155.113 303.77 154.375C304.004 153.625 304.121 152.74 304.121 151.721C304.121 150.9 304.021 150.168 303.822 149.523C303.635 148.867 303.348 148.311 302.961 147.854C302.574 147.396 302.088 147.045 301.502 146.799C300.928 146.553 300.254 146.43 299.48 146.43C298.695 146.43 297.975 146.57 297.318 146.852C296.674 147.121 296.123 147.479 295.666 147.924C295.209 148.357 294.852 148.855 294.594 149.418C294.348 149.98 294.225 150.543 294.225 151.105C294.225 151.891 294.33 152.676 294.541 153.461C294.764 154.234 295.086 154.932 295.508 155.553C295.941 156.174 296.48 156.684 297.125 157.082C297.77 157.469 298.52 157.662 299.375 157.662ZM321.066 160.352C318.477 160.352 316.484 159.42 315.09 157.557H314.879L314.949 158.277C315.043 159.191 315.09 160.006 315.09 160.721V168.648H311.926V140.699H314.527L314.949 143.336H315.09C315.84 142.281 316.707 141.52 317.691 141.051C318.676 140.582 319.812 140.348 321.102 140.348C323.609 140.348 325.555 141.221 326.938 142.967C328.332 144.701 329.029 147.15 329.029 150.314C329.029 153.467 328.332 155.928 326.938 157.697C325.543 159.467 323.586 160.352 321.066 160.352ZM320.539 143.002C318.629 143.002 317.246 143.541 316.391 144.619C315.547 145.697 315.113 147.391 315.09 149.699V150.314C315.09 152.928 315.523 154.82 316.391 155.992C317.258 157.152 318.664 157.732 320.609 157.732C322.227 157.732 323.486 157.076 324.389 155.764C325.303 154.451 325.76 152.623 325.76 150.279C325.76 147.924 325.303 146.125 324.389 144.883C323.486 143.629 322.203 143.002 320.539 143.002ZM340.525 157.768C340.936 157.768 341.416 157.727 341.967 157.645C342.518 157.562 342.934 157.469 343.215 157.363V159.789C342.922 159.918 342.465 160.041 341.844 160.158C341.234 160.287 340.613 160.352 339.98 160.352C336.207 160.352 334.32 158.365 334.32 154.393V143.16H331.596V141.648L334.355 140.383L335.621 136.27H337.502V140.699H343.074V143.16H337.502V154.305C337.502 155.418 337.766 156.273 338.293 156.871C338.832 157.469 339.576 157.768 340.525 157.768ZM10.5752 200H8.95801V194.006H2.36621V200H0.749023V187.15H2.36621V192.582H8.95801V187.15H10.5752V200ZM21.8955 197.117H20.0234V200H18.4766V197.117H12.5439V195.72L18.3711 187.08H20.0234V195.658H21.8955V197.117ZM18.4766 195.658V192.529C18.4766 192.201 18.4795 191.858 18.4854 191.501C18.4971 191.138 18.5088 190.786 18.5205 190.446C18.5322 190.101 18.5439 189.778 18.5557 189.479C18.5732 189.181 18.585 188.932 18.5908 188.732H18.5117C18.4707 188.85 18.418 188.981 18.3535 189.128C18.2949 189.269 18.2275 189.412 18.1514 189.559C18.0811 189.699 18.0078 189.837 17.9316 189.972C17.8555 190.106 17.7852 190.221 17.7207 190.314L14.1084 195.658H18.4766ZM23.7939 199.024C23.7939 198.802 23.8232 198.614 23.8818 198.462C23.9404 198.304 24.0195 198.178 24.1191 198.084C24.2188 197.984 24.3359 197.914 24.4707 197.873C24.6055 197.826 24.752 197.803 24.9102 197.803C25.0625 197.803 25.2061 197.826 25.3408 197.873C25.4814 197.914 25.6016 197.984 25.7012 198.084C25.8008 198.178 25.8799 198.304 25.9385 198.462C25.9971 198.614 26.0264 198.802 26.0264 199.024C26.0264 199.241 25.9971 199.429 25.9385 199.587C25.8799 199.739 25.8008 199.865 25.7012 199.965C25.6016 200.064 25.4814 200.138 25.3408 200.185C25.2061 200.231 25.0625 200.255 24.9102 200.255C24.752 200.255 24.6055 200.231 24.4707 200.185C24.3359 200.138 24.2188 200.064 24.1191 199.965C24.0195 199.865 23.9404 199.739 23.8818 199.587C23.8232 199.429 23.7939 199.241 23.7939 199.024ZM23.7939 191.325C23.7939 191.097 23.8232 190.906 23.8818 190.754C23.9404 190.596 24.0195 190.47 24.1191 190.376C24.2188 190.276 24.3359 190.206 24.4707 190.165C24.6055 190.124 24.752 190.104 24.9102 190.104C25.0625 190.104 25.2061 190.124 25.3408 190.165C25.4814 190.206 25.6016 190.276 25.7012 190.376C25.8008 190.47 25.8799 190.596 25.9385 190.754C25.9971 190.906 26.0264 191.097 26.0264 191.325C26.0264 191.542 25.9971 191.727 25.9385 191.879C25.8799 192.031 25.8008 192.157 25.7012 192.257C25.6016 192.356 25.4814 192.43 25.3408 192.477C25.2061 192.523 25.0625 192.547 24.9102 192.547C24.752 192.547 24.6055 192.523 24.4707 192.477C24.3359 192.43 24.2188 192.356 24.1191 192.257C24.0195 192.157 23.9404 192.031 23.8818 191.879C23.8232 191.727 23.7939 191.542 23.7939 191.325ZM44.1758 200H42.2861L35.4043 189.33H35.334L35.3779 190.042C35.4482 191.108 35.4834 192.034 35.4834 192.819V200H33.9893V187.15H35.8613L36.2568 187.774L40.4756 194.296L42.7168 197.785H42.7871C42.7754 197.645 42.752 197.144 42.7168 196.282C42.6816 195.415 42.6641 194.788 42.6641 194.401V187.15H44.1758V200ZM55.8301 195.157C55.8301 196.733 55.4316 197.964 54.6348 198.849C53.8379 199.733 52.7363 200.176 51.3301 200.176C50.457 200.176 49.6836 199.974 49.0098 199.569C48.3359 199.159 47.8174 198.573 47.4541 197.812C47.0908 197.05 46.9092 196.165 46.9092 195.157C46.9092 193.587 47.3018 192.365 48.0869 191.492C48.8721 190.613 49.9736 190.174 51.3916 190.174C52.751 190.174 53.8291 190.622 54.626 191.519C55.4287 192.409 55.8301 193.622 55.8301 195.157ZM48.5439 195.157C48.5439 196.37 48.7812 197.293 49.2559 197.926C49.7363 198.553 50.4424 198.866 51.374 198.866C52.2939 198.866 52.9941 198.553 53.4746 197.926C53.9551 197.293 54.1953 196.37 54.1953 195.157C54.1953 193.944 53.9521 193.033 53.4658 192.424C52.9854 191.809 52.2793 191.501 51.3477 191.501C49.4785 191.501 48.5439 192.72 48.5439 195.157ZM61.5693 198.884C61.7744 198.884 62.0146 198.863 62.29 198.822C62.5654 198.781 62.7734 198.734 62.9141 198.682V199.895C62.7676 199.959 62.5391 200.021 62.2285 200.079C61.9238 200.144 61.6133 200.176 61.2969 200.176C59.4102 200.176 58.4668 199.183 58.4668 197.196V191.58H57.1045V190.824L58.4844 190.191L59.1172 188.135H60.0576V190.35H62.8438V191.58H60.0576V197.152C60.0576 197.709 60.1895 198.137 60.4531 198.436C60.7227 198.734 61.0947 198.884 61.5693 198.884ZM73.2324 195.157C73.2324 196.733 72.834 197.964 72.0371 198.849C71.2402 199.733 70.1387 200.176 68.7324 200.176C67.8594 200.176 67.0859 199.974 66.4121 199.569C65.7383 199.159 65.2197 198.573 64.8564 197.812C64.4932 197.05 64.3115 196.165 64.3115 195.157C64.3115 193.587 64.7041 192.365 65.4893 191.492C66.2744 190.613 67.376 190.174 68.7939 190.174C70.1533 190.174 71.2314 190.622 72.0283 191.519C72.8311 192.409 73.2324 193.622 73.2324 195.157ZM65.9463 195.157C65.9463 196.37 66.1836 197.293 66.6582 197.926C67.1387 198.553 67.8447 198.866 68.7764 198.866C69.6963 198.866 70.3965 198.553 70.877 197.926C71.3574 197.293 71.5977 196.37 71.5977 195.157C71.5977 193.944 71.3545 193.033 70.8682 192.424C70.3877 191.809 69.6816 191.501 68.75 191.501C66.8809 191.501 65.9463 192.72 65.9463 195.157ZM87.9277 196.563C87.9277 197.683 87.5234 198.564 86.7148 199.209C85.9062 199.854 84.7812 200.176 83.3398 200.176C81.8164 200.176 80.6387 199.974 79.8066 199.569V198.022C80.3516 198.257 80.9463 198.441 81.5908 198.576C82.2412 198.711 82.8477 198.778 83.4102 198.778C84.3711 198.778 85.0947 198.594 85.5811 198.225C86.0674 197.855 86.3105 197.349 86.3105 196.704C86.3105 196.276 86.2227 195.925 86.0469 195.649C85.8711 195.374 85.5752 195.116 85.1592 194.876C84.749 194.636 84.125 194.363 83.2871 194.059C82.0977 193.625 81.248 193.115 80.7383 192.529C80.2285 191.938 79.9736 191.176 79.9736 190.244C79.9736 189.242 80.3486 188.445 81.0986 187.854C81.8545 187.262 82.8477 186.966 84.0781 186.966C85.3613 186.966 86.542 187.206 87.6201 187.687L87.1191 189.075C86.0176 188.618 84.9922 188.39 84.043 188.39C83.2812 188.39 82.6836 188.554 82.25 188.882C81.8223 189.21 81.6084 189.67 81.6084 190.262C81.6084 190.684 81.6904 191.035 81.8545 191.316C82.0244 191.592 82.2939 191.844 82.6631 192.072C83.0381 192.301 83.624 192.562 84.4209 192.854C85.376 193.206 86.0879 193.549 86.5566 193.883C87.0254 194.211 87.3711 194.592 87.5938 195.025C87.8164 195.453 87.9277 195.966 87.9277 196.563ZM96.2598 200L95.9521 198.629H95.8818C95.4014 199.232 94.9209 199.643 94.4404 199.859C93.9658 200.07 93.3652 200.176 92.6387 200.176C91.6895 200.176 90.9453 199.927 90.4062 199.429C89.8672 198.931 89.5977 198.228 89.5977 197.319C89.5977 195.362 91.1416 194.337 94.2295 194.243L95.8643 194.182V193.61C95.8643 192.878 95.7061 192.339 95.3896 191.993C95.0732 191.642 94.5664 191.466 93.8691 191.466C93.3594 191.466 92.876 191.542 92.4189 191.694C91.9678 191.847 91.543 192.017 91.1445 192.204L90.6611 191.018C91.1475 190.76 91.6777 190.558 92.252 190.411C92.8262 190.265 93.3945 190.191 93.957 190.191C95.123 190.191 95.9902 190.449 96.5586 190.965C97.127 191.48 97.4111 192.301 97.4111 193.426V200H96.2598ZM92.999 198.901C93.8838 198.901 94.5781 198.664 95.082 198.189C95.5918 197.709 95.8467 197.029 95.8467 196.15V195.28L94.4229 195.342C93.3154 195.383 92.5068 195.559 91.9971 195.869C91.4932 196.18 91.2412 196.669 91.2412 197.337C91.2412 197.841 91.3936 198.228 91.6982 198.497C92.0088 198.767 92.4424 198.901 92.999 198.901ZM106.982 200V193.83C106.982 193.045 106.807 192.462 106.455 192.081C106.109 191.694 105.564 191.501 104.82 191.501C103.83 191.501 103.109 191.776 102.658 192.327C102.213 192.872 101.99 193.763 101.99 194.999V200H100.408V190.35H101.683L101.92 191.668H102.008C102.307 191.193 102.726 190.827 103.265 190.569C103.804 190.306 104.398 190.174 105.049 190.174C106.232 190.174 107.111 190.461 107.686 191.035C108.26 191.609 108.547 192.503 108.547 193.716V200H106.982ZM117.819 197.337C117.819 198.239 117.482 198.939 116.809 199.438C116.135 199.93 115.188 200.176 113.97 200.176C112.698 200.176 111.688 199.974 110.938 199.569V198.128C111.998 198.644 113.021 198.901 114.005 198.901C114.802 198.901 115.382 198.772 115.745 198.515C116.108 198.257 116.29 197.911 116.29 197.478C116.29 197.097 116.114 196.774 115.763 196.511C115.417 196.247 114.799 195.945 113.908 195.605C113 195.254 112.361 194.955 111.992 194.709C111.623 194.457 111.351 194.176 111.175 193.865C111.005 193.555 110.92 193.177 110.92 192.731C110.92 191.94 111.242 191.316 111.887 190.859C112.531 190.402 113.416 190.174 114.541 190.174C115.637 190.174 116.662 190.391 117.617 190.824L117.081 192.081C116.103 191.671 115.221 191.466 114.436 191.466C113.779 191.466 113.281 191.571 112.941 191.782C112.602 191.987 112.432 192.271 112.432 192.635C112.432 192.986 112.578 193.279 112.871 193.514C113.164 193.742 113.847 194.062 114.919 194.472C115.722 194.771 116.313 195.049 116.694 195.307C117.081 195.564 117.365 195.854 117.547 196.177C117.729 196.499 117.819 196.886 117.819 197.337ZM124.191 195.395V193.918H128.551V195.395H124.191ZM140.354 200H138.808V191.976C138.808 191.724 138.808 191.454 138.808 191.167C138.813 190.88 138.819 190.596 138.825 190.314C138.837 190.027 138.846 189.755 138.852 189.497C138.863 189.233 138.872 189.002 138.878 188.803C138.778 188.908 138.69 188.999 138.614 189.075C138.538 189.151 138.459 189.225 138.377 189.295C138.301 189.365 138.219 189.441 138.131 189.523C138.043 189.6 137.938 189.69 137.814 189.796L136.514 190.859L135.67 189.778L139.036 187.15H140.354V200ZM148.985 186.948C149.478 186.948 149.94 187.013 150.374 187.142C150.813 187.271 151.197 187.464 151.525 187.722C151.859 187.979 152.123 188.302 152.316 188.688C152.51 189.075 152.606 189.526 152.606 190.042C152.606 190.435 152.548 190.789 152.431 191.105C152.313 191.422 152.152 191.709 151.947 191.967C151.742 192.219 151.499 192.447 151.218 192.652C150.937 192.852 150.632 193.033 150.304 193.197C150.644 193.379 150.975 193.581 151.297 193.804C151.625 194.026 151.915 194.278 152.167 194.56C152.425 194.835 152.63 195.146 152.782 195.491C152.94 195.837 153.02 196.224 153.02 196.651C153.02 197.19 152.92 197.68 152.721 198.119C152.527 198.553 152.252 198.922 151.895 199.227C151.543 199.531 151.118 199.766 150.62 199.93C150.128 200.094 149.583 200.176 148.985 200.176C148.341 200.176 147.767 200.097 147.263 199.938C146.765 199.78 146.343 199.555 145.997 199.262C145.657 198.963 145.396 198.6 145.215 198.172C145.039 197.744 144.951 197.261 144.951 196.722C144.951 196.282 145.016 195.887 145.145 195.535C145.279 195.184 145.458 194.867 145.681 194.586C145.903 194.305 146.167 194.056 146.472 193.839C146.776 193.622 147.099 193.432 147.438 193.268C147.151 193.086 146.882 192.89 146.63 192.679C146.378 192.462 146.158 192.222 145.971 191.958C145.789 191.694 145.643 191.404 145.531 191.088C145.426 190.766 145.373 190.411 145.373 190.024C145.373 189.515 145.47 189.069 145.663 188.688C145.862 188.302 146.129 187.979 146.463 187.722C146.797 187.464 147.181 187.271 147.614 187.142C148.054 187.013 148.511 186.948 148.985 186.948ZM146.524 196.739C146.524 197.05 146.571 197.337 146.665 197.601C146.759 197.858 146.905 198.081 147.104 198.269C147.304 198.45 147.556 198.594 147.86 198.699C148.165 198.799 148.528 198.849 148.95 198.849C149.36 198.849 149.721 198.799 150.031 198.699C150.348 198.594 150.611 198.447 150.822 198.26C151.033 198.066 151.191 197.835 151.297 197.565C151.402 197.296 151.455 196.997 151.455 196.669C151.455 196.364 151.396 196.089 151.279 195.843C151.168 195.597 151.004 195.368 150.787 195.157C150.576 194.946 150.321 194.747 150.022 194.56C149.724 194.372 149.39 194.188 149.021 194.006L148.757 193.883C148.019 194.234 147.462 194.639 147.087 195.096C146.712 195.547 146.524 196.095 146.524 196.739ZM148.968 188.284C148.347 188.284 147.852 188.439 147.482 188.75C147.119 189.061 146.938 189.512 146.938 190.104C146.938 190.438 146.987 190.725 147.087 190.965C147.192 191.205 147.336 191.419 147.518 191.606C147.699 191.794 147.916 191.964 148.168 192.116C148.426 192.263 148.704 192.406 149.003 192.547C149.284 192.418 149.548 192.277 149.794 192.125C150.046 191.973 150.263 191.8 150.444 191.606C150.632 191.413 150.778 191.193 150.884 190.947C150.989 190.701 151.042 190.42 151.042 190.104C151.042 189.512 150.857 189.061 150.488 188.75C150.119 188.439 149.612 188.284 148.968 188.284ZM160.033 200.176C158.738 200.176 157.742 199.71 157.045 198.778H156.939L156.975 199.139C157.021 199.596 157.045 200.003 157.045 200.36V204.324H155.463V190.35H156.764L156.975 191.668H157.045C157.42 191.141 157.854 190.76 158.346 190.525C158.838 190.291 159.406 190.174 160.051 190.174C161.305 190.174 162.277 190.61 162.969 191.483C163.666 192.351 164.015 193.575 164.015 195.157C164.015 196.733 163.666 197.964 162.969 198.849C162.271 199.733 161.293 200.176 160.033 200.176ZM159.77 191.501C158.814 191.501 158.123 191.771 157.695 192.31C157.273 192.849 157.057 193.695 157.045 194.85V195.157C157.045 196.464 157.262 197.41 157.695 197.996C158.129 198.576 158.832 198.866 159.805 198.866C160.613 198.866 161.243 198.538 161.694 197.882C162.151 197.226 162.38 196.312 162.38 195.14C162.38 193.962 162.151 193.062 161.694 192.441C161.243 191.814 160.602 191.501 159.77 191.501ZM169.763 198.884C169.968 198.884 170.208 198.863 170.483 198.822C170.759 198.781 170.967 198.734 171.107 198.682V199.895C170.961 199.959 170.732 200.021 170.422 200.079C170.117 200.144 169.807 200.176 169.49 200.176C167.604 200.176 166.66 199.183 166.66 197.196V191.58H165.298V190.824L166.678 190.191L167.311 188.135H168.251V190.35H171.037V191.58H168.251V197.152C168.251 197.709 168.383 198.137 168.646 198.436C168.916 198.734 169.288 198.884 169.763 198.884ZM6.7168 223H5.63867V219.004H1.24414V223H0.166016V214.434H1.24414V218.055H5.63867V214.434H6.7168V223ZM11.0879 217.744C11.4746 217.744 11.834 217.799 12.166 217.908C12.502 218.014 12.793 218.172 13.0391 218.383C13.2891 218.594 13.4844 218.855 13.625 219.168C13.7656 219.48 13.8359 219.842 13.8359 220.252C13.8359 220.697 13.7695 221.098 13.6367 221.453C13.5039 221.809 13.3066 222.109 13.0449 222.355C12.7832 222.602 12.459 222.791 12.0723 222.924C11.6895 223.053 11.248 223.117 10.748 223.117C10.5488 223.117 10.3516 223.107 10.1562 223.088C9.96484 223.068 9.7793 223.039 9.59961 223C9.42383 222.965 9.25586 222.918 9.0957 222.859C8.93555 222.801 8.79102 222.732 8.66211 222.654V221.646C8.79102 221.736 8.94141 221.816 9.11328 221.887C9.28906 221.957 9.47266 222.016 9.66406 222.062C9.85547 222.109 10.0469 222.146 10.2383 222.174C10.4336 222.197 10.6133 222.209 10.7773 222.209C11.0859 222.209 11.3613 222.174 11.6035 222.104C11.8457 222.029 12.0508 221.916 12.2188 221.764C12.3867 221.611 12.5156 221.42 12.6055 221.189C12.6953 220.959 12.7402 220.686 12.7402 220.369C12.7402 219.811 12.5684 219.385 12.2246 219.092C11.8809 218.795 11.3809 218.646 10.7246 218.646C10.6191 218.646 10.5039 218.652 10.3789 218.664C10.2578 218.672 10.1348 218.684 10.0098 218.699C9.88867 218.715 9.77148 218.732 9.6582 218.752C9.54883 218.768 9.45312 218.783 9.37109 218.799L8.84375 218.465L9.16602 214.434H13.209V215.406H10.0918L9.86328 217.861C9.98828 217.838 10.1523 217.812 10.3555 217.785C10.5625 217.758 10.8066 217.744 11.0879 217.744ZM15.5293 222.35C15.5293 222.201 15.5488 222.076 15.5879 221.975C15.627 221.869 15.6797 221.785 15.7461 221.723C15.8125 221.656 15.8906 221.609 15.9805 221.582C16.0703 221.551 16.168 221.535 16.2734 221.535C16.375 221.535 16.4707 221.551 16.5605 221.582C16.6543 221.609 16.7344 221.656 16.8008 221.723C16.8672 221.785 16.9199 221.869 16.959 221.975C16.998 222.076 17.0176 222.201 17.0176 222.35C17.0176 222.494 16.998 222.619 16.959 222.725C16.9199 222.826 16.8672 222.91 16.8008 222.977C16.7344 223.043 16.6543 223.092 16.5605 223.123C16.4707 223.154 16.375 223.17 16.2734 223.17C16.168 223.17 16.0703 223.154 15.9805 223.123C15.8906 223.092 15.8125 223.043 15.7461 222.977C15.6797 222.91 15.627 222.826 15.5879 222.725C15.5488 222.619 15.5293 222.494 15.5293 222.35ZM15.5293 217.217C15.5293 217.064 15.5488 216.938 15.5879 216.836C15.627 216.73 15.6797 216.646 15.7461 216.584C15.8125 216.518 15.8906 216.471 15.9805 216.443C16.0703 216.416 16.168 216.402 16.2734 216.402C16.375 216.402 16.4707 216.416 16.5605 216.443C16.6543 216.471 16.7344 216.518 16.8008 216.584C16.8672 216.646 16.9199 216.73 16.959 216.836C16.998 216.938 17.0176 217.064 17.0176 217.217C17.0176 217.361 16.998 217.484 16.959 217.586C16.9199 217.688 16.8672 217.771 16.8008 217.838C16.7344 217.904 16.6543 217.953 16.5605 217.984C16.4707 218.016 16.375 218.031 16.2734 218.031C16.168 218.031 16.0703 218.016 15.9805 217.984C15.8906 217.953 15.8125 217.904 15.7461 217.838C15.6797 217.771 15.627 217.688 15.5879 217.586C15.5488 217.484 15.5293 217.361 15.5293 217.217ZM29.1172 223H27.8574L23.2695 215.887H23.2227L23.252 216.361C23.2988 217.072 23.3223 217.689 23.3223 218.213V223H22.3262V214.434H23.5742L23.8379 214.85L26.6504 219.197L28.1445 221.523H28.1914C28.1836 221.43 28.168 221.096 28.1445 220.521C28.1211 219.943 28.1094 219.525 28.1094 219.268V214.434H29.1172V223ZM36.8867 219.771C36.8867 220.822 36.6211 221.643 36.0898 222.232C35.5586 222.822 34.8242 223.117 33.8867 223.117C33.3047 223.117 32.7891 222.982 32.3398 222.713C31.8906 222.439 31.5449 222.049 31.3027 221.541C31.0605 221.033 30.9395 220.443 30.9395 219.771C30.9395 218.725 31.2012 217.91 31.7246 217.328C32.248 216.742 32.9824 216.449 33.9277 216.449C34.834 216.449 35.5527 216.748 36.084 217.346C36.6191 217.939 36.8867 218.748 36.8867 219.771ZM32.0293 219.771C32.0293 220.58 32.1875 221.195 32.5039 221.617C32.8242 222.035 33.2949 222.244 33.916 222.244C34.5293 222.244 34.9961 222.035 35.3164 221.617C35.6367 221.195 35.7969 220.58 35.7969 219.771C35.7969 218.963 35.6348 218.355 35.3105 217.949C34.9902 217.539 34.5195 217.334 33.8984 217.334C32.6523 217.334 32.0293 218.146 32.0293 219.771ZM40.7129 222.256C40.8496 222.256 41.0098 222.242 41.1934 222.215C41.377 222.188 41.5156 222.156 41.6094 222.121V222.93C41.5117 222.973 41.3594 223.014 41.1523 223.053C40.9492 223.096 40.7422 223.117 40.5312 223.117C39.2734 223.117 38.6445 222.455 38.6445 221.131V217.387H37.7363V216.883L38.6562 216.461L39.0781 215.09H39.7051V216.566H41.5625V217.387H39.7051V221.102C39.7051 221.473 39.793 221.758 39.9688 221.957C40.1484 222.156 40.3965 222.256 40.7129 222.256ZM48.4883 219.771C48.4883 220.822 48.2227 221.643 47.6914 222.232C47.1602 222.822 46.4258 223.117 45.4883 223.117C44.9062 223.117 44.3906 222.982 43.9414 222.713C43.4922 222.439 43.1465 222.049 42.9043 221.541C42.6621 221.033 42.541 220.443 42.541 219.771C42.541 218.725 42.8027 217.91 43.3262 217.328C43.8496 216.742 44.584 216.449 45.5293 216.449C46.4355 216.449 47.1543 216.748 47.6855 217.346C48.2207 217.939 48.4883 218.748 48.4883 219.771ZM43.6309 219.771C43.6309 220.58 43.7891 221.195 44.1055 221.617C44.4258 222.035 44.8965 222.244 45.5176 222.244C46.1309 222.244 46.5977 222.035 46.918 221.617C47.2383 221.195 47.3984 220.58 47.3984 219.771C47.3984 218.963 47.2363 218.355 46.9121 217.949C46.5918 217.539 46.1211 217.334 45.5 217.334C44.2539 217.334 43.6309 218.146 43.6309 219.771ZM58.2852 220.709C58.2852 221.455 58.0156 222.043 57.4766 222.473C56.9375 222.902 56.1875 223.117 55.2266 223.117C54.2109 223.117 53.4258 222.982 52.8711 222.713V221.682C53.2344 221.838 53.6309 221.961 54.0605 222.051C54.4941 222.141 54.8984 222.186 55.2734 222.186C55.9141 222.186 56.3965 222.062 56.7207 221.816C57.0449 221.57 57.207 221.232 57.207 220.803C57.207 220.518 57.1484 220.283 57.0312 220.1C56.9141 219.916 56.7168 219.744 56.4395 219.584C56.166 219.424 55.75 219.242 55.1914 219.039C54.3984 218.75 53.832 218.41 53.4922 218.02C53.1523 217.625 52.9824 217.117 52.9824 216.496C52.9824 215.828 53.2324 215.297 53.7324 214.902C54.2363 214.508 54.8984 214.311 55.7188 214.311C56.5742 214.311 57.3613 214.471 58.0801 214.791L57.7461 215.717C57.0117 215.412 56.3281 215.26 55.6953 215.26C55.1875 215.26 54.7891 215.369 54.5 215.588C54.2148 215.807 54.0723 216.113 54.0723 216.508C54.0723 216.789 54.127 217.023 54.2363 217.211C54.3496 217.395 54.5293 217.562 54.7754 217.715C55.0254 217.867 55.416 218.041 55.9473 218.236C56.584 218.471 57.0586 218.699 57.3711 218.922C57.6836 219.141 57.9141 219.395 58.0625 219.684C58.2109 219.969 58.2852 220.311 58.2852 220.709ZM63.8398 223L63.6348 222.086H63.5879C63.2676 222.488 62.9473 222.762 62.627 222.906C62.3105 223.047 61.9102 223.117 61.4258 223.117C60.793 223.117 60.2969 222.951 59.9375 222.619C59.5781 222.287 59.3984 221.818 59.3984 221.213C59.3984 219.908 60.4277 219.225 62.4863 219.162L63.5762 219.121V218.74C63.5762 218.252 63.4707 217.893 63.2598 217.662C63.0488 217.428 62.7109 217.311 62.2461 217.311C61.9062 217.311 61.584 217.361 61.2793 217.463C60.9785 217.564 60.6953 217.678 60.4297 217.803L60.1074 217.012C60.4316 216.84 60.7852 216.705 61.168 216.607C61.5508 216.51 61.9297 216.461 62.3047 216.461C63.082 216.461 63.6602 216.633 64.0391 216.977C64.418 217.32 64.6074 217.867 64.6074 218.617V223H63.8398ZM61.666 222.268C62.2559 222.268 62.7188 222.109 63.0547 221.793C63.3945 221.473 63.5645 221.02 63.5645 220.434V219.854L62.6152 219.895C61.877 219.922 61.3379 220.039 60.998 220.246C60.6621 220.453 60.4941 220.779 60.4941 221.225C60.4941 221.561 60.5957 221.818 60.7988 221.998C61.0059 222.178 61.2949 222.268 61.666 222.268ZM70.9883 223V218.887C70.9883 218.363 70.8711 217.975 70.6367 217.721C70.4062 217.463 70.043 217.334 69.5469 217.334C68.8867 217.334 68.4062 217.518 68.1055 217.885C67.8086 218.248 67.6602 218.842 67.6602 219.666V223H66.6055V216.566H67.4551L67.6133 217.445H67.6719C67.8711 217.129 68.1504 216.885 68.5098 216.713C68.8691 216.537 69.2656 216.449 69.6992 216.449C70.4883 216.449 71.0742 216.641 71.457 217.023C71.8398 217.406 72.0312 218.002 72.0312 218.811V223H70.9883ZM78.2129 221.225C78.2129 221.826 77.9883 222.293 77.5391 222.625C77.0898 222.953 76.459 223.117 75.6465 223.117C74.7988 223.117 74.125 222.982 73.625 222.713V221.752C74.332 222.096 75.0137 222.268 75.6699 222.268C76.2012 222.268 76.5879 222.182 76.8301 222.01C77.0723 221.838 77.1934 221.607 77.1934 221.318C77.1934 221.064 77.0762 220.85 76.8418 220.674C76.6113 220.498 76.1992 220.297 75.6055 220.07C75 219.836 74.5742 219.637 74.3281 219.473C74.082 219.305 73.9004 219.117 73.7832 218.91C73.6699 218.703 73.6133 218.451 73.6133 218.154C73.6133 217.627 73.8281 217.211 74.2578 216.906C74.6875 216.602 75.2773 216.449 76.0273 216.449C76.7578 216.449 77.4414 216.594 78.0781 216.883L77.7207 217.721C77.0684 217.447 76.4805 217.311 75.957 217.311C75.5195 217.311 75.1875 217.381 74.9609 217.521C74.7344 217.658 74.6211 217.848 74.6211 218.09C74.6211 218.324 74.7188 218.52 74.9141 218.676C75.1094 218.828 75.5645 219.041 76.2793 219.314C76.8145 219.514 77.209 219.699 77.4629 219.871C77.7207 220.043 77.9102 220.236 78.0312 220.451C78.1523 220.666 78.2129 220.924 78.2129 221.225ZM82.4609 219.93V218.945H85.3672V219.93H82.4609ZM93.2363 223H92.2051V217.65C92.2051 217.482 92.2051 217.303 92.2051 217.111C92.209 216.92 92.2129 216.73 92.2168 216.543C92.2246 216.352 92.2305 216.17 92.2344 215.998C92.2422 215.822 92.248 215.668 92.252 215.535C92.1855 215.605 92.127 215.666 92.0762 215.717C92.0254 215.768 91.9727 215.816 91.918 215.863C91.8672 215.91 91.8125 215.961 91.7539 216.016C91.6953 216.066 91.625 216.127 91.543 216.197L90.6758 216.906L90.1133 216.186L92.3574 214.434H93.2363V223ZM101.586 223H96.2422V222.086L98.293 219.854C98.5859 219.537 98.8477 219.248 99.0781 218.986C99.3086 218.725 99.5039 218.469 99.6641 218.219C99.8281 217.969 99.9531 217.719 100.039 217.469C100.125 217.215 100.168 216.939 100.168 216.643C100.168 216.412 100.135 216.209 100.068 216.033C100.002 215.857 99.9062 215.709 99.7812 215.588C99.6602 215.463 99.5156 215.369 99.3477 215.307C99.1797 215.244 98.9922 215.213 98.7852 215.213C98.4141 215.213 98.0781 215.289 97.7773 215.441C97.4805 215.59 97.1973 215.781 96.9277 216.016L96.3301 215.318C96.4863 215.178 96.6543 215.047 96.834 214.926C97.0137 214.801 97.207 214.693 97.4141 214.604C97.6211 214.514 97.8398 214.443 98.0703 214.393C98.3008 214.338 98.543 214.311 98.7969 214.311C99.1719 214.311 99.5098 214.363 99.8105 214.469C100.115 214.574 100.373 214.727 100.584 214.926C100.795 215.121 100.957 215.361 101.07 215.646C101.188 215.928 101.246 216.246 101.246 216.602C101.246 216.934 101.193 217.25 101.088 217.551C100.986 217.852 100.844 218.148 100.66 218.441C100.48 218.73 100.264 219.021 100.01 219.314C99.7598 219.607 99.4883 219.912 99.1953 220.229L97.5488 221.98V222.027H101.586V223ZM109.473 223.117C108.609 223.117 107.945 222.807 107.48 222.186H107.41L107.434 222.426C107.465 222.73 107.48 223.002 107.48 223.24V225.883H106.426V216.566H107.293L107.434 217.445H107.48C107.73 217.094 108.02 216.84 108.348 216.684C108.676 216.527 109.055 216.449 109.484 216.449C110.32 216.449 110.969 216.74 111.43 217.322C111.895 217.9 112.127 218.717 112.127 219.771C112.127 220.822 111.895 221.643 111.43 222.232C110.965 222.822 110.312 223.117 109.473 223.117ZM109.297 217.334C108.66 217.334 108.199 217.514 107.914 217.873C107.633 218.232 107.488 218.797 107.48 219.566V219.771C107.48 220.643 107.625 221.273 107.914 221.664C108.203 222.051 108.672 222.244 109.32 222.244C109.859 222.244 110.279 222.025 110.58 221.588C110.885 221.15 111.037 220.541 111.037 219.76C111.037 218.975 110.885 218.375 110.58 217.961C110.279 217.543 109.852 217.334 109.297 217.334ZM115.959 222.256C116.096 222.256 116.256 222.242 116.439 222.215C116.623 222.188 116.762 222.156 116.855 222.121V222.93C116.758 222.973 116.605 223.014 116.398 223.053C116.195 223.096 115.988 223.117 115.777 223.117C114.52 223.117 113.891 222.455 113.891 221.131V217.387H112.982V216.883L113.902 216.461L114.324 215.09H114.951V216.566H116.809V217.387H114.951V221.102C114.951 221.473 115.039 221.758 115.215 221.957C115.395 222.156 115.643 222.256 115.959 222.256ZM1.15625 294V276.867H4.78906V291H11.7383V294H1.15625ZM30.043 285.41C30.043 288.246 29.3398 290.426 27.9336 291.949C26.5273 293.473 24.5117 294.234 21.8867 294.234C19.2617 294.234 17.2461 293.473 15.8398 291.949C14.4336 290.426 13.7305 288.238 13.7305 285.387C13.7305 282.535 14.4336 280.359 15.8398 278.859C17.2539 277.352 19.2773 276.598 21.9102 276.598C24.543 276.598 26.5547 277.355 27.9453 278.871C29.3438 280.387 30.043 282.566 30.043 285.41ZM17.5391 285.41C17.5391 287.324 17.9023 288.766 18.6289 289.734C19.3555 290.703 20.4414 291.188 21.8867 291.188C24.7852 291.188 26.2344 289.262 26.2344 285.41C26.2344 281.551 24.793 279.621 21.9102 279.621C20.4648 279.621 19.375 280.109 18.6406 281.086C17.9062 282.055 17.5391 283.496 17.5391 285.41ZM40.0977 284.379H46.8945V293.262C45.793 293.621 44.7539 293.871 43.7773 294.012C42.8086 294.16 41.8164 294.234 40.8008 294.234C38.2148 294.234 36.2383 293.477 34.8711 291.961C33.5117 290.438 32.832 288.254 32.832 285.41C32.832 282.645 33.6211 280.488 35.1992 278.941C36.7852 277.395 38.9805 276.621 41.7852 276.621C43.543 276.621 45.2383 276.973 46.8711 277.676L45.6641 280.582C44.4141 279.957 43.1133 279.645 41.7617 279.645C40.1914 279.645 38.9336 280.172 37.9883 281.227C37.043 282.281 36.5703 283.699 36.5703 285.48C36.5703 287.34 36.9492 288.762 37.707 289.746C38.4727 290.723 39.582 291.211 41.0352 291.211C41.793 291.211 42.5625 291.133 43.3438 290.977V287.402H40.0977V284.379ZM66.5352 285.41C66.5352 288.246 65.832 290.426 64.4258 291.949C63.0195 293.473 61.0039 294.234 58.3789 294.234C55.7539 294.234 53.7383 293.473 52.332 291.949C50.9258 290.426 50.2227 288.238 50.2227 285.387C50.2227 282.535 50.9258 280.359 52.332 278.859C53.7461 277.352 55.7695 276.598 58.4023 276.598C61.0352 276.598 63.0469 277.355 64.4375 278.871C65.8359 280.387 66.5352 282.566 66.5352 285.41ZM54.0312 285.41C54.0312 287.324 54.3945 288.766 55.1211 289.734C55.8477 290.703 56.9336 291.188 58.3789 291.188C61.2773 291.188 62.7266 289.262 62.7266 285.41C62.7266 281.551 61.2852 279.621 58.4023 279.621C56.957 279.621 55.8672 280.109 55.1328 281.086C54.3984 282.055 54.0312 283.496 54.0312 285.41ZM69.7578 292.324C69.7578 291.957 69.8086 291.648 69.9102 291.398C70.0195 291.141 70.168 290.934 70.3555 290.777C70.543 290.621 70.7617 290.508 71.0117 290.438C71.2617 290.367 71.5312 290.332 71.8203 290.332C72.0938 290.332 72.3516 290.367 72.5938 290.438C72.8438 290.508 73.0625 290.621 73.25 290.777C73.4375 290.934 73.5859 291.141 73.6953 291.398C73.8047 291.648 73.8594 291.957 73.8594 292.324C73.8594 292.676 73.8047 292.977 73.6953 293.227C73.5859 293.477 73.4375 293.684 73.25 293.848C73.0625 294.012 72.8438 294.129 72.5938 294.199C72.3516 294.277 72.0938 294.316 71.8203 294.316C71.5312 294.316 71.2617 294.277 71.0117 294.199C70.7617 294.129 70.543 294.012 70.3555 293.848C70.168 293.684 70.0195 293.477 69.9102 293.227C69.8086 292.977 69.7578 292.676 69.7578 292.324ZM69.7578 282.645C69.7578 282.277 69.8086 281.969 69.9102 281.719C70.0195 281.461 70.168 281.254 70.3555 281.098C70.543 280.941 70.7617 280.828 71.0117 280.758C71.2617 280.688 71.5312 280.652 71.8203 280.652C72.0938 280.652 72.3516 280.688 72.5938 280.758C72.8438 280.828 73.0625 280.941 73.25 281.098C73.4375 281.254 73.5859 281.461 73.6953 281.719C73.8047 281.969 73.8594 282.277 73.8594 282.645C73.8594 282.996 73.8047 283.301 73.6953 283.559C73.5859 283.809 73.4375 284.016 73.25 284.18C73.0625 284.336 72.8438 284.453 72.5938 284.531C72.3516 284.602 72.0938 284.637 71.8203 284.637C71.5312 284.637 71.2617 284.602 71.0117 284.531C70.7617 284.453 70.543 284.336 70.3555 284.18C70.168 284.016 70.0195 283.809 69.9102 283.559C69.8086 283.301 69.7578 282.996 69.7578 282.645ZM99.3008 294H94.6836L87.2305 281.039H87.125C87.2734 283.328 87.3477 284.961 87.3477 285.938V294H84.1016V276.867H88.6836L96.125 289.699H96.207C96.0898 287.473 96.0312 285.898 96.0312 284.977V276.867H99.3008V294ZM106.191 287.426C106.191 288.723 106.402 289.703 106.824 290.367C107.254 291.031 107.949 291.363 108.91 291.363C109.863 291.363 110.547 291.035 110.961 290.379C111.383 289.715 111.594 288.73 111.594 287.426C111.594 286.129 111.383 285.156 110.961 284.508C110.539 283.859 109.848 283.535 108.887 283.535C107.934 283.535 107.246 283.859 106.824 284.508C106.402 285.148 106.191 286.121 106.191 287.426ZM115.25 287.426C115.25 289.559 114.688 291.227 113.562 292.43C112.438 293.633 110.871 294.234 108.863 294.234C107.605 294.234 106.496 293.961 105.535 293.414C104.574 292.859 103.836 292.066 103.32 291.035C102.805 290.004 102.547 288.801 102.547 287.426C102.547 285.285 103.105 283.621 104.223 282.434C105.34 281.246 106.91 280.652 108.934 280.652C110.191 280.652 111.301 280.926 112.262 281.473C113.223 282.02 113.961 282.805 114.477 283.828C114.992 284.852 115.25 286.051 115.25 287.426ZM123.723 291.387C124.348 291.387 125.098 291.25 125.973 290.977V293.637C125.082 294.035 123.988 294.234 122.691 294.234C121.262 294.234 120.219 293.875 119.562 293.156C118.914 292.43 118.59 291.344 118.59 289.898V283.582H116.879V282.07L118.848 280.875L119.879 278.109H122.164V280.898H125.832V283.582H122.164V289.898C122.164 290.406 122.305 290.781 122.586 291.023C122.875 291.266 123.254 291.387 123.723 291.387ZM131.48 287.426C131.48 288.723 131.691 289.703 132.113 290.367C132.543 291.031 133.238 291.363 134.199 291.363C135.152 291.363 135.836 291.035 136.25 290.379C136.672 289.715 136.883 288.73 136.883 287.426C136.883 286.129 136.672 285.156 136.25 284.508C135.828 283.859 135.137 283.535 134.176 283.535C133.223 283.535 132.535 283.859 132.113 284.508C131.691 285.148 131.48 286.121 131.48 287.426ZM140.539 287.426C140.539 289.559 139.977 291.227 138.852 292.43C137.727 293.633 136.16 294.234 134.152 294.234C132.895 294.234 131.785 293.961 130.824 293.414C129.863 292.859 129.125 292.066 128.609 291.035C128.094 290.004 127.836 288.801 127.836 287.426C127.836 285.285 128.395 283.621 129.512 282.434C130.629 281.246 132.199 280.652 134.223 280.652C135.48 280.652 136.59 280.926 137.551 281.473C138.512 282.02 139.25 282.805 139.766 283.828C140.281 284.852 140.539 286.051 140.539 287.426ZM160.121 289.242C160.121 290.789 159.562 292.008 158.445 292.898C157.336 293.789 155.789 294.234 153.805 294.234C151.977 294.234 150.359 293.891 148.953 293.203V289.828C150.109 290.344 151.086 290.707 151.883 290.918C152.688 291.129 153.422 291.234 154.086 291.234C154.883 291.234 155.492 291.082 155.914 290.777C156.344 290.473 156.559 290.02 156.559 289.418C156.559 289.082 156.465 288.785 156.277 288.527C156.09 288.262 155.812 288.008 155.445 287.766C155.086 287.523 154.348 287.137 153.23 286.605C152.184 286.113 151.398 285.641 150.875 285.188C150.352 284.734 149.934 284.207 149.621 283.605C149.309 283.004 149.152 282.301 149.152 281.496C149.152 279.98 149.664 278.789 150.688 277.922C151.719 277.055 153.141 276.621 154.953 276.621C155.844 276.621 156.691 276.727 157.496 276.938C158.309 277.148 159.156 277.445 160.039 277.828L158.867 280.652C157.953 280.277 157.195 280.016 156.594 279.867C156 279.719 155.414 279.645 154.836 279.645C154.148 279.645 153.621 279.805 153.254 280.125C152.887 280.445 152.703 280.863 152.703 281.379C152.703 281.699 152.777 281.98 152.926 282.223C153.074 282.457 153.309 282.688 153.629 282.914C153.957 283.133 154.727 283.531 155.938 284.109C157.539 284.875 158.637 285.645 159.23 286.418C159.824 287.184 160.121 288.125 160.121 289.242ZM171.266 294L170.574 292.219H170.48C169.879 292.977 169.258 293.504 168.617 293.801C167.984 294.09 167.156 294.234 166.133 294.234C164.875 294.234 163.883 293.875 163.156 293.156C162.438 292.438 162.078 291.414 162.078 290.086C162.078 288.695 162.562 287.672 163.531 287.016C164.508 286.352 165.977 285.984 167.938 285.914L170.211 285.844V285.27C170.211 283.941 169.531 283.277 168.172 283.277C167.125 283.277 165.895 283.594 164.48 284.227L163.297 281.812C164.805 281.023 166.477 280.629 168.312 280.629C170.07 280.629 171.418 281.012 172.355 281.777C173.293 282.543 173.762 283.707 173.762 285.27V294H171.266ZM170.211 287.93L168.828 287.977C167.789 288.008 167.016 288.195 166.508 288.539C166 288.883 165.746 289.406 165.746 290.109C165.746 291.117 166.324 291.621 167.48 291.621C168.309 291.621 168.969 291.383 169.461 290.906C169.961 290.43 170.211 289.797 170.211 289.008V287.93ZM189.547 294H185.973V286.348C185.973 285.402 185.805 284.695 185.469 284.227C185.133 283.75 184.598 283.512 183.863 283.512C182.863 283.512 182.141 283.848 181.695 284.52C181.25 285.184 181.027 286.289 181.027 287.836V294H177.453V280.898H180.184L180.664 282.574H180.863C181.262 281.941 181.809 281.465 182.504 281.145C183.207 280.816 184.004 280.652 184.895 280.652C186.418 280.652 187.574 281.066 188.363 281.895C189.152 282.715 189.547 283.902 189.547 285.457V294ZM202.367 290.109C202.367 291.453 201.898 292.477 200.961 293.18C200.031 293.883 198.637 294.234 196.777 294.234C195.824 294.234 195.012 294.168 194.34 294.035C193.668 293.91 193.039 293.723 192.453 293.473V290.52C193.117 290.832 193.863 291.094 194.691 291.305C195.527 291.516 196.262 291.621 196.895 291.621C198.191 291.621 198.84 291.246 198.84 290.496C198.84 290.215 198.754 289.988 198.582 289.816C198.41 289.637 198.113 289.438 197.691 289.219C197.27 288.992 196.707 288.73 196.004 288.434C194.996 288.012 194.254 287.621 193.777 287.262C193.309 286.902 192.965 286.492 192.746 286.031C192.535 285.562 192.43 284.988 192.43 284.309C192.43 283.145 192.879 282.246 193.777 281.613C194.684 280.973 195.965 280.652 197.621 280.652C199.199 280.652 200.734 280.996 202.227 281.684L201.148 284.262C200.492 283.98 199.879 283.75 199.309 283.57C198.738 283.391 198.156 283.301 197.562 283.301C196.508 283.301 195.98 283.586 195.98 284.156C195.98 284.477 196.148 284.754 196.484 284.988C196.828 285.223 197.574 285.57 198.723 286.031C199.746 286.445 200.496 286.832 200.973 287.191C201.449 287.551 201.801 287.965 202.027 288.434C202.254 288.902 202.367 289.461 202.367 290.109ZM210.758 288.328V285.398H217.051V288.328H210.758ZM226.695 276.867H232.027C234.457 276.867 236.219 277.215 237.312 277.91C238.414 278.598 238.965 279.695 238.965 281.203C238.965 282.227 238.723 283.066 238.238 283.723C237.762 284.379 237.125 284.773 236.328 284.906V285.023C237.414 285.266 238.195 285.719 238.672 286.383C239.156 287.047 239.398 287.93 239.398 289.031C239.398 290.594 238.832 291.812 237.699 292.688C236.574 293.562 235.043 294 233.105 294H226.695V276.867ZM230.328 283.652H232.438C233.422 283.652 234.133 283.5 234.57 283.195C235.016 282.891 235.238 282.387 235.238 281.684C235.238 281.027 234.996 280.559 234.512 280.277C234.035 279.988 233.277 279.844 232.238 279.844H230.328V283.652ZM230.328 286.535V291H232.695C233.695 291 234.434 290.809 234.91 290.426C235.387 290.043 235.625 289.457 235.625 288.668C235.625 287.246 234.609 286.535 232.578 286.535H230.328ZM245.387 287.426C245.387 288.723 245.598 289.703 246.02 290.367C246.449 291.031 247.145 291.363 248.105 291.363C249.059 291.363 249.742 291.035 250.156 290.379C250.578 289.715 250.789 288.73 250.789 287.426C250.789 286.129 250.578 285.156 250.156 284.508C249.734 283.859 249.043 283.535 248.082 283.535C247.129 283.535 246.441 283.859 246.02 284.508C245.598 285.148 245.387 286.121 245.387 287.426ZM254.445 287.426C254.445 289.559 253.883 291.227 252.758 292.43C251.633 293.633 250.066 294.234 248.059 294.234C246.801 294.234 245.691 293.961 244.73 293.414C243.77 292.859 243.031 292.066 242.516 291.035C242 290.004 241.742 288.801 241.742 287.426C241.742 285.285 242.301 283.621 243.418 282.434C244.535 281.246 246.105 280.652 248.129 280.652C249.387 280.652 250.496 280.926 251.457 281.473C252.418 282.02 253.156 282.805 253.672 283.828C254.188 284.852 254.445 286.051 254.445 287.426ZM260.973 294H257.398V275.766H260.973V294ZM268.883 294.234C267.344 294.234 266.133 293.637 265.25 292.441C264.375 291.246 263.938 289.59 263.938 287.473C263.938 285.324 264.383 283.652 265.273 282.457C266.172 281.254 267.406 280.652 268.977 280.652C270.625 280.652 271.883 281.293 272.75 282.574H272.867C272.688 281.598 272.598 280.727 272.598 279.961V275.766H276.184V294H273.441L272.75 292.301H272.598C271.785 293.59 270.547 294.234 268.883 294.234ZM270.137 291.387C271.051 291.387 271.719 291.121 272.141 290.59C272.57 290.059 272.805 289.156 272.844 287.883V287.496C272.844 286.09 272.625 285.082 272.188 284.473C271.758 283.863 271.055 283.559 270.078 283.559C269.281 283.559 268.66 283.898 268.215 284.578C267.777 285.25 267.559 286.23 267.559 287.52C267.559 288.809 267.781 289.777 268.227 290.426C268.672 291.066 269.309 291.387 270.137 291.387ZM296.738 294H285.242V291.48L289.273 287.133C289.781 286.586 290.242 286.082 290.656 285.621C291.07 285.16 291.426 284.711 291.723 284.273C292.02 283.836 292.25 283.391 292.414 282.938C292.578 282.484 292.66 281.996 292.66 281.473C292.66 280.895 292.484 280.445 292.133 280.125C291.789 279.805 291.324 279.645 290.738 279.645C290.121 279.645 289.527 279.797 288.957 280.102C288.387 280.406 287.789 280.84 287.164 281.402L285.195 279.07C285.547 278.75 285.914 278.445 286.297 278.156C286.68 277.859 287.102 277.598 287.562 277.371C288.023 277.145 288.531 276.965 289.086 276.832C289.641 276.691 290.262 276.621 290.949 276.621C291.77 276.621 292.504 276.734 293.152 276.961C293.809 277.188 294.367 277.512 294.828 277.934C295.289 278.348 295.641 278.852 295.883 279.445C296.133 280.039 296.258 280.707 296.258 281.449C296.258 282.121 296.141 282.766 295.906 283.383C295.672 283.992 295.352 284.594 294.945 285.188C294.539 285.773 294.066 286.359 293.527 286.945C292.996 287.523 292.426 288.113 291.816 288.715L289.754 290.789V290.953H296.738V294ZM310.215 290.449H308.152V294H304.625V290.449H297.547V287.93L304.824 276.867H308.152V287.637H310.215V290.449ZM304.625 287.637V284.73C304.625 284.629 304.625 284.484 304.625 284.297C304.633 284.102 304.641 283.883 304.648 283.641C304.656 283.398 304.664 283.148 304.672 282.891C304.688 282.633 304.699 282.387 304.707 282.152C304.723 281.918 304.734 281.715 304.742 281.543C304.758 281.363 304.77 281.234 304.777 281.156H304.672C304.531 281.484 304.371 281.832 304.191 282.199C304.02 282.566 303.82 282.934 303.594 283.301L300.734 287.637H304.625ZM319.789 294.234C318.25 294.234 317.043 293.676 316.168 292.559H315.98C316.105 293.652 316.168 294.285 316.168 294.457V299.766H312.594V280.898H315.5L316.004 282.598H316.168C317.004 281.301 318.242 280.652 319.883 280.652C321.43 280.652 322.641 281.25 323.516 282.445C324.391 283.641 324.828 285.301 324.828 287.426C324.828 288.824 324.621 290.039 324.207 291.07C323.801 292.102 323.219 292.887 322.461 293.426C321.703 293.965 320.812 294.234 319.789 294.234ZM318.734 283.512C317.852 283.512 317.207 283.785 316.801 284.332C316.395 284.871 316.184 285.766 316.168 287.016V287.402C316.168 288.809 316.375 289.816 316.789 290.426C317.211 291.035 317.875 291.34 318.781 291.34C320.383 291.34 321.184 290.02 321.184 287.379C321.184 286.09 320.984 285.125 320.586 284.484C320.195 283.836 319.578 283.512 318.734 283.512ZM333.301 291.387C333.926 291.387 334.676 291.25 335.551 290.977V293.637C334.66 294.035 333.566 294.234 332.27 294.234C330.84 294.234 329.797 293.875 329.141 293.156C328.492 292.43 328.168 291.344 328.168 289.898V283.582H326.457V282.07L328.426 280.875L329.457 278.109H331.742V280.898H335.41V283.582H331.742V289.898C331.742 290.406 331.883 290.781 332.164 291.023C332.453 291.266 332.832 291.387 333.301 291.387Z" fill="black"/>
</svg>
