<svg width="275" height="161" viewBox="0 0 275 161" fill="none" xmlns="http://www.w3.org/2000/svg">
<ellipse rx="80" ry="79.9259" transform="matrix(-1 0 0 1 80.1108 80.8006)" fill="#C28080"/>
<path d="M80.1108 160.726C35.9281 160.726 0.11084 124.942 0.11084 80.8005H160.111C160.111 124.942 124.294 160.726 80.1108 160.726Z" fill="#C28080"/>
<path d="M80.1109 80.3565L80.6133 160.726C69.7494 160.779 59.1738 158.748 49.7107 154.874L80.1109 80.3565Z" fill="#F7CECE"/>
<path d="M160.111 80.8005C160.111 124.942 124.294 160.726 80.1108 160.726V80.8005H160.111Z" fill="#9A5B5B"/>
<ellipse cx="80.5108" cy="81.4742" rx="60.4" ry="58.7996" fill="#F6FEFF"/>
<path d="M205.739 80.007C206.243 80.007 206.691 80.123 207.083 80.355C207.483 80.587 207.795 80.911 208.019 81.327C208.243 81.743 208.355 82.219 208.355 82.755C208.355 83.299 208.231 83.787 207.983 84.219C207.743 84.651 207.403 84.991 206.963 85.239C206.531 85.479 206.039 85.599 205.487 85.599C204.407 85.599 203.575 85.235 202.991 84.507C202.407 83.771 202.115 82.727 202.115 81.375C202.115 80.431 202.251 79.619 202.523 78.939C202.803 78.259 203.203 77.739 203.723 77.379C204.251 77.019 204.875 76.839 205.595 76.839C206.107 76.839 206.603 76.927 207.083 77.103C207.571 77.271 207.995 77.515 208.355 77.835L207.827 78.963C207.075 78.371 206.351 78.075 205.655 78.075C205.023 78.075 204.535 78.343 204.191 78.879C203.847 79.415 203.667 80.183 203.651 81.183C203.835 80.823 204.115 80.539 204.491 80.331C204.867 80.115 205.283 80.007 205.739 80.007ZM205.415 84.375C205.855 84.375 206.207 84.231 206.471 83.943C206.743 83.655 206.879 83.275 206.879 82.803C206.879 82.331 206.743 81.955 206.471 81.675C206.207 81.387 205.851 81.243 205.403 81.243C204.955 81.243 204.591 81.387 204.311 81.675C204.031 81.963 203.891 82.339 203.891 82.803C203.891 83.267 204.031 83.647 204.311 83.943C204.599 84.231 204.967 84.375 205.415 84.375ZM212.13 76.839C213.21 76.839 214.042 77.207 214.626 77.943C215.218 78.671 215.514 79.711 215.514 81.063C215.514 82.007 215.374 82.819 215.094 83.499C214.814 84.179 214.41 84.699 213.882 85.059C213.362 85.419 212.742 85.599 212.022 85.599C211.51 85.599 211.01 85.515 210.522 85.347C210.042 85.171 209.626 84.923 209.274 84.603L209.79 83.475C210.55 84.067 211.274 84.363 211.962 84.363C212.594 84.363 213.082 84.095 213.426 83.559C213.778 83.015 213.962 82.239 213.978 81.231C213.794 81.599 213.514 81.891 213.138 82.107C212.77 82.323 212.35 82.431 211.878 82.431C211.374 82.431 210.922 82.315 210.522 82.083C210.13 81.851 209.822 81.527 209.598 81.111C209.374 80.695 209.262 80.219 209.262 79.683C209.262 79.139 209.382 78.651 209.622 78.219C209.87 77.787 210.21 77.451 210.642 77.211C211.082 76.963 211.578 76.839 212.13 76.839ZM212.214 81.195C212.662 81.195 213.026 81.051 213.306 80.763C213.586 80.475 213.726 80.099 213.726 79.635C213.726 79.171 213.586 78.795 213.306 78.507C213.026 78.211 212.662 78.063 212.214 78.063C211.766 78.063 211.406 78.207 211.134 78.495C210.87 78.783 210.738 79.163 210.738 79.635C210.738 80.107 210.87 80.487 211.134 80.775C211.406 81.055 211.766 81.195 212.214 81.195ZM218.677 82.047C218.005 82.047 217.477 81.827 217.093 81.387C216.717 80.939 216.529 80.287 216.529 79.431C216.529 78.583 216.717 77.939 217.093 77.499C217.477 77.051 218.005 76.827 218.677 76.827C219.357 76.827 219.889 77.051 220.273 77.499C220.657 77.939 220.849 78.583 220.849 79.431C220.849 80.287 220.657 80.939 220.273 81.387C219.889 81.827 219.357 82.047 218.677 82.047ZM218.593 85.491L223.537 76.947H224.869L219.913 85.491H218.593ZM218.677 81.075C218.989 81.075 219.217 80.947 219.361 80.691C219.505 80.435 219.577 80.015 219.577 79.431C219.577 78.863 219.501 78.451 219.349 78.195C219.205 77.931 218.981 77.799 218.677 77.799C218.381 77.799 218.161 77.931 218.017 78.195C217.873 78.451 217.801 78.863 217.801 79.431C217.801 80.007 217.873 80.427 218.017 80.691C218.161 80.947 218.381 81.075 218.677 81.075ZM224.773 85.575C224.093 85.575 223.561 85.355 223.177 84.915C222.801 84.467 222.613 83.811 222.613 82.947C222.613 82.099 222.801 81.455 223.177 81.015C223.561 80.575 224.093 80.355 224.773 80.355C225.453 80.355 225.981 80.575 226.357 81.015C226.741 81.455 226.933 82.103 226.933 82.959C226.933 83.815 226.741 84.467 226.357 84.915C225.981 85.355 225.453 85.575 224.773 85.575ZM224.773 84.603C225.077 84.603 225.301 84.475 225.445 84.219C225.589 83.955 225.661 83.535 225.661 82.959C225.661 82.391 225.585 81.979 225.433 81.723C225.289 81.459 225.069 81.327 224.773 81.327C224.469 81.327 224.245 81.459 224.101 81.723C223.957 81.979 223.885 82.391 223.885 82.959C223.885 83.535 223.957 83.955 224.101 84.219C224.245 84.475 224.469 84.603 224.773 84.603ZM240.007 76.947V85.491H238.639V80.187L236.371 85.491H235.351L233.071 80.247V85.491H231.703V76.947H232.927L235.867 83.631L238.783 76.947H240.007ZM247.563 79.431V85.491H246.087V84.519C245.903 84.855 245.639 85.119 245.295 85.311C244.951 85.495 244.559 85.587 244.119 85.587C243.591 85.587 243.123 85.459 242.715 85.203C242.307 84.947 241.991 84.583 241.767 84.111C241.543 83.639 241.431 83.091 241.431 82.467C241.431 81.843 241.543 81.291 241.767 80.811C241.999 80.323 242.319 79.947 242.727 79.683C243.135 79.411 243.599 79.275 244.119 79.275C244.559 79.275 244.951 79.371 245.295 79.563C245.639 79.747 245.903 80.007 246.087 80.343V79.431H247.563ZM244.527 84.411C245.023 84.411 245.407 84.239 245.679 83.895C245.951 83.551 246.087 83.067 246.087 82.443C246.087 81.803 245.951 81.311 245.679 80.967C245.407 80.623 245.019 80.451 244.515 80.451C244.019 80.451 243.631 80.631 243.351 80.991C243.079 81.343 242.943 81.835 242.943 82.467C242.943 83.091 243.079 83.571 243.351 83.907C243.631 84.243 244.023 84.411 244.527 84.411ZM254.932 79.431L252.112 85.899C251.792 86.651 251.384 87.199 250.888 87.543C250.392 87.887 249.78 88.115 249.052 88.227L248.716 87.075C249.284 86.947 249.708 86.783 249.988 86.583C250.276 86.391 250.508 86.103 250.684 85.719L250.876 85.275L248.356 79.431H249.928L251.668 83.787L253.444 79.431H254.932ZM259.168 79.275C259.696 79.275 260.16 79.407 260.56 79.671C260.968 79.927 261.284 80.291 261.508 80.763C261.732 81.235 261.844 81.783 261.844 82.407C261.844 83.031 261.728 83.587 261.496 84.075C261.272 84.555 260.956 84.927 260.548 85.191C260.148 85.455 259.688 85.587 259.168 85.587C258.72 85.587 258.32 85.491 257.968 85.299C257.624 85.107 257.364 84.839 257.188 84.495V85.491H255.712V76.659H257.2V80.343C257.384 80.007 257.648 79.747 257.992 79.563C258.336 79.371 258.728 79.275 259.168 79.275ZM258.772 84.411C259.268 84.411 259.652 84.235 259.924 83.883C260.196 83.531 260.332 83.039 260.332 82.407C260.332 81.783 260.196 81.303 259.924 80.967C259.652 80.623 259.264 80.451 258.76 80.451C258.256 80.451 257.868 80.623 257.596 80.967C257.324 81.311 257.188 81.799 257.188 82.431C257.188 83.071 257.324 83.563 257.596 83.907C257.868 84.243 258.26 84.411 258.772 84.411ZM268.457 82.539H264.281C264.313 83.187 264.473 83.667 264.761 83.979C265.057 84.283 265.493 84.435 266.069 84.435C266.733 84.435 267.349 84.219 267.917 83.787L268.349 84.819C268.061 85.051 267.705 85.239 267.281 85.383C266.865 85.519 266.441 85.587 266.009 85.587C265.017 85.587 264.237 85.307 263.669 84.747C263.101 84.187 262.817 83.419 262.817 82.443C262.817 81.827 262.941 81.279 263.189 80.799C263.437 80.319 263.785 79.947 264.233 79.683C264.681 79.411 265.189 79.275 265.757 79.275C266.589 79.275 267.245 79.547 267.725 80.091C268.213 80.627 268.457 81.367 268.457 82.311V82.539ZM265.793 80.355C265.393 80.355 265.065 80.475 264.809 80.715C264.561 80.947 264.401 81.287 264.329 81.735H267.149C267.101 81.279 266.961 80.935 266.729 80.703C266.505 80.471 266.193 80.355 265.793 80.355Z" fill="black"/>
<path d="M207.732 55.3854V56.6454H201.996V55.5054L204.9 52.3734C205.244 51.9974 205.496 51.6534 205.656 51.3414C205.816 51.0294 205.896 50.7214 205.896 50.4174C205.896 50.0254 205.78 49.7294 205.548 49.5294C205.324 49.3294 205 49.2294 204.576 49.2294C203.824 49.2294 203.052 49.5254 202.26 50.1174L201.744 48.9894C202.08 48.6854 202.512 48.4454 203.04 48.2694C203.568 48.0854 204.1 47.9934 204.636 47.9934C205.492 47.9934 206.168 48.2054 206.664 48.6294C207.168 49.0454 207.42 49.6094 207.42 50.3214C207.42 50.8094 207.312 51.2694 207.096 51.7014C206.888 52.1334 206.536 52.6174 206.04 53.1534L203.94 55.3854H207.732ZM212.407 51.1854C212.943 51.1854 213.415 51.3014 213.823 51.5334C214.231 51.7574 214.547 52.0774 214.771 52.4934C214.995 52.9014 215.107 53.3734 215.107 53.9094C215.107 54.4694 214.979 54.9654 214.723 55.3974C214.467 55.8214 214.099 56.1534 213.619 56.3934C213.139 56.6254 212.583 56.7414 211.951 56.7414C211.415 56.7414 210.887 56.6534 210.367 56.4774C209.847 56.2934 209.419 56.0494 209.083 55.7454L209.599 54.6174C210.375 55.2094 211.167 55.5054 211.975 55.5054C212.511 55.5054 212.919 55.3734 213.199 55.1094C213.487 54.8374 213.631 54.4534 213.631 53.9574C213.631 53.4854 213.483 53.1094 213.187 52.8294C212.899 52.5414 212.511 52.3974 212.023 52.3974C211.687 52.3974 211.371 52.4614 211.075 52.5894C210.779 52.7094 210.519 52.8894 210.295 53.1294H209.359V48.1014H214.711V49.3014H210.871V51.6294C211.303 51.3334 211.815 51.1854 212.407 51.1854ZM218.222 53.2014C217.55 53.2014 217.022 52.9814 216.638 52.5414C216.262 52.0934 216.074 51.4414 216.074 50.5854C216.074 49.7374 216.262 49.0934 216.638 48.6534C217.022 48.2054 217.55 47.9814 218.222 47.9814C218.902 47.9814 219.434 48.2054 219.818 48.6534C220.202 49.0934 220.394 49.7374 220.394 50.5854C220.394 51.4414 220.202 52.0934 219.818 52.5414C219.434 52.9814 218.902 53.2014 218.222 53.2014ZM218.138 56.6454L223.082 48.1014H224.414L219.458 56.6454H218.138ZM218.222 52.2294C218.534 52.2294 218.762 52.1014 218.906 51.8454C219.05 51.5894 219.122 51.1694 219.122 50.5854C219.122 50.0174 219.046 49.6054 218.894 49.3494C218.75 49.0854 218.526 48.9534 218.222 48.9534C217.926 48.9534 217.706 49.0854 217.562 49.3494C217.418 49.6054 217.346 50.0174 217.346 50.5854C217.346 51.1614 217.418 51.5814 217.562 51.8454C217.706 52.1014 217.926 52.2294 218.222 52.2294ZM224.318 56.7294C223.638 56.7294 223.106 56.5094 222.722 56.0694C222.346 55.6214 222.158 54.9654 222.158 54.1014C222.158 53.2534 222.346 52.6094 222.722 52.1694C223.106 51.7294 223.638 51.5094 224.318 51.5094C224.998 51.5094 225.526 51.7294 225.902 52.1694C226.286 52.6094 226.478 53.2574 226.478 54.1134C226.478 54.9694 226.286 55.6214 225.902 56.0694C225.526 56.5094 224.998 56.7294 224.318 56.7294ZM224.318 55.7574C224.622 55.7574 224.846 55.6294 224.99 55.3734C225.134 55.1094 225.206 54.6894 225.206 54.1134C225.206 53.5454 225.13 53.1334 224.978 52.8774C224.834 52.6134 224.614 52.4814 224.318 52.4814C224.014 52.4814 223.79 52.6134 223.646 52.8774C223.502 53.1334 223.43 53.5454 223.43 54.1134C223.43 54.6894 223.502 55.1094 223.646 55.3734C223.79 55.6294 224.014 55.7574 224.318 55.7574ZM234.848 53.2614V56.6454H233.3V53.2614L229.832 48.1014H231.596L234.068 51.9654L236.552 48.1014H238.316L234.848 53.2614ZM243.018 53.6934H238.842C238.874 54.3414 239.034 54.8214 239.322 55.1334C239.618 55.4374 240.054 55.5894 240.63 55.5894C241.294 55.5894 241.91 55.3734 242.478 54.9414L242.91 55.9734C242.622 56.2054 242.266 56.3934 241.842 56.5374C241.426 56.6734 241.002 56.7414 240.57 56.7414C239.578 56.7414 238.798 56.4614 238.23 55.9014C237.662 55.3414 237.378 54.5734 237.378 53.5974C237.378 52.9814 237.502 52.4334 237.75 51.9534C237.998 51.4734 238.346 51.1014 238.794 50.8374C239.242 50.5654 239.75 50.4294 240.318 50.4294C241.15 50.4294 241.806 50.7014 242.286 51.2454C242.774 51.7814 243.018 52.5214 243.018 53.4654V53.6934ZM240.354 51.5094C239.954 51.5094 239.626 51.6294 239.37 51.8694C239.122 52.1014 238.962 52.4414 238.89 52.8894H241.71C241.662 52.4334 241.522 52.0894 241.29 51.8574C241.066 51.6254 240.754 51.5094 240.354 51.5094ZM246.508 56.7414C245.412 56.7414 244.54 56.4854 243.892 55.9734L244.312 54.9174C244.96 55.3974 245.7 55.6374 246.532 55.6374C246.892 55.6374 247.168 55.5774 247.36 55.4574C247.56 55.3374 247.66 55.1694 247.66 54.9534C247.66 54.7694 247.592 54.6254 247.456 54.5214C247.32 54.4094 247.088 54.3134 246.76 54.2334L245.752 54.0054C244.648 53.7654 244.096 53.2014 244.096 52.3134C244.096 51.9454 244.2 51.6214 244.408 51.3414C244.616 51.0534 244.908 50.8294 245.284 50.6694C245.66 50.5094 246.096 50.4294 246.592 50.4294C247.024 50.4294 247.44 50.4974 247.84 50.6334C248.24 50.7614 248.592 50.9494 248.896 51.1974L248.452 52.2174C247.844 51.7694 247.22 51.5454 246.58 51.5454C246.236 51.5454 245.968 51.6094 245.776 51.7374C245.584 51.8654 245.488 52.0414 245.488 52.2654C245.488 52.4414 245.544 52.5814 245.656 52.6854C245.776 52.7894 245.976 52.8774 246.256 52.9494L247.288 53.1774C247.888 53.3134 248.324 53.5254 248.596 53.8134C248.876 54.0934 249.016 54.4614 249.016 54.9174C249.016 55.4774 248.792 55.9214 248.344 56.2494C247.896 56.5774 247.284 56.7414 246.508 56.7414Z" fill="black"/>
<path d="M204.688 110.287C205.192 110.287 205.64 110.403 206.032 110.635C206.432 110.867 206.744 111.191 206.968 111.607C207.192 112.023 207.304 112.499 207.304 113.035C207.304 113.579 207.18 114.067 206.932 114.499C206.692 114.931 206.352 115.271 205.912 115.519C205.48 115.759 204.988 115.879 204.436 115.879C203.356 115.879 202.524 115.515 201.94 114.787C201.356 114.051 201.064 113.007 201.064 111.655C201.064 110.711 201.2 109.899 201.472 109.219C201.752 108.539 202.152 108.019 202.672 107.659C203.2 107.299 203.824 107.119 204.544 107.119C205.056 107.119 205.552 107.207 206.032 107.383C206.52 107.551 206.944 107.795 207.304 108.115L206.776 109.243C206.024 108.651 205.3 108.355 204.604 108.355C203.972 108.355 203.484 108.623 203.14 109.159C202.796 109.695 202.616 110.463 202.6 111.463C202.784 111.103 203.064 110.819 203.44 110.611C203.816 110.395 204.232 110.287 204.688 110.287ZM204.364 114.655C204.804 114.655 205.156 114.511 205.42 114.223C205.692 113.935 205.828 113.555 205.828 113.083C205.828 112.611 205.692 112.235 205.42 111.955C205.156 111.667 204.8 111.523 204.352 111.523C203.904 111.523 203.54 111.667 203.26 111.955C202.98 112.243 202.84 112.619 202.84 113.083C202.84 113.547 202.98 113.927 203.26 114.223C203.548 114.511 203.916 114.655 204.364 114.655ZM210.431 112.327C209.759 112.327 209.231 112.107 208.847 111.667C208.471 111.219 208.283 110.567 208.283 109.711C208.283 108.863 208.471 108.219 208.847 107.779C209.231 107.331 209.759 107.107 210.431 107.107C211.111 107.107 211.643 107.331 212.027 107.779C212.411 108.219 212.603 108.863 212.603 109.711C212.603 110.567 212.411 111.219 212.027 111.667C211.643 112.107 211.111 112.327 210.431 112.327ZM210.347 115.771L215.291 107.227H216.623L211.667 115.771H210.347ZM210.431 111.355C210.743 111.355 210.971 111.227 211.115 110.971C211.259 110.715 211.331 110.295 211.331 109.711C211.331 109.143 211.255 108.731 211.103 108.475C210.959 108.211 210.735 108.079 210.431 108.079C210.135 108.079 209.915 108.211 209.771 108.475C209.627 108.731 209.555 109.143 209.555 109.711C209.555 110.287 209.627 110.707 209.771 110.971C209.915 111.227 210.135 111.355 210.431 111.355ZM216.527 115.855C215.847 115.855 215.315 115.635 214.931 115.195C214.555 114.747 214.367 114.091 214.367 113.227C214.367 112.379 214.555 111.735 214.931 111.295C215.315 110.855 215.847 110.635 216.527 110.635C217.207 110.635 217.735 110.855 218.111 111.295C218.495 111.735 218.687 112.383 218.687 113.239C218.687 114.095 218.495 114.747 218.111 115.195C217.735 115.635 217.207 115.855 216.527 115.855ZM216.527 114.883C216.831 114.883 217.055 114.755 217.199 114.499C217.343 114.235 217.415 113.815 217.415 113.239C217.415 112.671 217.339 112.259 217.187 112.003C217.043 111.739 216.823 111.607 216.527 111.607C216.223 111.607 215.999 111.739 215.855 112.003C215.711 112.259 215.639 112.671 215.639 113.239C215.639 113.815 215.711 114.235 215.855 114.499C215.999 114.755 216.223 114.883 216.527 114.883ZM230.633 107.227V115.771H229.481L224.873 109.783V115.771H223.433V107.227H224.585L229.181 113.203V107.227H230.633ZM235.132 115.867C234.516 115.867 233.972 115.739 233.5 115.483C233.036 115.227 232.676 114.863 232.42 114.391C232.172 113.911 232.048 113.351 232.048 112.711C232.048 112.071 232.172 111.515 232.42 111.043C232.676 110.563 233.036 110.195 233.5 109.939C233.972 109.683 234.516 109.555 235.132 109.555C235.74 109.555 236.276 109.683 236.74 109.939C237.204 110.195 237.56 110.563 237.808 111.043C238.064 111.515 238.192 112.071 238.192 112.711C238.192 113.351 238.064 113.911 237.808 114.391C237.56 114.863 237.204 115.227 236.74 115.483C236.276 115.739 235.74 115.867 235.132 115.867ZM235.12 114.691C235.632 114.691 236.02 114.527 236.284 114.199C236.556 113.863 236.692 113.367 236.692 112.711C236.692 112.063 236.556 111.571 236.284 111.235C236.012 110.891 235.628 110.719 235.132 110.719C234.628 110.719 234.24 110.891 233.968 111.235C233.696 111.571 233.56 112.063 233.56 112.711C233.56 113.367 233.692 113.863 233.956 114.199C234.228 114.527 234.616 114.691 235.12 114.691Z" fill="black"/>
<rect x="175.111" y="43" width="17.9616" height="14.7734" fill="#9A5B5B"/>
<rect x="175.111" y="73.3867" width="17.9616" height="14.7734" fill="#C28080"/>
<rect width="17.9616" height="16.1654" transform="matrix(1 0 0 -1 175.111 120.691)" fill="#F6CECE"/>
</svg>
