<svg width="222" height="250" viewBox="0 0 222 250" fill="none" xmlns="http://www.w3.org/2000/svg">
<rect width="230.402" height="18.7044" transform="matrix(-0.00190035 -0.999998 0.999999 -0.00103607 20.4377 249.421)" fill="#9A5B5B"/>
<rect width="230.402" height="18.7044" transform="matrix(-0.00195912 -0.999998 1 -0.00100499 60.4514 249.42)" fill="#9A5B5B"/>
<rect width="166.328" height="18.7044" transform="matrix(-0.00190035 -0.999998 0.999999 -0.00103607 101.316 249.347)" fill="#C28080"/>
<rect width="166.328" height="18.7044" transform="matrix(-0.00196107 -0.999998 1 -0.00100399 141.326 249.346)" fill="#C28080"/>
<rect width="101.994" height="18.7044" transform="matrix(-0.00190035 -0.999998 0.999999 -0.00103607 182.194 249.309)" fill="#F6CECE"/>
<path d="M33.3024 227.584C33.3041 228.76 33.0053 229.653 32.4062 230.261C31.799 230.862 30.9114 231.164 29.7434 231.165L24.6555 231.172L24.6533 229.648L29.8253 229.641C30.5613 229.64 31.1211 229.467 31.5046 229.123C31.8801 228.778 32.0674 228.266 32.0664 227.586C32.0655 226.922 31.8728 226.418 31.4883 226.075C31.1038 225.723 30.5476 225.548 29.8196 225.549L24.6476 225.556L24.6454 224.032L29.7334 224.025C30.8934 224.024 31.7779 224.326 32.3867 224.934C32.9956 225.541 33.3008 226.424 33.3024 227.584ZM26.9662 218.89C26.9655 218.37 27.1008 217.91 27.3723 217.51C27.6357 217.101 28.0113 216.785 28.499 216.56C28.9786 216.327 29.5305 216.211 30.1545 216.21C30.7785 216.209 31.3266 216.32 31.7989 216.544C32.2712 216.767 32.6357 217.082 32.8923 217.49C33.1488 217.89 33.2775 218.353 33.2782 218.881C33.2788 219.321 33.1874 219.714 33.0039 220.058C32.8123 220.402 32.5487 220.666 32.213 220.851L35.777 220.846L35.7791 222.334L28.8431 222.344C28.2031 222.345 27.6311 222.377 27.1272 222.442L27.1252 221.038L28.1691 220.917C27.7928 220.757 27.5005 220.498 27.292 220.138C27.0755 219.778 26.9669 219.362 26.9662 218.89ZM32.1028 219.291C32.1021 218.787 31.9335 218.399 31.5972 218.128C31.2608 217.856 30.7806 217.721 30.1566 217.722C29.5246 217.723 29.0328 217.859 28.6812 218.132C28.3215 218.404 28.1421 218.789 28.1428 219.285C28.1435 219.797 28.316 220.188 28.6604 220.46C29.0048 220.731 29.497 220.867 30.137 220.866C30.769 220.865 31.2568 220.728 31.6004 220.456C31.936 220.183 32.1035 219.795 32.1028 219.291ZM24.3446 214.909L24.3425 213.421L33.1745 213.408L33.1766 214.896L24.3446 214.909ZM33.2644 209.019C33.2652 209.635 33.138 210.179 32.8827 210.652C32.6273 211.116 32.2638 211.477 31.7922 211.733C31.3125 211.982 30.7527 212.107 30.1127 212.108C29.4727 212.108 28.9165 211.985 28.4442 211.738C27.9638 211.483 27.5953 211.123 27.3387 210.659C27.082 210.188 26.9532 209.644 26.9524 209.028C26.9515 208.42 27.0788 207.884 27.3341 207.419C27.5895 206.955 27.957 206.599 28.4366 206.35C28.9083 206.093 29.4641 205.964 30.1041 205.964C30.7441 205.963 31.3043 206.09 31.7846 206.345C32.257 206.593 32.6215 206.948 32.8781 207.412C33.1348 207.875 33.2635 208.411 33.2644 209.019ZM32.0884 209.033C32.0877 208.521 31.9231 208.133 31.5948 207.869C31.2584 207.598 30.7622 207.463 30.1062 207.464C29.4582 207.464 28.9664 207.601 28.6308 207.874C28.2871 208.146 28.1157 208.53 28.1164 209.026C28.1171 209.53 28.2896 209.918 28.634 210.19C28.9704 210.461 29.4626 210.596 30.1106 210.596C30.7666 210.595 31.2624 210.462 31.598 210.197C31.9256 209.925 32.0891 209.537 32.0884 209.033ZM27.0941 198.878L33.1541 198.87L33.1562 200.346L32.1842 200.347C32.5205 200.531 32.7848 200.794 32.9773 201.138C33.1618 201.482 33.2543 201.874 33.255 202.314C33.2557 202.842 33.1284 203.31 32.8729 203.718C32.6175 204.126 32.254 204.443 31.7823 204.668C31.3106 204.892 30.7627 205.005 30.1387 205.006C29.5147 205.007 28.9626 204.896 28.4823 204.672C27.9939 204.441 27.6175 204.122 27.3529 203.714C27.0804 203.306 26.9437 202.842 26.943 202.322C26.9424 201.882 27.0378 201.49 27.2293 201.146C27.4128 200.802 27.6725 200.537 28.0082 200.353L27.0962 200.354L27.0941 198.878ZM32.0784 201.907C32.0777 201.411 31.9052 201.027 31.5608 200.756C31.2164 200.484 30.7322 200.349 30.1082 200.35C29.4682 200.351 28.9764 200.488 28.6328 200.76C28.2892 201.033 28.1177 201.421 28.1184 201.925C28.1191 202.421 28.2997 202.809 28.66 203.088C29.0124 203.36 29.5046 203.495 30.1366 203.494C30.7606 203.493 31.2404 203.356 31.576 203.084C31.9117 202.803 32.0791 202.411 32.0784 201.907ZM24.3117 191.452L33.1437 191.44L33.1458 192.916L32.1738 192.917C32.51 193.101 32.7744 193.365 32.9669 193.708C33.1514 194.052 33.2439 194.444 33.2445 194.884C33.2453 195.404 33.1139 195.868 32.8505 196.276C32.5871 196.685 32.2155 197.005 31.7358 197.238C31.2482 197.463 30.6923 197.575 30.0683 197.576C29.4443 197.577 28.8962 197.466 28.4238 197.243C27.9515 197.019 27.5871 196.704 27.3305 196.296C27.0659 195.889 26.9333 195.421 26.9325 194.893C26.9319 194.461 27.0234 194.077 27.2069 193.74C27.3824 193.396 27.6341 193.132 27.9618 192.947L24.3138 192.952L24.3117 191.452ZM32.068 194.49C32.0673 193.994 31.8948 193.61 31.5504 193.338C31.206 193.059 30.7178 192.919 30.0858 192.92C29.4538 192.921 28.966 193.058 28.6224 193.33C28.2787 193.603 28.1073 193.987 28.108 194.483C28.1087 194.987 28.2812 195.379 28.6256 195.658C28.962 195.93 29.4422 196.065 30.0662 196.064C30.6982 196.063 31.19 195.927 31.5416 195.654C31.8932 195.374 32.0687 194.986 32.068 194.49ZM24.5927 186.417L24.5882 183.273C24.5863 181.873 24.9568 180.789 25.6997 180.02C26.4426 179.243 27.49 178.853 28.842 178.851C30.202 178.85 31.2586 179.236 32.0117 180.011C32.7567 180.778 33.1303 181.861 33.1322 183.261L33.1366 186.405L24.5927 186.417ZM31.8724 183.359C31.8696 181.391 30.8602 180.409 28.8442 180.411C26.8442 180.414 25.8456 181.4 25.8484 183.368L25.8505 184.868L31.8745 184.859L31.8724 183.359ZM33.2161 174.625C33.217 175.241 33.0897 175.785 32.8344 176.257C32.5791 176.722 32.2156 177.082 31.7439 177.339C31.2643 177.587 30.7044 177.712 30.0644 177.713C29.4244 177.714 28.8683 177.591 28.3959 177.343C27.9156 177.088 27.5471 176.729 27.2904 176.265C27.0337 175.793 26.905 175.25 26.9041 174.634C26.9033 174.026 27.0305 173.489 27.2859 173.025C27.5412 172.561 27.9087 172.204 28.3884 171.955C28.86 171.699 29.4158 171.57 30.0558 171.569C30.6958 171.568 31.256 171.695 31.7364 171.951C32.2087 172.198 32.5732 172.554 32.8299 173.017C33.0865 173.481 33.2153 174.017 33.2161 174.625ZM32.0401 174.638C32.0394 174.126 31.8749 173.739 31.5465 173.475C31.2101 173.203 30.7139 173.068 30.0579 173.069C29.4099 173.07 28.9181 173.207 28.5825 173.479C28.2389 173.752 28.0674 174.136 28.0681 174.632C28.0688 175.136 28.2414 175.524 28.5858 175.795C28.9221 176.067 29.4143 176.202 30.0623 176.201C30.7183 176.2 31.2141 176.067 31.5498 175.803C31.8774 175.531 32.0408 175.142 32.0401 174.638ZM33.2061 167.523C33.207 168.155 33.0798 168.703 32.8245 169.168C32.5691 169.632 32.2096 169.988 31.746 170.237C31.2743 170.486 30.7225 170.611 30.0905 170.611C29.4585 170.612 28.9023 170.485 28.4219 170.23C27.9416 169.966 27.5691 169.599 27.3044 169.127C27.0317 168.648 26.8949 168.096 26.8941 167.472C26.8935 167.04 26.9609 166.624 27.0963 166.224C27.2317 165.815 27.4193 165.491 27.659 165.251L28.7155 165.669C28.5079 165.926 28.3523 166.198 28.2487 166.486C28.1371 166.774 28.0815 167.058 28.0819 167.338C28.0826 167.882 28.2552 168.306 28.5997 168.61C28.9361 168.913 29.4243 169.064 30.0643 169.064C30.7043 169.063 31.1921 168.914 31.5277 168.617C31.8633 168.313 32.0307 167.885 32.0299 167.333C32.0295 167.053 31.9731 166.769 31.8607 166.481C31.7483 166.193 31.5879 165.921 31.3795 165.666L32.4349 165.244C32.6753 165.5 32.8638 165.832 33.0003 166.239C33.1369 166.647 33.2055 167.075 33.2061 167.523ZM27.0378 158.725L33.0978 158.716L33.0998 160.18L32.1638 160.181C32.5001 160.373 32.7565 160.629 32.9329 160.948C33.1094 161.268 33.1979 161.636 33.1985 162.052C33.2005 163.532 32.3696 164.273 30.7056 164.275L27.0456 164.281L27.0435 162.793L30.7155 162.787C31.1555 162.787 31.4794 162.698 31.6871 162.522C31.8949 162.338 31.9985 162.058 31.998 161.682C31.9973 161.242 31.8528 160.89 31.5645 160.626C31.2761 160.363 30.8919 160.231 30.4119 160.232L27.0399 160.237L27.0378 158.725ZM26.8695 149.944C26.8685 149.256 27.0758 148.744 27.4913 148.408C27.8988 148.071 28.5226 147.902 29.3626 147.901L33.0826 147.896L33.0847 149.396L29.4127 149.401C28.9327 149.401 28.5888 149.482 28.3811 149.642C28.1653 149.795 28.0576 150.051 28.0581 150.411C28.0587 150.827 28.2072 151.155 28.5035 151.394C28.7918 151.626 29.192 151.741 29.704 151.74L33.088 151.736L33.0901 153.236L29.4181 153.241C28.9461 153.241 28.6022 153.326 28.3865 153.494C28.1707 153.655 28.063 153.911 28.0635 154.263C28.0641 154.679 28.2126 155.006 28.5089 155.246C28.7973 155.486 29.1974 155.605 29.7094 155.604L33.0934 155.6L33.0955 157.088L28.7515 157.094C28.1115 157.095 27.5396 157.127 27.0356 157.192L27.0337 155.788L27.9935 155.679C27.6333 155.503 27.3569 155.252 27.1645 154.924C26.972 154.588 26.8755 154.204 26.8748 153.772C26.8735 152.844 27.2567 152.24 28.0243 151.959C27.664 151.767 27.3837 151.496 27.1832 151.144C26.9747 150.784 26.8701 150.384 26.8695 149.944ZM30.1209 140.995L30.1268 145.171C30.7747 145.138 31.2545 144.977 31.5661 144.689C31.8697 144.392 32.0211 143.956 32.0203 143.38C32.0193 142.716 31.8025 142.1 31.3697 141.533L32.4011 141.1C32.6335 141.387 32.822 141.743 32.9666 142.167C33.1032 142.583 33.1717 143.007 33.1724 143.439C33.1737 144.431 32.8948 145.211 32.3356 145.78C31.7764 146.349 31.0088 146.634 30.0328 146.635C29.4168 146.636 28.8687 146.513 28.3883 146.265C27.908 146.018 27.5355 145.67 27.2709 145.223C26.9982 144.775 26.8615 144.267 26.8607 143.699C26.8595 142.867 27.1306 142.211 27.674 141.73C28.2093 141.242 28.9489 140.996 29.8929 140.995L30.1209 140.995ZM27.9407 143.662C27.9412 144.062 28.0617 144.39 28.302 144.645C28.5344 144.893 28.8746 145.053 29.3227 145.124L29.3188 142.304C28.8628 142.353 28.519 142.493 28.2873 142.725C28.0557 142.95 27.9401 143.262 27.9407 143.662ZM26.8503 136.261C26.8482 134.813 27.6792 134.088 29.3432 134.086L33.0632 134.08L33.0653 135.58L29.4173 135.586C28.9373 135.586 28.5895 135.679 28.3737 135.863C28.15 136.047 28.0384 136.332 28.0389 136.716C28.0396 137.172 28.1881 137.539 28.4845 137.819C28.7729 138.099 29.1571 138.238 29.6371 138.237L33.069 138.232L33.0711 139.72L28.7271 139.727C28.0871 139.727 27.5152 139.76 27.0113 139.825L27.0093 138.421L28.0052 138.312C27.6369 138.104 27.3525 137.825 27.152 137.473C26.9515 137.113 26.8509 136.709 26.8503 136.261ZM28.1263 130.589L30.8383 130.585C31.5503 130.584 31.9058 130.252 31.9049 129.588C31.9047 129.404 31.8724 129.204 31.8081 128.988L32.9961 128.986C33.0924 129.25 33.1409 129.57 33.1414 129.946C33.1424 130.634 32.9511 131.162 32.5676 131.531C32.1842 131.899 31.6324 132.084 30.9124 132.085L28.1284 132.089L28.1301 133.253L27.0021 133.255L27.0004 132.091L25.5244 132.093L25.0183 130.593L26.9983 130.591L26.9961 128.983L28.1241 128.981L28.1263 130.589ZM33.1475 125.723C33.149 126.819 32.8943 127.691 32.3832 128.34L31.3266 127.922C31.8057 127.273 32.0446 126.533 32.0435 125.701C32.043 125.341 31.9826 125.065 31.8623 124.873C31.742 124.673 31.5739 124.573 31.3579 124.574C31.1739 124.574 31.03 124.642 30.9262 124.778C30.8144 124.914 30.7187 125.146 30.6391 125.475L30.4126 126.483C30.1741 127.587 29.6109 128.14 28.7229 128.141C28.3549 128.142 28.0307 128.038 27.7504 127.831C27.4622 127.623 27.2377 127.331 27.0772 126.956C26.9167 126.58 26.8361 126.144 26.8354 125.648C26.8348 125.216 26.9022 124.8 27.0376 124.4C27.1651 123.999 27.3526 123.647 27.6001 123.343L28.6208 123.785C28.1736 124.394 27.9505 125.018 27.9514 125.658C27.9519 126.002 28.0163 126.27 28.1445 126.462C28.2728 126.654 28.4489 126.75 28.6729 126.749C28.8489 126.749 28.9889 126.693 29.0927 126.581C29.1965 126.461 29.2842 126.26 29.3559 125.98L29.5824 124.948C29.7176 124.348 29.929 123.912 30.2166 123.639C30.4962 123.359 30.864 123.218 31.32 123.218C31.88 123.217 32.3243 123.44 32.6529 123.888C32.9815 124.335 33.1464 124.947 33.1475 125.723Z" fill="black"/>
<path d="M74.248 227.843C74.2496 229.019 73.9509 229.912 73.3517 230.521C72.7446 231.122 71.857 231.423 70.689 231.424L65.601 231.432L65.5989 229.908L70.7709 229.9C71.5069 229.899 72.0666 229.726 72.4501 229.382C72.8257 229.037 73.0129 228.525 73.012 227.845C73.0111 227.181 72.8183 226.677 72.4339 226.334C72.0494 225.982 71.4931 225.807 70.7651 225.808L65.5931 225.816L65.591 224.292L70.679 224.284C71.839 224.283 72.7234 224.586 73.3323 225.193C73.9411 225.8 74.2464 226.683 74.248 227.843ZM67.9118 219.149C67.911 218.629 68.0464 218.169 68.3178 217.769C68.5813 217.361 68.9568 217.044 69.4445 216.819C69.9242 216.587 70.476 216.47 71.1 216.469C71.724 216.468 72.2722 216.579 72.7445 216.803C73.2168 217.026 73.5812 217.342 73.8378 217.749C74.0944 218.149 74.223 218.613 74.2238 219.141C74.2244 219.581 74.1329 219.973 73.9494 220.317C73.7579 220.661 73.4943 220.926 73.1585 221.11L76.7225 221.105L76.7246 222.593L69.7886 222.603C69.1486 222.604 68.5767 222.637 68.0728 222.701L68.0708 221.297L69.1146 221.176C68.7384 221.016 68.446 220.757 68.2375 220.397C68.021 220.037 67.9124 219.621 67.9118 219.149ZM73.0483 219.55C73.0476 219.046 72.8791 218.658 72.5427 218.387C72.2063 218.115 71.7261 217.98 71.1021 217.981C70.4701 217.982 69.9783 218.119 69.6267 218.391C69.2671 218.664 69.0876 219.048 69.0883 219.544C69.089 220.056 69.2616 220.448 69.606 220.719C69.9504 220.991 70.4426 221.126 71.0826 221.125C71.7146 221.124 72.2024 220.987 72.546 220.715C72.8816 220.442 73.0491 220.054 73.0483 219.55ZM65.2902 215.168L65.2881 213.68L74.1201 213.667L74.1222 215.155L65.2902 215.168ZM74.2099 209.278C74.2108 209.894 74.0836 210.438 73.8282 210.911C73.5729 211.375 73.2094 211.736 72.7377 211.992C72.2581 212.241 71.6983 212.366 71.0583 212.367C70.4183 212.368 69.8621 212.244 69.3897 211.997C68.9094 211.742 68.5409 211.382 68.2842 210.919C68.0276 210.447 67.8988 209.903 67.8979 209.287C67.8971 208.679 68.0243 208.143 68.2797 207.679C68.535 207.214 68.9025 206.858 69.3822 206.609C69.8538 206.352 70.4096 206.224 71.0496 206.223C71.6896 206.222 72.2498 206.349 72.7302 206.604C73.2025 206.852 73.567 207.207 73.8237 207.671C74.0803 208.134 74.2091 208.67 74.2099 209.278ZM73.0339 209.292C73.0332 208.78 72.8687 208.392 72.5403 208.129C72.2039 207.857 71.7077 207.722 71.0517 207.723C70.4037 207.724 69.9119 207.86 69.5763 208.133C69.2327 208.405 69.0612 208.79 69.0619 209.286C69.0626 209.79 69.2352 210.177 69.5796 210.449C69.916 210.72 70.4081 210.856 71.0561 210.855C71.7121 210.854 72.208 210.721 72.5436 210.457C72.8712 210.184 73.0347 209.796 73.0339 209.292ZM68.0397 199.137L74.0997 199.129L74.1018 200.605L73.1298 200.606C73.466 200.79 73.7304 201.053 73.9229 201.397C74.1074 201.741 74.1999 202.133 74.2005 202.573C74.2013 203.101 74.0739 203.569 73.8185 203.977C73.5631 204.386 73.1995 204.702 72.7278 204.927C72.2561 205.151 71.7083 205.264 71.0843 205.265C70.4603 205.266 69.9081 205.155 69.4278 204.931C68.9395 204.7 68.5631 204.381 68.2985 203.973C68.0259 203.565 67.8893 203.102 67.8885 202.582C67.8879 202.142 67.9834 201.749 68.1749 201.405C68.3584 201.061 68.618 200.797 68.9538 200.612L68.0418 200.613L68.0397 199.137ZM73.024 202.166C73.0233 201.67 72.8507 201.287 72.5063 201.015C72.162 200.744 71.6778 200.608 71.0538 200.609C70.4138 200.61 69.922 200.747 69.5783 201.019C69.2347 201.292 69.0633 201.68 69.064 202.184C69.0647 202.68 69.2452 203.068 69.6056 203.347C69.958 203.619 70.4502 203.754 71.0822 203.753C71.7062 203.752 72.186 203.616 72.5216 203.343C72.8572 203.063 73.0247 202.67 73.024 202.166ZM65.2573 191.712L74.0893 191.699L74.0913 193.175L73.1193 193.177C73.4556 193.36 73.72 193.624 73.9124 193.967C74.0969 194.311 74.1895 194.703 74.1901 195.143C74.1908 195.663 74.0595 196.127 73.7961 196.536C73.5326 196.944 73.1611 197.265 72.6814 197.497C72.1937 197.722 71.6379 197.835 71.0139 197.836C70.3899 197.836 69.8417 197.725 69.3694 197.502C68.8971 197.278 68.5326 196.963 68.2761 196.555C68.0115 196.148 67.8788 195.68 67.8781 195.152C67.8775 194.72 67.969 194.336 68.1525 194C68.328 193.655 68.5796 193.391 68.9074 193.206L65.2594 193.212L65.2573 191.712ZM73.0135 194.749C73.0128 194.253 72.8403 193.869 72.4959 193.597C72.1515 193.318 71.6633 193.179 71.0313 193.179C70.3993 193.18 69.9115 193.317 69.5679 193.59C69.2243 193.862 69.0528 194.246 69.0535 194.742C69.0542 195.246 69.2268 195.638 69.5712 195.918C69.9076 196.189 70.3878 196.324 71.0118 196.324C71.6437 196.323 72.1356 196.186 72.4872 195.913C72.8388 195.633 73.0142 195.245 73.0135 194.749ZM65.5382 186.677L65.533 182.969C65.5317 182.049 65.7547 181.332 66.202 180.82C66.6413 180.307 67.2449 180.05 68.0129 180.049C68.7809 180.048 69.3893 180.307 69.838 180.827C70.2867 181.338 70.5117 182.05 70.513 182.962L70.516 185.122L74.08 185.117L74.0822 186.665L65.5382 186.677ZM69.3133 183.143C69.3125 182.607 69.2039 182.203 68.9876 181.932C68.7632 181.652 68.443 181.512 68.027 181.513C67.603 181.514 67.2832 181.65 67.0675 181.922C66.8439 182.195 66.7325 182.603 66.7333 183.147L66.736 185.127L69.316 185.123L69.3133 183.143ZM68.0111 178.789L68.0091 177.301L74.069 177.292L74.0711 178.78L68.0111 178.789ZM65.2609 177.221L66.7369 177.219L66.7393 178.887L65.2633 178.889L65.2609 177.221ZM74.1589 172.903C74.1598 173.535 74.0325 174.084 73.7772 174.548C73.5218 175.012 73.1623 175.369 72.6987 175.617C72.227 175.866 71.6752 175.991 71.0432 175.992C70.4112 175.993 69.855 175.865 69.3747 175.61C68.8943 175.347 68.5218 174.979 68.2571 174.508C67.9845 174.028 67.8477 173.476 67.8468 172.852C67.8462 172.42 67.9136 172.004 68.0491 171.604C68.1845 171.196 68.372 170.871 68.6117 170.631L69.6683 171.05C69.4606 171.306 69.305 171.578 69.2014 171.866C69.0898 172.154 69.0342 172.439 69.0346 172.719C69.0354 173.263 69.208 173.686 69.5524 173.99C69.8888 174.293 70.377 174.445 71.017 174.444C71.657 174.443 72.1448 174.294 72.4804 173.998C72.816 173.693 72.9834 173.265 72.9826 172.713C72.9822 172.433 72.9258 172.149 72.8134 171.861C72.701 171.573 72.5406 171.302 72.3323 171.046L73.3877 170.624C73.6281 170.88 73.8165 171.212 73.9531 171.62C74.0897 172.027 74.1583 172.455 74.1589 172.903ZM69.1236 167.68L71.8356 167.676C72.5476 167.675 72.9031 167.343 72.9022 166.679C72.9019 166.495 72.8696 166.295 72.8053 166.079L73.9933 166.077C74.0897 166.341 74.1381 166.661 74.1387 167.037C74.1396 167.725 73.9484 168.253 73.5649 168.622C73.1814 168.99 72.6297 169.175 71.9097 169.176L69.1257 169.18L69.1273 170.344L67.9993 170.346L67.9977 169.182L66.5217 169.184L66.0156 167.684L67.9956 167.682L67.9933 166.074L69.1213 166.072L69.1236 167.68ZM67.9841 159.523L74.0441 159.514L74.0462 160.978L73.1102 160.98C73.4464 161.171 73.7028 161.427 73.8792 161.747C74.0557 162.066 74.1442 162.434 74.1448 162.85C74.1469 164.33 73.3159 165.071 71.6519 165.074L67.9919 165.079L67.9898 163.591L71.6618 163.586C72.1018 163.585 72.4257 163.497 72.6334 163.32C72.8412 163.136 72.9448 162.856 72.9443 162.48C72.9436 162.04 72.7992 161.688 72.5108 161.424C72.2224 161.161 71.8382 161.029 71.3582 161.03L67.9862 161.035L67.9841 159.523ZM67.8332 154.631C67.8329 154.399 67.8646 154.199 67.9284 154.03L69.2964 154.041C69.1928 154.297 69.1411 154.561 69.1415 154.833C69.1422 155.345 69.2908 155.737 69.5872 156.008C69.8835 156.272 70.2757 156.403 70.7637 156.402L74.0397 156.398L74.0418 157.886L69.6978 157.892C69.0578 157.893 68.4859 157.926 67.982 157.99L67.98 156.586L69.0478 156.465C68.6556 156.313 68.3553 156.074 68.1468 155.746C67.9384 155.418 67.8338 155.047 67.8332 154.631ZM71.0759 148.004L71.0818 152.18C71.7298 152.147 72.2095 151.986 72.5211 151.698C72.8247 151.402 72.9761 150.965 72.9753 150.389C72.9744 149.725 72.7575 149.11 72.3247 148.542L73.3561 148.109C73.5885 148.396 73.777 148.752 73.9216 149.176C74.0582 149.592 74.1268 150.016 74.1274 150.448C74.1288 151.44 73.8499 152.22 73.2907 152.789C72.7315 153.358 71.9639 153.643 70.9879 153.644C70.3719 153.645 69.8237 153.522 69.3433 153.274C68.863 153.027 68.4905 152.68 68.2259 152.232C67.9533 151.784 67.8165 151.277 67.8157 150.709C67.8146 149.877 68.0857 149.22 68.629 148.739C69.1643 148.251 69.904 148.006 70.8479 148.004L71.0759 148.004ZM68.8957 150.671C68.8963 151.071 69.0167 151.399 69.2571 151.655C69.4894 151.902 69.8296 152.062 70.2777 152.133L70.2738 149.313C69.8179 149.362 69.4741 149.502 69.2424 149.735C69.0107 149.959 68.8951 150.271 68.8957 150.671ZM74.119 144.509C74.1206 145.605 73.8658 146.478 73.3547 147.127L72.2981 146.708C72.7772 146.059 73.0162 145.319 73.015 144.487C73.0145 144.127 72.9541 143.851 72.8339 143.659C72.7136 143.459 72.5454 143.36 72.3294 143.36C72.1454 143.36 72.0015 143.428 71.8977 143.565C71.7859 143.701 71.6902 143.933 71.6107 144.261L71.3841 145.269C71.1457 146.374 70.5824 146.926 69.6944 146.928C69.3264 146.928 69.0023 146.825 68.722 146.617C68.4337 146.409 68.2093 146.118 68.0488 145.742C67.8882 145.366 67.8076 144.93 67.8069 144.434C67.8063 144.002 67.8737 143.586 68.0092 143.186C68.1366 142.786 68.3241 142.434 68.5717 142.129L69.5923 142.572C69.1452 143.18 68.9221 143.805 68.923 144.445C68.9234 144.789 68.9878 145.057 69.1161 145.249C69.2444 145.44 69.4205 145.536 69.6445 145.536C69.8205 145.536 69.9604 145.479 70.0642 145.367C70.1681 145.247 70.2558 145.047 70.3274 144.767L70.554 143.734C70.6891 143.134 70.9005 142.698 71.1881 142.426C71.4677 142.145 71.8355 142.005 72.2915 142.004C72.8515 142.003 73.2958 142.227 73.6245 142.674C73.9531 143.122 74.118 143.733 74.119 144.509Z" fill="black"/>
<path d="M114.272 228.079C114.273 228.735 114.186 229.351 114.01 229.927C113.835 230.496 113.583 230.98 113.256 231.381L112.127 230.855C112.439 230.438 112.67 230.006 112.822 229.557C112.965 229.101 113.037 228.605 113.036 228.069C113.035 227.477 112.931 227.021 112.722 226.702C112.514 226.374 112.222 226.21 111.846 226.211C111.526 226.212 111.282 226.364 111.114 226.668C110.939 226.965 110.775 227.457 110.624 228.145C110.393 229.218 110.094 229.998 109.727 230.487C109.359 230.975 108.824 231.22 108.12 231.221C107.616 231.222 107.168 231.087 106.775 230.816C106.383 230.544 106.074 230.161 105.85 229.665C105.625 229.162 105.513 228.582 105.512 227.926C105.511 227.326 105.603 226.758 105.786 226.221C105.961 225.677 106.209 225.233 106.528 224.888L107.657 225.402C107.05 226.163 106.747 227.004 106.748 227.924C106.749 228.476 106.865 228.912 107.097 229.231C107.322 229.551 107.63 229.71 108.022 229.71C108.358 229.709 108.614 229.569 108.789 229.288C108.965 229 109.129 228.512 109.28 227.823C109.447 227.111 109.63 226.531 109.83 226.082C110.021 225.634 110.273 225.29 110.585 225.049C110.888 224.809 111.272 224.688 111.736 224.687C112.248 224.686 112.696 224.822 113.081 225.093C113.457 225.364 113.749 225.756 113.958 226.267C114.167 226.779 114.271 227.383 114.272 228.079ZM108.092 217.571L114.152 217.56L114.154 219.036L113.182 219.038C113.518 219.221 113.782 219.485 113.975 219.829C114.159 220.172 114.251 220.564 114.252 221.004C114.253 221.532 114.125 222 113.87 222.409C113.614 222.817 113.25 223.134 112.779 223.359C112.307 223.584 111.759 223.697 111.135 223.698C110.511 223.699 109.959 223.588 109.479 223.364C108.99 223.133 108.614 222.814 108.35 222.406C108.077 221.999 107.941 221.535 107.94 221.015C107.939 220.575 108.035 220.183 108.227 219.839C108.41 219.494 108.67 219.23 109.006 219.045L108.094 219.047L108.092 217.571ZM113.075 220.598C113.075 220.102 112.902 219.719 112.558 219.447C112.214 219.176 111.73 219.041 111.106 219.042C110.466 219.043 109.974 219.18 109.63 219.452C109.286 219.725 109.115 220.113 109.115 220.617C109.116 221.113 109.297 221.501 109.657 221.78C110.009 222.052 110.501 222.187 111.133 222.186C111.757 222.185 112.237 222.048 112.573 221.775C112.909 221.495 113.076 221.102 113.075 220.598ZM108.096 210.201L114.147 212.843L114.148 214.151L108.103 216.777L108.101 215.205L112.443 213.458L108.097 211.689L108.096 210.201ZM111.185 204.218L111.189 208.394C111.837 208.361 112.317 208.2 112.629 207.911C112.933 207.615 113.084 207.178 113.083 206.602C113.083 205.938 112.866 205.323 112.433 204.755L113.465 204.322C113.697 204.609 113.886 204.965 114.03 205.389C114.167 205.805 114.235 206.228 114.235 206.66C114.237 207.652 113.958 208.433 113.398 209.002C112.839 209.571 112.071 209.856 111.095 209.858C110.479 209.859 109.931 209.736 109.451 209.489C108.97 209.241 108.598 208.894 108.334 208.447C108.061 207.999 107.924 207.491 107.924 206.923C107.923 206.091 108.194 205.435 108.738 204.954C109.273 204.465 110.013 204.22 110.957 204.218L111.185 204.218ZM109.004 206.885C109.004 207.285 109.125 207.613 109.365 207.869C109.597 208.116 109.937 208.276 110.385 208.347L110.382 205.527C109.926 205.576 109.582 205.716 109.351 205.949C109.119 206.173 109.003 206.485 109.004 206.885ZM105.587 199.556L105.586 198.008L114.13 197.993L114.131 199.541L105.587 199.556ZM107.908 192.794C107.906 191.346 108.737 190.62 110.401 190.617L114.121 190.611L114.123 192.111L110.475 192.117C109.995 192.118 109.647 192.211 109.431 192.395C109.207 192.579 109.096 192.864 109.096 193.248C109.097 193.704 109.245 194.071 109.541 194.351C109.83 194.63 110.214 194.77 110.694 194.769L114.126 194.763L114.128 196.251L109.784 196.258C109.144 196.26 108.572 196.292 108.068 196.357L108.066 194.953L109.062 194.844C108.694 194.636 108.409 194.357 108.209 194.005C108.009 193.645 107.908 193.242 107.908 192.794ZM109.185 187.121L111.897 187.116C112.609 187.115 112.965 186.782 112.964 186.118C112.964 185.934 112.931 185.735 112.867 185.519L114.055 185.517C114.152 185.78 114.2 186.1 114.2 186.476C114.201 187.164 114.01 187.693 113.626 188.061C113.243 188.43 112.691 188.615 111.971 188.616L109.187 188.621L109.188 189.785L108.06 189.787L108.059 188.623L106.583 188.625L106.077 187.126L108.057 187.123L108.055 185.515L109.183 185.513L109.185 187.121ZM111.156 179.175L111.161 183.351C111.809 183.318 112.289 183.157 112.6 182.868C112.904 182.572 113.055 182.135 113.055 181.559C113.054 180.895 112.837 180.28 112.405 179.713L113.436 179.279C113.668 179.566 113.857 179.922 114.001 180.346C114.138 180.762 114.206 181.185 114.207 181.617C114.208 182.609 113.929 183.39 113.369 183.959C112.81 184.528 112.042 184.813 111.066 184.815C110.45 184.816 109.902 184.693 109.422 184.446C108.942 184.198 108.569 183.851 108.305 183.404C108.032 182.956 107.896 182.448 107.895 181.88C107.894 181.048 108.165 180.392 108.709 179.911C109.244 179.422 109.984 179.177 110.928 179.175L111.156 179.175ZM108.975 181.842C108.975 182.242 109.096 182.57 109.336 182.826C109.568 183.073 109.909 183.233 110.357 183.304L110.353 180.484C109.898 180.533 109.554 180.673 109.322 180.906C109.09 181.13 108.975 181.442 108.975 181.842ZM107.899 174.646C107.898 174.414 107.93 174.214 107.994 174.046L109.362 174.056C109.258 174.312 109.207 174.576 109.207 174.848C109.208 175.36 109.356 175.752 109.652 176.023C109.949 176.287 110.341 176.418 110.829 176.417L114.105 176.411L114.106 177.899L109.763 177.907C109.123 177.908 108.551 177.941 108.047 178.006L108.045 176.602L109.113 176.48C108.721 176.329 108.42 176.089 108.212 175.762C108.004 175.434 107.899 175.062 107.899 174.646ZM107.881 169.743C107.879 168.295 108.711 167.569 110.375 167.567L114.095 167.56L114.096 169.06L110.448 169.066C109.968 169.067 109.62 169.16 109.405 169.344C109.181 169.529 109.069 169.813 109.07 170.197C109.07 170.653 109.219 171.021 109.515 171.3C109.803 171.58 110.187 171.719 110.667 171.718L114.099 171.712L114.101 173.2L109.757 173.208C109.117 173.209 108.545 173.242 108.041 173.307L108.04 171.903L109.035 171.793C108.667 171.586 108.383 171.306 108.183 170.954C107.982 170.595 107.882 170.191 107.881 169.743ZM111.135 160.671L111.14 164.847C111.787 164.814 112.267 164.653 112.579 164.364C112.883 164.068 113.034 163.632 113.033 163.056C113.033 162.392 112.816 161.776 112.383 161.209L113.415 160.775C113.647 161.062 113.836 161.418 113.98 161.842C114.117 162.258 114.185 162.682 114.186 163.114C114.187 164.106 113.908 164.886 113.348 165.455C112.789 166.024 112.021 166.309 111.045 166.311C110.429 166.312 109.881 166.189 109.401 165.942C108.92 165.695 108.548 165.347 108.284 164.9C108.011 164.452 107.874 163.944 107.874 163.376C107.873 162.544 108.144 161.888 108.688 161.407C109.223 160.918 109.963 160.673 110.907 160.671L111.135 160.671ZM108.954 163.339C108.954 163.739 109.075 164.066 109.315 164.322C109.547 164.57 109.887 164.729 110.335 164.8L110.332 161.98C109.876 162.029 109.532 162.17 109.301 162.402C109.069 162.626 108.953 162.939 108.954 163.339ZM109.151 157.578L111.863 157.573C112.575 157.572 112.931 157.24 112.93 156.576C112.93 156.392 112.898 156.192 112.833 155.976L114.021 155.974C114.118 156.237 114.166 156.557 114.166 156.933C114.167 157.621 113.976 158.15 113.592 158.518C113.209 158.887 112.657 159.072 111.937 159.073L109.153 159.078L109.154 160.242L108.026 160.244L108.025 159.08L106.549 159.082L106.043 157.583L108.023 157.58L108.021 155.972L109.149 155.97L109.151 157.578ZM105.532 151.544L105.528 147.836C105.527 146.916 105.75 146.2 106.198 145.687C106.637 145.174 107.241 144.917 108.009 144.916C108.777 144.915 109.385 145.174 109.834 145.693C110.282 146.204 110.507 146.916 110.508 147.828L110.51 149.988L114.074 149.982L114.076 151.53L105.532 151.544ZM109.308 148.01C109.308 147.474 109.199 147.07 108.983 146.798C108.758 146.519 108.438 146.379 108.022 146.38C107.598 146.381 107.278 146.517 107.063 146.79C106.839 147.062 106.728 147.47 106.728 148.014L106.73 149.994L109.31 149.99L109.308 148.01ZM108.007 143.656L108.006 142.168L114.065 142.158L114.067 143.646L108.007 143.656ZM105.257 142.089L106.733 142.086L106.735 143.754L105.259 143.757L105.257 142.089ZM114.156 137.768C114.157 138.4 114.03 138.949 113.774 139.413C113.519 139.878 113.159 140.234 112.696 140.483C112.224 140.732 111.672 140.857 111.04 140.858C110.408 140.859 109.852 140.732 109.372 140.477C108.891 140.213 108.519 139.846 108.254 139.375C107.982 138.895 107.845 138.343 107.844 137.719C107.844 137.287 107.911 136.871 108.047 136.471C108.182 136.063 108.37 135.738 108.61 135.498L109.666 135.916C109.459 136.173 109.303 136.445 109.199 136.733C109.088 137.021 109.032 137.305 109.032 137.585C109.033 138.129 109.205 138.553 109.55 138.856C109.886 139.16 110.374 139.311 111.014 139.31C111.654 139.309 112.142 139.16 112.478 138.863C112.813 138.559 112.981 138.13 112.98 137.578C112.98 137.298 112.924 137.015 112.811 136.727C112.699 136.439 112.539 136.167 112.33 135.912L113.386 135.49C113.626 135.745 113.815 136.077 113.951 136.485C114.087 136.893 114.156 137.32 114.156 137.768ZM109.122 132.547L111.834 132.542C112.546 132.541 112.902 132.208 112.901 131.544C112.901 131.36 112.869 131.16 112.805 130.944L113.993 130.942C114.089 131.206 114.137 131.526 114.138 131.902C114.139 132.59 113.947 133.118 113.564 133.487C113.18 133.856 112.628 134.041 111.908 134.042L109.124 134.047L109.126 135.211L107.998 135.213L107.996 134.049L106.52 134.051L106.014 132.552L107.994 132.549L107.993 130.941L109.121 130.939L109.122 132.547ZM107.985 124.39L114.045 124.379L114.047 125.843L113.111 125.845C113.447 126.036 113.703 126.292 113.88 126.612C114.056 126.931 114.144 127.299 114.145 127.715C114.147 129.195 113.315 129.937 111.651 129.94L107.991 129.946L107.99 128.458L111.662 128.452C112.102 128.451 112.426 128.362 112.633 128.186C112.841 128.002 112.945 127.721 112.945 127.345C112.944 126.905 112.8 126.554 112.511 126.29C112.223 126.027 111.839 125.895 111.359 125.896L107.987 125.902L107.985 124.39ZM107.835 119.498C107.835 119.266 107.867 119.066 107.931 118.897L109.299 118.907C109.195 119.163 109.143 119.427 109.144 119.699C109.144 120.211 109.293 120.603 109.589 120.875C109.885 121.138 110.278 121.269 110.766 121.269L114.042 121.263L114.043 122.751L109.699 122.758C109.059 122.76 108.487 122.793 107.983 122.857L107.982 121.453L109.05 121.332C108.657 121.18 108.357 120.941 108.149 120.613C107.94 120.285 107.836 119.914 107.835 119.498ZM111.08 112.87L111.085 117.046C111.733 117.013 112.212 116.852 112.524 116.564C112.828 116.267 112.979 115.831 112.979 115.255C112.978 114.591 112.761 113.975 112.329 113.408L113.36 112.974C113.592 113.262 113.781 113.617 113.925 114.041C114.062 114.457 114.13 114.881 114.131 115.313C114.132 116.305 113.853 117.085 113.293 117.654C112.734 118.223 111.966 118.509 110.99 118.51C110.374 118.511 109.826 118.388 109.346 118.141C108.866 117.894 108.493 117.546 108.229 117.099C107.956 116.651 107.82 116.144 107.819 115.576C107.818 114.744 108.089 114.087 108.633 113.606C109.168 113.117 109.908 112.872 110.852 112.87L111.08 112.87ZM108.899 115.538C108.899 115.938 109.02 116.266 109.26 116.521C109.492 116.769 109.833 116.928 110.281 116.999L110.277 114.179C109.821 114.228 109.478 114.369 109.246 114.601C109.014 114.826 108.898 115.138 108.899 115.538ZM114.124 109.375C114.125 110.471 113.87 111.343 113.359 111.992L112.302 111.574C112.782 110.925 113.021 110.184 113.02 109.352C113.019 108.992 112.959 108.717 112.839 108.525C112.719 108.325 112.551 108.225 112.335 108.226C112.151 108.226 112.007 108.294 111.903 108.43C111.791 108.567 111.695 108.799 111.616 109.127L111.389 110.135C111.15 111.24 110.587 111.793 109.699 111.794C109.331 111.795 109.007 111.691 108.726 111.484C108.438 111.276 108.214 110.985 108.053 110.609C107.893 110.233 107.812 109.797 107.812 109.301C107.811 108.869 107.879 108.453 108.014 108.053C108.142 107.653 108.33 107.301 108.577 106.996L109.598 107.438C109.15 108.047 108.927 108.672 108.928 109.312C108.928 109.656 108.993 109.923 109.121 110.115C109.249 110.307 109.425 110.403 109.649 110.402C109.825 110.402 109.965 110.346 110.069 110.234C110.173 110.113 110.261 109.913 110.332 109.633L110.559 108.601C110.694 108 110.906 107.564 111.193 107.292C111.473 107.011 111.841 106.871 112.297 106.87C112.857 106.869 113.301 107.092 113.63 107.539C113.958 107.987 114.123 108.599 114.124 109.375Z" fill="black"/>
<path d="M154.271 228.281C154.272 228.937 154.185 229.553 154.01 230.129C153.834 230.697 153.583 231.182 153.256 231.582L152.127 231.056C152.438 230.639 152.67 230.207 152.821 229.759C152.965 229.302 153.036 228.806 153.035 228.27C153.034 227.678 152.93 227.222 152.721 226.903C152.513 226.575 152.22 226.411 151.844 226.412C151.524 226.412 151.281 226.565 151.113 226.869C150.938 227.165 150.774 227.657 150.623 228.346C150.393 229.418 150.094 230.198 149.726 230.687C149.359 231.175 148.823 231.42 148.119 231.421C147.615 231.422 147.167 231.287 146.775 231.015C146.383 230.744 146.074 230.36 145.849 229.864C145.625 229.361 145.512 228.781 145.511 228.125C145.51 227.525 145.601 226.957 145.784 226.42C145.96 225.876 146.207 225.432 146.527 225.087L147.655 225.602C147.048 226.363 146.746 227.203 146.747 228.123C146.748 228.675 146.864 229.111 147.097 229.431C147.321 229.75 147.629 229.91 148.021 229.909C148.357 229.909 148.613 229.768 148.789 229.488C148.964 229.2 149.128 228.712 149.279 228.024C149.446 227.311 149.629 226.731 149.828 226.283C150.02 225.835 150.271 225.49 150.583 225.25C150.886 225.009 151.27 224.889 151.734 224.888C152.246 224.887 152.695 225.023 153.079 225.294C153.455 225.566 153.748 225.957 153.957 226.469C154.165 226.981 154.27 227.585 154.271 228.281ZM148.088 217.771L154.148 217.762L154.15 219.238L153.178 219.239C153.515 219.423 153.779 219.687 153.972 220.03C154.156 220.374 154.249 220.766 154.249 221.206C154.25 221.734 154.123 222.202 153.867 222.61C153.612 223.019 153.248 223.335 152.776 223.56C152.305 223.785 151.757 223.897 151.133 223.898C150.509 223.899 149.957 223.788 149.476 223.565C148.988 223.333 148.612 223.014 148.347 222.606C148.075 222.199 147.938 221.735 147.937 221.215C147.937 220.775 148.032 220.383 148.224 220.038C148.407 219.694 148.667 219.43 149.002 219.245L148.09 219.247L148.088 217.771ZM153.073 220.8C153.072 220.304 152.899 219.92 152.555 219.648C152.211 219.377 151.726 219.241 151.102 219.242C150.462 219.243 149.971 219.38 149.627 219.652C149.283 219.925 149.112 220.313 149.113 220.817C149.113 221.313 149.294 221.701 149.654 221.98C150.007 222.252 150.499 222.387 151.131 222.386C151.755 222.385 152.235 222.249 152.57 221.976C152.906 221.696 153.073 221.304 153.073 220.8ZM148.09 210.401L154.142 213.044L154.144 214.352L148.099 216.977L148.097 215.405L152.439 213.659L148.092 211.889L148.09 210.401ZM151.178 204.418L151.183 208.594C151.831 208.561 152.311 208.401 152.623 208.112C152.926 207.816 153.078 207.38 153.077 206.804C153.076 206.14 152.859 205.524 152.426 204.957L153.458 204.523C153.69 204.811 153.879 205.167 154.023 205.59C154.16 206.006 154.228 206.43 154.229 206.862C154.23 207.854 153.952 208.634 153.392 209.203C152.833 209.772 152.066 210.057 151.09 210.058C150.474 210.059 149.925 209.936 149.445 209.689C148.965 209.441 148.592 209.094 148.328 208.646C148.055 208.199 147.918 207.691 147.917 207.123C147.916 206.291 148.187 205.635 148.731 205.154C149.266 204.665 150.006 204.42 150.95 204.419L151.178 204.418ZM148.997 207.085C148.998 207.485 149.118 207.813 149.359 208.069C149.591 208.317 149.931 208.476 150.379 208.547L150.375 205.727C149.92 205.776 149.576 205.917 149.344 206.149C149.112 206.373 148.997 206.685 148.997 207.085ZM145.579 199.755L145.577 198.207L154.121 198.195L154.123 199.743L145.579 199.755ZM147.898 192.993C147.896 191.545 148.727 190.82 150.391 190.818L154.111 190.813L154.113 192.313L150.465 192.318C149.985 192.318 149.637 192.411 149.421 192.595C149.197 192.779 149.086 193.064 149.086 193.448C149.087 193.904 149.235 194.271 149.532 194.551C149.82 194.831 150.204 194.97 150.684 194.969L154.116 194.965L154.118 196.453L149.774 196.459C149.134 196.46 148.562 196.492 148.059 196.557L148.057 195.153L149.052 195.044C148.684 194.836 148.4 194.557 148.199 194.205C147.999 193.845 147.898 193.441 147.898 192.993ZM149.174 187.321L151.886 187.317C152.598 187.316 152.953 186.984 152.952 186.32C152.952 186.136 152.92 185.936 152.855 185.72L154.043 185.718C154.14 185.982 154.188 186.302 154.189 186.678C154.19 187.366 153.998 187.894 153.615 188.263C153.231 188.631 152.68 188.816 151.96 188.817L149.176 188.821L149.177 189.985L148.049 189.987L148.048 188.823L146.572 188.825L146.066 187.325L148.046 187.323L148.043 185.715L149.171 185.713L149.174 187.321ZM151.142 179.375L151.148 183.551C151.796 183.519 152.276 183.358 152.588 183.069C152.891 182.773 153.043 182.337 153.042 181.761C153.041 181.097 152.824 180.481 152.391 179.914L153.423 179.48C153.655 179.768 153.844 180.124 153.988 180.547C154.125 180.963 154.193 181.387 154.194 181.819C154.195 182.811 153.916 183.592 153.357 184.16C152.798 184.729 152.03 185.014 151.054 185.016C150.438 185.016 149.89 184.893 149.41 184.646C148.93 184.399 148.557 184.051 148.292 183.603C148.02 183.156 147.883 182.648 147.882 182.08C147.881 181.248 148.152 180.592 148.695 180.111C149.231 179.622 149.97 179.377 150.914 179.376L151.142 179.375ZM148.962 182.042C148.963 182.442 149.083 182.77 149.324 183.026C149.556 183.274 149.896 183.433 150.344 183.505L150.34 180.685C149.884 180.733 149.541 180.874 149.309 181.106C149.077 181.33 148.962 181.642 148.962 182.042ZM147.884 174.846C147.884 174.614 147.915 174.414 147.979 174.246L149.347 174.256C149.244 174.512 149.192 174.776 149.192 175.048C149.193 175.56 149.342 175.952 149.638 176.223C149.934 176.487 150.327 176.618 150.815 176.618L154.091 176.613L154.093 178.101L149.749 178.107C149.109 178.108 148.537 178.141 148.033 178.206L148.031 176.802L149.099 176.68C148.706 176.529 148.406 176.289 148.198 175.961C147.989 175.634 147.885 175.262 147.884 174.846ZM147.865 169.943C147.863 168.495 148.694 167.769 150.358 167.767L154.078 167.762L154.08 169.262L150.432 169.267C149.952 169.268 149.604 169.36 149.389 169.544C149.165 169.729 149.053 170.013 149.054 170.397C149.055 170.853 149.203 171.221 149.499 171.5C149.788 171.78 150.172 171.919 150.652 171.919L154.084 171.914L154.086 173.402L149.742 173.408C149.102 173.409 148.53 173.442 148.026 173.506L148.024 172.102L149.02 171.993C148.652 171.785 148.367 171.506 148.167 171.154C147.966 170.794 147.866 170.391 147.865 169.943ZM151.117 160.872L151.122 165.048C151.77 165.015 152.25 164.854 152.562 164.566C152.865 164.269 153.017 163.833 153.016 163.257C153.015 162.593 152.798 161.977 152.365 161.41L153.397 160.976C153.629 161.264 153.818 161.62 153.962 162.044C154.099 162.459 154.167 162.883 154.168 163.315C154.169 164.307 153.89 165.088 153.331 165.656C152.772 166.225 152.004 166.51 151.028 166.512C150.412 166.513 149.864 166.389 149.384 166.142C148.904 165.895 148.531 165.547 148.266 165.1C147.994 164.652 147.857 164.144 147.856 163.576C147.855 162.744 148.126 162.088 148.67 161.607C149.205 161.118 149.945 160.873 150.889 160.872L151.117 160.872ZM148.936 163.539C148.937 163.939 149.057 164.266 149.298 164.522C149.53 164.77 149.87 164.929 150.318 165.001L150.314 162.181C149.858 162.229 149.515 162.37 149.283 162.602C149.051 162.826 148.936 163.139 148.936 163.539ZM149.132 157.778L151.844 157.774C152.556 157.773 152.912 157.441 152.911 156.777C152.91 156.593 152.878 156.393 152.814 156.177L154.002 156.175C154.098 156.439 154.147 156.759 154.147 157.135C154.148 157.823 153.957 158.351 153.573 158.72C153.19 159.088 152.638 159.273 151.918 159.274L149.134 159.278L149.136 160.442L148.008 160.444L148.006 159.28L146.53 159.282L146.024 157.782L148.004 157.78L148.002 156.172L149.13 156.17L149.132 157.778ZM145.512 151.743L145.51 150.195L152.782 150.185L152.776 146.189L154.048 146.187L154.056 151.731L145.512 151.743ZM147.986 145.133L147.984 143.645L154.044 143.637L154.046 145.125L147.986 145.133ZM145.236 143.565L146.712 143.563L146.715 145.231L145.239 145.233L145.236 143.565ZM147.821 138.536C147.819 137.088 148.65 136.363 150.314 136.361L154.034 136.356L154.036 137.856L150.388 137.861C149.908 137.861 149.56 137.954 149.345 138.138C149.121 138.323 149.009 138.607 149.01 138.991C149.01 139.447 149.159 139.814 149.455 140.094C149.744 140.374 150.128 140.513 150.608 140.512L154.04 140.508L154.042 141.996L149.698 142.002C149.058 142.003 148.486 142.035 147.982 142.1L147.98 140.696L148.976 140.587C148.608 140.379 148.323 140.1 148.123 139.748C147.922 139.388 147.822 138.984 147.821 138.536ZM154.026 130.625L151.234 133.281L154.03 133.277L154.032 134.765L145.2 134.778L145.198 133.29L150.646 133.282L147.978 130.79L147.976 128.978L150.872 131.698L154.023 128.753L154.026 130.625ZM154.116 126.018C154.117 127.114 153.862 127.986 153.351 128.635L152.295 128.216C152.774 127.568 153.013 126.827 153.012 125.995C153.011 125.635 152.951 125.359 152.83 125.167C152.71 124.968 152.542 124.868 152.326 124.868C152.142 124.868 151.998 124.937 151.894 125.073C151.782 125.209 151.687 125.441 151.607 125.769L151.381 126.778C151.142 127.882 150.579 128.435 149.691 128.436C149.323 128.436 148.999 128.333 148.719 128.125C148.43 127.918 148.206 127.626 148.045 127.25C147.885 126.874 147.804 126.439 147.803 125.943C147.803 125.511 147.87 125.094 148.006 124.694C148.133 124.294 148.321 123.942 148.568 123.637L149.589 124.08C149.142 124.689 148.919 125.313 148.92 125.953C148.92 126.297 148.984 126.565 149.113 126.757C149.241 126.949 149.417 127.044 149.641 127.044C149.817 127.044 149.957 126.988 150.061 126.875C150.165 126.755 150.252 126.555 150.324 126.275L150.551 125.243C150.686 124.643 150.897 124.206 151.185 123.934C151.464 123.653 151.832 123.513 152.288 123.512C152.848 123.511 153.292 123.735 153.621 124.182C153.95 124.63 154.115 125.242 154.116 126.018Z" fill="black"/>
<path d="M194.221 229.32C194.222 230.144 194.047 230.865 193.696 231.481C193.336 232.09 192.829 232.562 192.174 232.899C191.51 233.228 190.73 233.393 189.834 233.395C188.946 233.396 188.174 233.233 187.518 232.906C186.853 232.579 186.344 232.111 185.992 231.504C185.639 230.888 185.462 230.165 185.461 229.333C185.459 228.501 185.634 227.78 185.985 227.172C186.337 226.555 186.844 226.087 187.508 225.766C188.163 225.437 188.935 225.272 189.823 225.271C190.719 225.269 191.499 225.432 192.164 225.759C192.82 226.086 193.329 226.554 193.689 227.161C194.042 227.769 194.219 228.488 194.221 229.32ZM192.985 229.322C192.983 228.53 192.711 227.914 192.166 227.475C191.621 227.036 190.841 226.817 189.825 226.819C188.817 226.82 188.045 227.041 187.51 227.482C186.967 227.923 186.695 228.539 186.697 229.331C186.698 230.123 186.966 230.739 187.503 231.178C188.04 231.617 188.816 231.836 189.832 231.835C190.848 231.833 191.628 231.612 192.171 231.171C192.714 230.73 192.986 230.114 192.985 229.322ZM189.17 221.886L191.882 221.882C192.594 221.881 192.95 221.549 192.949 220.885C192.948 220.701 192.916 220.501 192.852 220.285L194.04 220.283C194.136 220.547 194.185 220.867 194.185 221.243C194.186 221.931 193.995 222.459 193.611 222.828C193.228 223.196 192.676 223.381 191.956 223.382L189.172 223.386L189.174 224.55L188.046 224.551L188.044 223.387L186.568 223.389L186.062 221.89L188.042 221.887L188.04 220.279L189.168 220.278L189.17 221.886ZM187.878 215.781C187.875 214.333 188.706 213.608 190.37 213.605L194.09 213.6L194.093 215.1L190.445 215.105C189.965 215.106 189.617 215.198 189.401 215.383C189.177 215.567 189.066 215.851 189.066 216.235C189.067 216.691 189.215 217.059 189.512 217.338C189.8 217.618 190.184 217.758 190.664 217.757L194.096 217.752L194.098 219.24L185.266 219.252L185.264 217.764L188.912 217.759C188.584 217.552 188.332 217.276 188.155 216.932C187.971 216.589 187.878 216.205 187.878 215.781ZM191.129 206.71L191.135 210.886C191.783 210.853 192.262 210.692 192.574 210.404C192.878 210.107 193.029 209.671 193.028 209.095C193.027 208.431 192.81 207.815 192.378 207.248L193.409 206.815C193.641 207.102 193.83 207.458 193.974 207.882C194.111 208.298 194.18 208.721 194.18 209.153C194.182 210.145 193.903 210.926 193.343 211.495C192.784 212.063 192.017 212.348 191.041 212.35C190.425 212.351 189.877 212.228 189.396 211.98C188.916 211.733 188.543 211.385 188.279 210.938C188.006 210.49 187.869 209.982 187.869 209.414C187.867 208.582 188.138 207.926 188.682 207.445C189.217 206.956 189.957 206.711 190.901 206.71L191.129 206.71ZM188.949 209.377C188.949 209.777 189.07 210.105 189.31 210.36C189.542 210.608 189.882 210.767 190.331 210.839L190.327 208.019C189.871 208.068 189.527 208.208 189.295 208.44C189.064 208.665 188.948 208.977 188.949 209.377ZM187.87 202.18C187.87 201.948 187.902 201.748 187.966 201.58L189.334 201.59C189.23 201.846 189.178 202.11 189.179 202.382C189.179 202.894 189.328 203.286 189.624 203.558C189.921 203.821 190.313 203.953 190.801 203.952L194.077 203.947L194.079 205.435L189.735 205.441C189.095 205.442 188.523 205.475 188.019 205.54L188.017 204.136L189.085 204.014C188.693 203.863 188.392 203.623 188.184 203.296C187.976 202.968 187.871 202.596 187.87 202.18ZM194.17 193.543C194.171 194.367 193.996 195.087 193.645 195.704C193.286 196.312 192.779 196.785 192.123 197.122C191.46 197.451 190.68 197.616 189.784 197.617C188.896 197.618 188.124 197.456 187.467 197.128C186.803 196.801 186.294 196.334 185.941 195.727C185.589 195.111 185.411 194.387 185.41 193.555C185.409 192.723 185.584 192.003 185.935 191.395C186.286 190.778 186.794 190.309 187.457 189.988C188.113 189.66 188.885 189.494 189.773 189.493C190.669 189.492 191.449 189.655 192.113 189.982C192.77 190.309 193.278 190.776 193.639 191.384C193.992 191.991 194.169 192.711 194.17 193.543ZM192.934 193.545C192.933 192.753 192.66 192.137 192.116 191.698C191.571 191.259 190.791 191.04 189.775 191.041C188.767 191.043 187.995 191.264 187.46 191.704C186.916 192.145 186.645 192.762 186.646 193.554C186.647 194.346 186.916 194.961 187.453 195.4C187.99 195.84 188.766 196.059 189.782 196.057C190.798 196.056 191.578 195.835 192.121 195.394C192.664 194.953 192.935 194.337 192.934 193.545ZM187.834 184.562C187.833 184.042 187.968 183.582 188.24 183.182C188.503 182.773 188.879 182.457 189.366 182.232C189.846 182 190.398 181.883 191.022 181.882C191.646 181.881 192.194 181.992 192.666 182.216C193.139 182.439 193.503 182.754 193.76 183.162C194.016 183.562 194.145 184.025 194.146 184.553C194.146 184.993 194.055 185.386 193.871 185.73C193.68 186.074 193.416 186.339 193.08 186.523L196.644 186.518L196.647 188.006L189.711 188.016C189.071 188.017 188.499 188.049 187.995 188.114L187.993 186.71L189.037 186.589C188.66 186.429 188.368 186.17 188.159 185.81C187.943 185.45 187.834 185.034 187.834 184.562ZM192.97 184.963C192.97 184.459 192.801 184.071 192.465 183.8C192.128 183.528 191.648 183.393 191.024 183.394C190.392 183.395 189.9 183.531 189.549 183.804C189.189 184.076 189.01 184.461 189.01 184.957C189.011 185.469 189.184 185.86 189.528 186.132C189.872 186.403 190.364 186.539 191.004 186.538C191.636 186.537 192.124 186.4 192.468 186.128C192.804 185.855 192.971 185.467 192.97 184.963ZM189.109 178.702L191.821 178.698C192.533 178.697 192.889 178.365 192.888 177.701C192.888 177.517 192.856 177.317 192.791 177.101L193.979 177.099C194.076 177.363 194.124 177.683 194.125 178.059C194.126 178.747 193.934 179.276 193.551 179.644C193.167 180.013 192.616 180.197 191.896 180.198L189.112 180.202L189.113 181.366L187.985 181.368L187.984 180.204L186.508 180.206L186.001 178.707L187.981 178.704L187.979 177.096L189.107 177.094L189.109 178.702ZM187.978 176.065L187.976 174.577L194.036 174.569L194.038 176.057L187.978 176.065ZM185.228 174.497L186.704 174.495L186.706 176.163L185.23 176.165L185.228 174.497ZM194.126 170.179C194.126 170.795 193.999 171.34 193.744 171.812C193.488 172.276 193.125 172.637 192.653 172.894C192.174 173.142 191.614 173.267 190.974 173.268C190.334 173.269 189.778 173.146 189.305 172.898C188.825 172.643 188.456 172.283 188.2 171.82C187.943 171.348 187.814 170.804 187.814 170.188C187.813 169.58 187.94 169.044 188.195 168.58C188.451 168.115 188.818 167.759 189.298 167.51C189.769 167.254 190.325 167.125 190.965 167.124C191.605 167.123 192.165 167.25 192.646 167.506C193.118 167.753 193.483 168.108 193.739 168.572C193.996 169.036 194.125 169.571 194.126 170.179ZM192.95 170.193C192.949 169.681 192.784 169.293 192.456 169.03C192.12 168.758 191.623 168.623 190.967 168.624C190.319 168.625 189.828 168.761 189.492 169.034C189.148 169.306 188.977 169.691 188.978 170.187C188.978 170.691 189.151 171.078 189.495 171.35C189.832 171.621 190.324 171.757 190.972 171.756C191.628 171.755 192.124 171.622 192.459 171.358C192.787 171.085 192.95 170.697 192.95 170.193ZM187.803 162.367C187.801 160.919 188.632 160.194 190.296 160.191L194.016 160.186L194.018 161.686L190.37 161.691C189.89 161.692 189.542 161.784 189.326 161.969C189.102 162.153 188.991 162.437 188.991 162.821C188.992 163.277 189.14 163.645 189.437 163.924C189.725 164.204 190.109 164.344 190.589 164.343L194.021 164.338L194.023 165.826L189.679 165.832C189.039 165.833 188.467 165.866 187.964 165.931L187.962 164.527L188.957 164.417C188.589 164.21 188.305 163.93 188.104 163.578C187.904 163.219 187.803 162.815 187.803 162.367ZM194.106 156.375C194.108 157.471 193.853 158.344 193.342 158.993L192.285 158.574C192.764 157.925 193.003 157.185 193.002 156.353C193.002 155.993 192.941 155.717 192.821 155.525C192.701 155.325 192.533 155.226 192.317 155.226C192.133 155.226 191.989 155.294 191.885 155.431C191.773 155.567 191.677 155.799 191.598 156.127L191.371 157.135C191.133 158.24 190.57 158.792 189.682 158.794C189.314 158.794 188.989 158.691 188.709 158.483C188.421 158.275 188.196 157.984 188.036 157.608C187.875 157.232 187.795 156.796 187.794 156.3C187.793 155.868 187.861 155.452 187.996 155.052C188.124 154.652 188.311 154.3 188.559 153.995L189.579 154.438C189.132 155.046 188.909 155.671 188.91 156.311C188.911 156.655 188.975 156.923 189.103 157.114C189.231 157.306 189.408 157.402 189.632 157.402C189.808 157.401 189.948 157.345 190.051 157.233C190.155 157.113 190.243 156.913 190.315 156.633L190.541 155.6C190.676 155 190.888 154.564 191.175 154.292C191.455 154.011 191.823 153.871 192.279 153.87C192.839 153.869 193.283 154.093 193.612 154.54C193.94 154.988 194.105 155.599 194.106 156.375Z" fill="black"/>
<path d="M26.576 3.456V4.608L22.7 12H21.044L24.908 4.716H20.624V3.456H26.576ZM31.2513 6.54C31.7873 6.54 32.2593 6.656 32.6673 6.888C33.0753 7.112 33.3913 7.432 33.6153 7.848C33.8393 8.256 33.9513 8.728 33.9513 9.264C33.9513 9.824 33.8233 10.32 33.5673 10.752C33.3113 11.176 32.9433 11.508 32.4633 11.748C31.9833 11.98 31.4273 12.096 30.7953 12.096C30.2593 12.096 29.7313 12.008 29.2113 11.832C28.6913 11.648 28.2633 11.404 27.9273 11.1L28.4433 9.972C29.2193 10.564 30.0113 10.86 30.8193 10.86C31.3553 10.86 31.7633 10.728 32.0433 10.464C32.3313 10.192 32.4753 9.808 32.4753 9.312C32.4753 8.84 32.3273 8.464 32.0313 8.184C31.7433 7.896 31.3553 7.752 30.8673 7.752C30.5313 7.752 30.2153 7.816 29.9193 7.944C29.6233 8.064 29.3633 8.244 29.1393 8.484H28.2033V3.456H33.5553V4.656H29.7153V6.984C30.1473 6.688 30.6593 6.54 31.2513 6.54ZM37.0666 8.556C36.3946 8.556 35.8666 8.336 35.4826 7.896C35.1066 7.448 34.9186 6.796 34.9186 5.94C34.9186 5.092 35.1066 4.448 35.4826 4.008C35.8666 3.56 36.3946 3.336 37.0666 3.336C37.7466 3.336 38.2786 3.56 38.6626 4.008C39.0466 4.448 39.2386 5.092 39.2386 5.94C39.2386 6.796 39.0466 7.448 38.6626 7.896C38.2786 8.336 37.7466 8.556 37.0666 8.556ZM36.9826 12L41.9266 3.456H43.2586L38.3026 12H36.9826ZM37.0666 7.584C37.3786 7.584 37.6066 7.456 37.7506 7.2C37.8946 6.944 37.9666 6.524 37.9666 5.94C37.9666 5.372 37.8906 4.96 37.7386 4.704C37.5946 4.44 37.3706 4.308 37.0666 4.308C36.7706 4.308 36.5506 4.44 36.4066 4.704C36.2626 4.96 36.1906 5.372 36.1906 5.94C36.1906 6.516 36.2626 6.936 36.4066 7.2C36.5506 7.456 36.7706 7.584 37.0666 7.584ZM43.1626 12.084C42.4826 12.084 41.9506 11.864 41.5666 11.424C41.1906 10.976 41.0026 10.32 41.0026 9.456C41.0026 8.608 41.1906 7.964 41.5666 7.524C41.9506 7.084 42.4826 6.864 43.1626 6.864C43.8426 6.864 44.3706 7.084 44.7466 7.524C45.1306 7.964 45.3226 8.612 45.3226 9.468C45.3226 10.324 45.1306 10.976 44.7466 11.424C44.3706 11.864 43.8426 12.084 43.1626 12.084ZM43.1626 11.112C43.4666 11.112 43.6906 10.984 43.8346 10.728C43.9786 10.464 44.0506 10.044 44.0506 9.468C44.0506 8.9 43.9746 8.488 43.8226 8.232C43.6786 7.968 43.4586 7.836 43.1626 7.836C42.8586 7.836 42.6346 7.968 42.4906 8.232C42.3466 8.488 42.2746 8.9 42.2746 9.468C42.2746 10.044 42.3466 10.464 42.4906 10.728C42.6346 10.984 42.8586 11.112 43.1626 11.112Z" fill="black"/>
<path d="M66.576 4.456V5.608L62.7 13H61.044L64.908 5.716H60.624V4.456H66.576ZM71.2513 7.54C71.7873 7.54 72.2593 7.656 72.6673 7.888C73.0753 8.112 73.3913 8.432 73.6153 8.848C73.8393 9.256 73.9513 9.728 73.9513 10.264C73.9513 10.824 73.8233 11.32 73.5673 11.752C73.3113 12.176 72.9433 12.508 72.4633 12.748C71.9833 12.98 71.4273 13.096 70.7953 13.096C70.2593 13.096 69.7313 13.008 69.2113 12.832C68.6913 12.648 68.2633 12.404 67.9273 12.1L68.4433 10.972C69.2193 11.564 70.0113 11.86 70.8193 11.86C71.3553 11.86 71.7633 11.728 72.0433 11.464C72.3313 11.192 72.4753 10.808 72.4753 10.312C72.4753 9.84 72.3273 9.464 72.0313 9.184C71.7433 8.896 71.3553 8.752 70.8673 8.752C70.5313 8.752 70.2153 8.816 69.9193 8.944C69.6233 9.064 69.3633 9.244 69.1393 9.484H68.2033V4.456H73.5553V5.656H69.7153V7.984C70.1473 7.688 70.6593 7.54 71.2513 7.54ZM77.0666 9.556C76.3946 9.556 75.8666 9.336 75.4826 8.896C75.1066 8.448 74.9186 7.796 74.9186 6.94C74.9186 6.092 75.1066 5.448 75.4826 5.008C75.8666 4.56 76.3946 4.336 77.0666 4.336C77.7466 4.336 78.2786 4.56 78.6626 5.008C79.0466 5.448 79.2386 6.092 79.2386 6.94C79.2386 7.796 79.0466 8.448 78.6626 8.896C78.2786 9.336 77.7466 9.556 77.0666 9.556ZM76.9826 13L81.9266 4.456H83.2586L78.3026 13H76.9826ZM77.0666 8.584C77.3786 8.584 77.6066 8.456 77.7506 8.2C77.8946 7.944 77.9666 7.524 77.9666 6.94C77.9666 6.372 77.8906 5.96 77.7386 5.704C77.5946 5.44 77.3706 5.308 77.0666 5.308C76.7706 5.308 76.5506 5.44 76.4066 5.704C76.2626 5.96 76.1906 6.372 76.1906 6.94C76.1906 7.516 76.2626 7.936 76.4066 8.2C76.5506 8.456 76.7706 8.584 77.0666 8.584ZM83.1626 13.084C82.4826 13.084 81.9506 12.864 81.5666 12.424C81.1906 11.976 81.0026 11.32 81.0026 10.456C81.0026 9.608 81.1906 8.964 81.5666 8.524C81.9506 8.084 82.4826 7.864 83.1626 7.864C83.8426 7.864 84.3706 8.084 84.7466 8.524C85.1306 8.964 85.3226 9.612 85.3226 10.468C85.3226 11.324 85.1306 11.976 84.7466 12.424C84.3706 12.864 83.8426 13.084 83.1626 13.084ZM83.1626 12.112C83.4666 12.112 83.6906 11.984 83.8346 11.728C83.9786 11.464 84.0506 11.044 84.0506 10.468C84.0506 9.9 83.9746 9.488 83.8226 9.232C83.6786 8.968 83.4586 8.836 83.1626 8.836C82.8586 8.836 82.6346 8.968 82.4906 9.232C82.3466 9.488 82.2746 9.9 82.2746 10.468C82.2746 11.044 82.3466 11.464 82.4906 11.728C82.6346 11.984 82.8586 12.112 83.1626 12.112Z" fill="black"/>
<path d="M104.056 70.54C104.592 70.54 105.064 70.656 105.472 70.888C105.88 71.112 106.196 71.432 106.42 71.848C106.644 72.256 106.756 72.728 106.756 73.264C106.756 73.824 106.628 74.32 106.372 74.752C106.116 75.176 105.748 75.508 105.268 75.748C104.788 75.98 104.232 76.096 103.6 76.096C103.064 76.096 102.536 76.008 102.016 75.832C101.496 75.648 101.068 75.404 100.732 75.1L101.248 73.972C102.024 74.564 102.816 74.86 103.624 74.86C104.16 74.86 104.568 74.728 104.848 74.464C105.136 74.192 105.28 73.808 105.28 73.312C105.28 72.84 105.132 72.464 104.836 72.184C104.548 71.896 104.16 71.752 103.672 71.752C103.336 71.752 103.02 71.816 102.724 71.944C102.428 72.064 102.168 72.244 101.944 72.484H101.008V67.456H106.36V68.656H102.52V70.984C102.952 70.688 103.464 70.54 104.056 70.54ZM110.795 76.108C109.779 76.108 109.003 75.736 108.467 74.992C107.939 74.24 107.675 73.148 107.675 71.716C107.675 70.308 107.939 69.232 108.467 68.488C109.003 67.744 109.779 67.372 110.795 67.372C111.811 67.372 112.583 67.744 113.111 68.488C113.647 69.224 113.915 70.3 113.915 71.716C113.915 73.14 113.647 74.228 113.111 74.98C112.583 75.732 111.811 76.108 110.795 76.108ZM110.795 74.896C111.347 74.896 111.747 74.644 111.995 74.14C112.251 73.628 112.379 72.82 112.379 71.716C112.379 70.628 112.251 69.836 111.995 69.34C111.747 68.836 111.347 68.584 110.795 68.584C110.243 68.584 109.839 68.836 109.583 69.34C109.335 69.836 109.211 70.628 109.211 71.716C109.211 72.82 109.335 73.628 109.583 74.14C109.839 74.644 110.243 74.896 110.795 74.896ZM117.067 72.556C116.395 72.556 115.867 72.336 115.483 71.896C115.107 71.448 114.919 70.796 114.919 69.94C114.919 69.092 115.107 68.448 115.483 68.008C115.867 67.56 116.395 67.336 117.067 67.336C117.747 67.336 118.279 67.56 118.663 68.008C119.047 68.448 119.239 69.092 119.239 69.94C119.239 70.796 119.047 71.448 118.663 71.896C118.279 72.336 117.747 72.556 117.067 72.556ZM116.983 76L121.927 67.456H123.259L118.303 76H116.983ZM117.067 71.584C117.379 71.584 117.607 71.456 117.751 71.2C117.895 70.944 117.967 70.524 117.967 69.94C117.967 69.372 117.891 68.96 117.739 68.704C117.595 68.44 117.371 68.308 117.067 68.308C116.771 68.308 116.551 68.44 116.407 68.704C116.263 68.96 116.191 69.372 116.191 69.94C116.191 70.516 116.263 70.936 116.407 71.2C116.551 71.456 116.771 71.584 117.067 71.584ZM123.163 76.084C122.483 76.084 121.951 75.864 121.567 75.424C121.191 74.976 121.003 74.32 121.003 73.456C121.003 72.608 121.191 71.964 121.567 71.524C121.951 71.084 122.483 70.864 123.163 70.864C123.843 70.864 124.371 71.084 124.747 71.524C125.131 71.964 125.323 72.612 125.323 73.468C125.323 74.324 125.131 74.976 124.747 75.424C124.371 75.864 123.843 76.084 123.163 76.084ZM123.163 75.112C123.467 75.112 123.691 74.984 123.835 74.728C123.979 74.464 124.051 74.044 124.051 73.468C124.051 72.9 123.975 72.488 123.823 72.232C123.679 71.968 123.459 71.836 123.163 71.836C122.859 71.836 122.635 71.968 122.491 72.232C122.347 72.488 122.275 72.9 122.275 73.468C122.275 74.044 122.347 74.464 122.491 74.728C122.635 74.984 122.859 75.112 123.163 75.112Z" fill="black"/>
<path d="M144.053 70.54C144.589 70.54 145.061 70.656 145.469 70.888C145.877 71.112 146.193 71.432 146.417 71.848C146.641 72.256 146.753 72.728 146.753 73.264C146.753 73.824 146.625 74.32 146.369 74.752C146.113 75.176 145.745 75.508 145.265 75.748C144.785 75.98 144.229 76.096 143.597 76.096C143.061 76.096 142.533 76.008 142.013 75.832C141.493 75.648 141.065 75.404 140.729 75.1L141.245 73.972C142.021 74.564 142.813 74.86 143.621 74.86C144.157 74.86 144.565 74.728 144.845 74.464C145.133 74.192 145.277 73.808 145.277 73.312C145.277 72.84 145.129 72.464 144.833 72.184C144.545 71.896 144.157 71.752 143.669 71.752C143.333 71.752 143.017 71.816 142.721 71.944C142.425 72.064 142.165 72.244 141.941 72.484H141.005V67.456H146.357V68.656H142.517V70.984C142.949 70.688 143.461 70.54 144.053 70.54ZM150.793 76.108C149.777 76.108 149.001 75.736 148.465 74.992C147.937 74.24 147.673 73.148 147.673 71.716C147.673 70.308 147.937 69.232 148.465 68.488C149.001 67.744 149.777 67.372 150.793 67.372C151.809 67.372 152.581 67.744 153.109 68.488C153.645 69.224 153.913 70.3 153.913 71.716C153.913 73.14 153.645 74.228 153.109 74.98C152.581 75.732 151.809 76.108 150.793 76.108ZM150.793 74.896C151.345 74.896 151.745 74.644 151.993 74.14C152.249 73.628 152.377 72.82 152.377 71.716C152.377 70.628 152.249 69.836 151.993 69.34C151.745 68.836 151.345 68.584 150.793 68.584C150.241 68.584 149.837 68.836 149.581 69.34C149.333 69.836 149.209 70.628 149.209 71.716C149.209 72.82 149.333 73.628 149.581 74.14C149.837 74.644 150.241 74.896 150.793 74.896ZM157.064 72.556C156.392 72.556 155.864 72.336 155.48 71.896C155.104 71.448 154.916 70.796 154.916 69.94C154.916 69.092 155.104 68.448 155.48 68.008C155.864 67.56 156.392 67.336 157.064 67.336C157.744 67.336 158.276 67.56 158.66 68.008C159.044 68.448 159.236 69.092 159.236 69.94C159.236 70.796 159.044 71.448 158.66 71.896C158.276 72.336 157.744 72.556 157.064 72.556ZM156.98 76L161.924 67.456H163.256L158.3 76H156.98ZM157.064 71.584C157.376 71.584 157.604 71.456 157.748 71.2C157.892 70.944 157.964 70.524 157.964 69.94C157.964 69.372 157.888 68.96 157.736 68.704C157.592 68.44 157.368 68.308 157.064 68.308C156.768 68.308 156.548 68.44 156.404 68.704C156.26 68.96 156.188 69.372 156.188 69.94C156.188 70.516 156.26 70.936 156.404 71.2C156.548 71.456 156.768 71.584 157.064 71.584ZM163.16 76.084C162.48 76.084 161.948 75.864 161.564 75.424C161.188 74.976 161 74.32 161 73.456C161 72.608 161.188 71.964 161.564 71.524C161.948 71.084 162.48 70.864 163.16 70.864C163.84 70.864 164.368 71.084 164.744 71.524C165.128 71.964 165.32 72.612 165.32 73.468C165.32 74.324 165.128 74.976 164.744 75.424C164.368 75.864 163.84 76.084 163.16 76.084ZM163.16 75.112C163.464 75.112 163.688 74.984 163.832 74.728C163.976 74.464 164.048 74.044 164.048 73.468C164.048 72.9 163.972 72.488 163.82 72.232C163.676 71.968 163.456 71.836 163.16 71.836C162.856 71.836 162.632 71.968 162.488 72.232C162.344 72.488 162.272 72.9 162.272 73.468C162.272 74.044 162.344 74.464 162.488 74.728C162.632 74.984 162.856 75.112 163.16 75.112Z" fill="black"/>
<path d="M188.588 122.74V124H182.852V122.86L185.756 119.728C186.1 119.352 186.352 119.008 186.512 118.696C186.672 118.384 186.752 118.076 186.752 117.772C186.752 117.38 186.636 117.084 186.404 116.884C186.18 116.684 185.856 116.584 185.432 116.584C184.68 116.584 183.908 116.88 183.116 117.472L182.6 116.344C182.936 116.04 183.368 115.8 183.896 115.624C184.424 115.44 184.956 115.348 185.492 115.348C186.348 115.348 187.024 115.56 187.52 115.984C188.024 116.4 188.276 116.964 188.276 117.676C188.276 118.164 188.168 118.624 187.952 119.056C187.744 119.488 187.392 119.972 186.896 120.508L184.796 122.74H188.588ZM193.263 118.54C193.799 118.54 194.271 118.656 194.679 118.888C195.087 119.112 195.403 119.432 195.627 119.848C195.851 120.256 195.963 120.728 195.963 121.264C195.963 121.824 195.835 122.32 195.579 122.752C195.323 123.176 194.955 123.508 194.475 123.748C193.995 123.98 193.439 124.096 192.807 124.096C192.271 124.096 191.743 124.008 191.223 123.832C190.703 123.648 190.275 123.404 189.939 123.1L190.455 121.972C191.231 122.564 192.023 122.86 192.831 122.86C193.367 122.86 193.775 122.728 194.055 122.464C194.343 122.192 194.487 121.808 194.487 121.312C194.487 120.84 194.339 120.464 194.043 120.184C193.755 119.896 193.367 119.752 192.879 119.752C192.543 119.752 192.227 119.816 191.931 119.944C191.635 120.064 191.375 120.244 191.151 120.484H190.215V115.456H195.567V116.656H191.727V118.984C192.159 118.688 192.671 118.54 193.263 118.54ZM197.23 120.16H200.842V121.36H197.23V120.16ZM186.92 134.608C187.424 134.744 187.808 134.992 188.072 135.352C188.344 135.712 188.48 136.156 188.48 136.684C188.48 137.428 188.204 138.016 187.652 138.448C187.108 138.88 186.372 139.096 185.444 139.096C184.868 139.096 184.312 139.008 183.776 138.832C183.248 138.656 182.812 138.412 182.468 138.1L182.996 136.972C183.756 137.564 184.552 137.86 185.384 137.86C185.928 137.86 186.332 137.752 186.596 137.536C186.868 137.32 187.004 136.992 187.004 136.552C187.004 136.12 186.868 135.804 186.596 135.604C186.324 135.396 185.904 135.292 185.336 135.292H184.208V134.056H185.132C186.236 134.056 186.788 133.636 186.788 132.796C186.788 132.404 186.668 132.104 186.428 131.896C186.188 131.688 185.852 131.584 185.42 131.584C184.652 131.584 183.884 131.88 183.116 132.472L182.6 131.344C182.944 131.04 183.376 130.8 183.896 130.624C184.424 130.44 184.964 130.348 185.516 130.348C186.356 130.348 187.024 130.556 187.52 130.972C188.024 131.38 188.276 131.928 188.276 132.616C188.268 133.088 188.144 133.5 187.904 133.852C187.672 134.196 187.344 134.448 186.92 134.608ZM195.771 130.456V131.608L191.895 139H190.239L194.103 131.716H189.819V130.456H195.771ZM199.067 135.556C198.395 135.556 197.867 135.336 197.483 134.896C197.107 134.448 196.919 133.796 196.919 132.94C196.919 132.092 197.107 131.448 197.483 131.008C197.867 130.56 198.395 130.336 199.067 130.336C199.747 130.336 200.279 130.56 200.663 131.008C201.047 131.448 201.239 132.092 201.239 132.94C201.239 133.796 201.047 134.448 200.663 134.896C200.279 135.336 199.747 135.556 199.067 135.556ZM198.983 139L203.927 130.456H205.259L200.303 139H198.983ZM199.067 134.584C199.379 134.584 199.607 134.456 199.751 134.2C199.895 133.944 199.967 133.524 199.967 132.94C199.967 132.372 199.891 131.96 199.739 131.704C199.595 131.44 199.371 131.308 199.067 131.308C198.771 131.308 198.551 131.44 198.407 131.704C198.263 131.96 198.191 132.372 198.191 132.94C198.191 133.516 198.263 133.936 198.407 134.2C198.551 134.456 198.771 134.584 199.067 134.584ZM205.163 139.084C204.483 139.084 203.951 138.864 203.567 138.424C203.191 137.976 203.003 137.32 203.003 136.456C203.003 135.608 203.191 134.964 203.567 134.524C203.951 134.084 204.483 133.864 205.163 133.864C205.843 133.864 206.371 134.084 206.747 134.524C207.131 134.964 207.323 135.612 207.323 136.468C207.323 137.324 207.131 137.976 206.747 138.424C206.371 138.864 205.843 139.084 205.163 139.084ZM205.163 138.112C205.467 138.112 205.691 137.984 205.835 137.728C205.979 137.464 206.051 137.044 206.051 136.468C206.051 135.9 205.975 135.488 205.823 135.232C205.679 134.968 205.459 134.836 205.163 134.836C204.859 134.836 204.635 134.968 204.491 135.232C204.347 135.488 204.275 135.9 204.275 136.468C204.275 137.044 204.347 137.464 204.491 137.728C204.635 137.984 204.859 138.112 205.163 138.112Z" fill="black"/>
<rect y="249" width="222" height="1" fill="#C4C4C4"/>
</svg>
