<svg width="32" height="25" viewBox="0 0 32 25" fill="none" xmlns="http://www.w3.org/2000/svg">
<path d="M28.5476 6.23045C28.5678 6.50387 28.5678 6.77735 28.5678 7.05078C28.5678 15.3906 22.0063 25 10.0139 25C6.31923 25 2.88708 23.9648 0 22.168C0.52494 22.2266 1.02962 22.2461 1.57476 22.2461C4.62329 22.2461 7.42964 21.25 9.67065 19.5508C6.80377 19.4922 4.40124 17.6758 3.57347 15.1758C3.97729 15.2343 4.38105 15.2734 4.80506 15.2734C5.39053 15.2734 5.97606 15.1953 6.52114 15.0586C3.53314 14.4726 1.29206 11.9336 1.29206 8.86718V8.78908C2.16016 9.25783 3.16971 9.5508 4.23967 9.58982C2.4832 8.45698 1.33245 6.52341 1.33245 4.33589C1.33245 3.16404 1.65542 2.08982 2.22076 1.15231C5.43086 4.98044 10.2561 7.48039 15.6668 7.75388C15.5659 7.28513 15.5053 6.79689 15.5053 6.3086C15.5053 2.832 18.4125 0 22.0264 0C23.904 0 25.5999 0.761717 26.7911 1.99219C28.2649 1.71876 29.6781 1.19139 30.9299 0.468753C30.4453 1.93363 29.4157 3.1641 28.063 3.9453C29.3753 3.80864 30.6472 3.457 31.8182 2.96877C30.93 4.21872 29.8195 5.33196 28.5476 6.23045Z" fill="black"/>
</svg>
